<svg xmlns="http://www.w3.org/2000/svg" width="85" height="85" viewBox="0 0 85 85">
  <g id="Grupo_1080916" data-name="Grupo 1080916" transform="translate(-285 -4525)">
    <g id="Grupo_1080700" data-name="Grupo 1080700" transform="translate(0 -2174)">
      <path id="Trazado_605481" data-name="Trazado 605481" d="M42.5,0A42.5,42.5,0,1,1,0,42.5,42.5,42.5,0,0,1,42.5,0Z" transform="translate(285 6699)" fill="#eaf2e1"/>
    </g>
    <g id="Ñëîé_1" data-name="Ñëîé 1" transform="translate(300.029 4541)">
      <g id="Grupo_1080913" data-name="Grupo 1080913">
        <path id="Trazado_833280" data-name="Trazado 833280" d="M53.05,41.83a2.581,2.581,0,0,1-.79.52,7.705,7.705,0,0,1-1.1-2.36h.04a4.327,4.327,0,0,0,3.08-1.28l.72-.72-1.23-1.23-.72.72a2.686,2.686,0,0,1-2.14.74v-.15a6.446,6.446,0,0,0-.93-3.34,11.784,11.784,0,0,1-1.68-6.07,10.352,10.352,0,0,0-1.96-6.05,22.208,22.208,0,0,0,1.09-6.96C47.43,7.02,42.75,0,37,0H28.31a8.583,8.583,0,0,0-6.54,3.48H7.44C3.54,3.48.48,8.82.48,15.65S3.54,27.82,7.44,27.82H21.76A8.583,8.583,0,0,0,28.3,31.3h8.63a8.515,8.515,0,0,1-1.16,3.53,10.51,10.51,0,0,0-.65,1.3,4.913,4.913,0,0,0-4.92.47l-1.39,1.04a3.139,3.139,0,0,1-3.65,0L23.77,36.6a4.926,4.926,0,0,0-5.74,0l-1.39,1.04a3.139,3.139,0,0,1-3.65,0L11.6,36.6a4.926,4.926,0,0,0-5.74,0L4.47,37.64a3.122,3.122,0,0,1-3.52.1l-.97,1.45a4.883,4.883,0,0,0,5.53-.15L6.9,38a3.139,3.139,0,0,1,3.65,0l1.39,1.04a4.926,4.926,0,0,0,5.74,0L19.07,38a3.139,3.139,0,0,1,3.65,0l1.39,1.04a4.77,4.77,0,0,0,5.74,0L31.24,38a3.119,3.119,0,0,1,3.37-.17,9.878,9.878,0,0,0-.24,2.03c0,.12-.02.24-.03.36a4.909,4.909,0,0,0-4.15.75L28.8,42.01a3.139,3.139,0,0,1-3.65,0l-1.39-1.04a4.926,4.926,0,0,0-5.74,0l-1.39,1.04a3.139,3.139,0,0,1-3.65,0l-1.39-1.04a4.926,4.926,0,0,0-5.74,0L4.46,42.01a3.122,3.122,0,0,1-3.52.1l-.97,1.45a4.883,4.883,0,0,0,5.53-.15l1.39-1.04a3.139,3.139,0,0,1,3.65,0l1.39,1.04a4.926,4.926,0,0,0,5.74,0l1.39-1.04a3.139,3.139,0,0,1,3.65,0l1.39,1.04a4.926,4.926,0,0,0,5.74,0l1.39-1.04a3.139,3.139,0,0,1,3.65,0l1.39,1.04a4.926,4.926,0,0,0,5.74,0l1.39-1.04a3.139,3.139,0,0,1,3.65,0l1.5,1.13a4.407,4.407,0,0,0,2.62.87,4.327,4.327,0,0,0,3.08-1.28l.72-.72-1.23-1.23-.72.72ZM7.44,26.08c-2.83,0-5.22-4.78-5.22-10.43S4.61,5.22,7.44,5.22H20.55a20.509,20.509,0,0,0-2.68,10.43,20.484,20.484,0,0,0,2.68,10.43Zm20.87,3.48c-4.79,0-8.69-6.24-8.69-13.91S23.51,1.74,28.3,1.74h3.94c-3.36,2.6-5.68,7.85-5.68,13.91s2.31,11.31,5.68,13.91H28.3Zm0-13.91c0-7.67,3.9-13.91,8.69-13.91s8.69,6.24,8.69,13.91a21.1,21.1,0,0,1-.7,5.42,10.291,10.291,0,0,0-1.48-1.15,21.048,21.048,0,0,0,.44-4.27c0-6.83-3.05-12.17-6.96-12.17s-6.96,5.35-6.96,12.17c0,5.73,2.17,10.54,5.3,11.83a3.48,3.48,0,0,1,1.53,2.07c-4.74-.11-8.57-6.3-8.57-13.9Zm5.32-7.88c.92-1.58,2.1-2.55,3.37-2.55,2.83,0,5.22,4.78,5.22,10.43a19.586,19.586,0,0,1-.3,3.42,10.3,10.3,0,0,0-6.88-.4,21.771,21.771,0,0,0,.22-3.01,18.593,18.593,0,0,0-1.63-7.88Zm-.11,7.88a19.148,19.148,0,0,1-.37,3.78c-.2.1-.41.19-.6.31l-.29.17a19.124,19.124,0,0,1-.48-4.26,18.193,18.193,0,0,1,.87-5.67A18.193,18.193,0,0,1,33.52,15.65ZM49.63,42.08l-1.5-1.13a4.926,4.926,0,0,0-5.74,0L41,41.99a3.139,3.139,0,0,1-3.65,0l-1.34-1.01a5.52,5.52,0,0,0,.12-1.14,8.063,8.063,0,0,1,1.14-4.12,10.29,10.29,0,0,0,1.47-5.29,5.208,5.208,0,0,0-3.21-4.8,7.583,7.583,0,0,1-2.76-3.99l.68-.41a8.653,8.653,0,0,1,13.11,7.43,13.6,13.6,0,0,0,1.93,6.97,4.811,4.811,0,0,1,.68,2.45,9.23,9.23,0,0,0,1.08,4.33,2.432,2.432,0,0,1-.62-.32Z" fill="#455b2d"/>
        <path id="Trazado_833281" data-name="Trazado 833281" d="M53.05,47.05a2.692,2.692,0,0,1-3.42.24l-1.5-1.13a4.926,4.926,0,0,0-5.74,0L41,47.2a3.139,3.139,0,0,1-3.65,0l-1.39-1.04a4.926,4.926,0,0,0-5.74,0L28.83,47.2a3.139,3.139,0,0,1-3.65,0l-1.39-1.04a4.926,4.926,0,0,0-5.74,0L16.66,47.2a3.139,3.139,0,0,1-3.65,0l-1.39-1.04a4.926,4.926,0,0,0-5.74,0L4.49,47.2a3.122,3.122,0,0,1-3.52.1L0,48.75a4.883,4.883,0,0,0,5.53-.15l1.39-1.04a3.139,3.139,0,0,1,3.65,0l1.39,1.04a4.926,4.926,0,0,0,5.74,0l1.39-1.04a3.139,3.139,0,0,1,3.65,0l1.39,1.04a4.926,4.926,0,0,0,5.74,0l1.39-1.04a3.139,3.139,0,0,1,3.65,0L36.3,48.6a4.926,4.926,0,0,0,5.74,0l1.39-1.04a3.139,3.139,0,0,1,3.65,0l1.5,1.13a4.407,4.407,0,0,0,2.62.87,4.327,4.327,0,0,0,3.08-1.28l.72-.72-1.23-1.23Z" fill="#455b2d"/>
        <path id="Trazado_833282" data-name="Trazado 833282" d="M53.05,51.4a2.692,2.692,0,0,1-3.42.24l-1.5-1.13a4.926,4.926,0,0,0-5.74,0L41,51.55a3.139,3.139,0,0,1-3.65,0l-1.39-1.04a4.926,4.926,0,0,0-5.74,0l-1.39,1.04a3.139,3.139,0,0,1-3.65,0l-1.39-1.04a4.926,4.926,0,0,0-5.74,0l-1.39,1.04a3.139,3.139,0,0,1-3.65,0l-1.39-1.04a4.926,4.926,0,0,0-5.74,0L4.49,51.55a3.122,3.122,0,0,1-3.52.1L0,53.1a4.883,4.883,0,0,0,5.53-.15l1.39-1.04a3.139,3.139,0,0,1,3.65,0l1.39,1.04a4.926,4.926,0,0,0,5.74,0l1.39-1.04a3.139,3.139,0,0,1,3.65,0l1.39,1.04a4.926,4.926,0,0,0,5.74,0l1.39-1.04a3.139,3.139,0,0,1,3.65,0l1.39,1.04a4.926,4.926,0,0,0,5.74,0l1.39-1.04a3.139,3.139,0,0,1,3.65,0l1.5,1.13a4.407,4.407,0,0,0,2.62.87,4.327,4.327,0,0,0,3.08-1.28l.72-.72-1.23-1.23Z" fill="#455b2d"/>
      </g>
    </g>
  </g>
</svg>
