<svg xmlns="http://www.w3.org/2000/svg" width="62" height="62" viewBox="0 0 62 62">
  <g id="Grupo_1081043" data-name="Grupo 1081043" transform="translate(-758 -13506)">
    <path id="Uni칩n_16" data-name="Uni칩n 16" d="M31,0A31,31,0,1,1,0,31,31,31,0,0,1,31,0Z" transform="translate(758 13506)" fill="#cadeb4"/>
    <g id="_30" data-name="30" transform="translate(770 13518)">
      <g id="Grupo_1081040" data-name="Grupo 1081040" transform="translate(0)">
        <path id="Trazado_833666" data-name="Trazado 833666" d="M341.583,165.092l.065-.13-1.1-.551-.065.131a1.377,1.377,0,0,1-2.464,0l-.065-.13-1.1.551.065.129a2.609,2.609,0,0,0,4.668,0Z" transform="translate(-310.909 -151.749)" fill="#455b2d"/>
        <path id="Trazado_833667" data-name="Trazado 833667" d="M38.2,23.368a4.914,4.914,0,0,0-4.119-4.862l-2.245-.374A1.229,1.229,0,0,1,30.8,16.916v-.333a4.943,4.943,0,0,0,2.3-3.03h.162a2.464,2.464,0,0,0,.947-4.738,3.69,3.69,0,0,0,.272-1.154L35,7.148a2.484,2.484,0,0,0,.732-1.768,2.513,2.513,0,0,0-1.214-2.145L29.8.406a2.887,2.887,0,0,0-2.923,0L22.16,3.236a2.5,2.5,0,0,0-.482,3.913l.513.513a3.669,3.669,0,0,0,.272,1.154,2.464,2.464,0,0,0,.947,4.738h.162a4.94,4.94,0,0,0,2.3,3.03v.333a1.227,1.227,0,0,1-1.03,1.215l-2.245.374a4.914,4.914,0,0,0-4.118,4.862v3.74a3.678,3.678,0,0,0,.949,2.464H17.249A1.851,1.851,0,0,0,15.507,30.8H13.417l-.372-1.489L15,28.478a3.7,3.7,0,0,0,1.649-5.42,2.6,2.6,0,0,0-.562-3.831l-.1-.069a2.86,2.86,0,0,0,.034-.345,2.8,2.8,0,0,0-2.794-2.795h-2.5l1.232-1.232h4.674a1.851,1.851,0,0,0,1.848-1.848V1.848A1.851,1.851,0,0,0,16.633,0H1.848A1.851,1.851,0,0,0,0,1.848V12.938a1.851,1.851,0,0,0,1.848,1.848H7.393v.977a1.448,1.448,0,0,0,.029.285,2.789,2.789,0,0,0-2.494,2.765,2.86,2.86,0,0,0,.034.345l-.1.069A2.612,2.612,0,0,0,3.7,21.418a2.581,2.581,0,0,0,.6,1.643,3.7,3.7,0,0,0,1.65,5.418l1.955.838L7.528,30.8H5.545A5.551,5.551,0,0,0,0,36.349V38.2H36.349A1.851,1.851,0,0,0,38.2,36.349V31.421a1.849,1.849,0,0,0-1.1-1.687,3.685,3.685,0,0,0,1.1-2.626v-3.74ZM34.5,11.089a1.234,1.234,0,0,1-1.232,1.232V10.141q.135-.121.257-.255A1.233,1.233,0,0,1,34.5,11.089ZM22.179,5.38a1.275,1.275,0,0,1,.616-1.088l4.718-2.83a1.633,1.633,0,0,1,1.654,0l4.718,2.83a1.27,1.27,0,0,1,.244,1.987L34,6.408a1.219,1.219,0,0,0-.731-.246H30.075a1.818,1.818,0,0,0,.113-.616,1.848,1.848,0,1,0-3.583.616H23.411a1.228,1.228,0,0,0-.732.246l-.129-.129a1.264,1.264,0,0,1-.371-.9Zm6.777.165a.616.616,0,1,1-.616-.616A.616.616,0,0,1,28.956,5.545Zm-5.545,6.777a1.231,1.231,0,0,1-.257-2.436c.082.089.168.174.257.255Zm0-4.929h9.857A2.467,2.467,0,0,1,30.8,9.857H25.875A2.467,2.467,0,0,1,23.411,7.393Zm1.232,4.929V10.874a3.674,3.674,0,0,0,1.232.216H30.8a3.674,3.674,0,0,0,1.232-.216v1.448a3.7,3.7,0,1,1-7.393,0Zm3.7,7.22-1.624-1.3a2.458,2.458,0,0,0,.377-1.158,4.9,4.9,0,0,0,1.247.166h0a4.9,4.9,0,0,0,1.247-.166,2.449,2.449,0,0,0,.377,1.158Zm1.044,1.871-.256.767H27.551l-.256-.767,1.044-.417Zm-1.754,2H29.05l.411,2.464H27.219l.411-2.464Zm.71,3.7a1.232,1.232,0,1,1,0,2.464H27.107V27.107Zm1.211-6.956,1.254-1v1.5Zm-3.675-1,1.254,1-1.254.5v-1.5Zm-6.161,7.96v-3.74A3.684,3.684,0,0,1,22.8,19.722l1.84-.306v3.057l1.507-.6.325.975-.505,3.03H23.412v-3.7H22.18v4.167l-.551,1.1,1.1.551.446-.892h2.7v2.464h-3.7a2.467,2.467,0,0,1-2.464-2.464h0ZM1.848,13.554a.616.616,0,0,1-.616-.616V1.848a.616.616,0,0,1,.616-.616H16.634a.616.616,0,0,1,.616.616V12.938a.616.616,0,0,1-.616.616H11.451l-2.39,2.39a.265.265,0,0,1-.435-.18V13.554ZM6.43,27.345a2.477,2.477,0,0,1-1.5-2.278h0a2.476,2.476,0,0,1,.344-1.255,2.6,2.6,0,0,0,1.033.215,2.626,2.626,0,0,0,1.167-.276l.811-.405-.551-1.1-.811.405A1.38,1.38,0,0,1,5.4,20.371a2.8,2.8,0,0,0,.343.417l.595.594.871-.872-.595-.594a1.562,1.562,0,0,1,1.1-2.667h5.5a1.562,1.562,0,0,1,1.1,2.667l-.595.594.871.872.595-.595a2.843,2.843,0,0,0,.343-.417,1.38,1.38,0,0,1-1.519,2.279l-.811-.405-.551,1.1.811.405a2.623,2.623,0,0,0,1.167.276,2.586,2.586,0,0,0,1.033-.216,2.472,2.472,0,0,1-1.157,3.533l-2.321.994H8.752l-2.321-.994ZM12.149,30.8H8.8l.308-1.232h2.735Zm-6.6,1.232H15.4A4.314,4.314,0,0,1,19.293,34.5H1.654a4.314,4.314,0,0,1,3.891-2.464ZM4.313,36.965H1.232v-.616a4.28,4.28,0,0,1,.049-.616H4.313v1.232Zm11.089,0H5.545V35.733H15.4v1.232Zm4.313,0h-3.08V35.733h3.031a4.28,4.28,0,0,1,.049.616Zm17.25-.616a.616.616,0,0,1-.616.616h-15.4v-.616a5.556,5.556,0,0,0-4.133-5.363.615.615,0,0,1,.437-.182h19.1a.616.616,0,0,1,.616.616Zm0-9.241A2.467,2.467,0,0,1,34.5,29.572H30.462a2.386,2.386,0,0,0,0-2.464H33.5L33.95,28l1.1-.551-.551-1.1V22.18H33.268v3.7H30.71l-.505-3.03.325-.975,1.507.6V19.416l1.84.306a3.685,3.685,0,0,1,3.089,3.646v3.74Z" transform="translate(0)" fill="#455b2d"/>
        <path id="Trazado_833668" data-name="Trazado 833668" d="M84.929,35.08a1.851,1.851,0,0,1-1.848,1.848h-.616v3.08H83.7V38.1A3.08,3.08,0,1,0,80,35.08V35.7h1.232V35.08a1.848,1.848,0,1,1,3.7,0Z" transform="translate(-73.839 -29.536)" fill="#455b2d"/>
        <rect id="Rect치ngulo_379551" data-name="Rect치ngulo 379551" width="1" height="1" transform="translate(8.318 12.319)" fill="#455b2d"/>
      </g>
    </g>
  </g>
</svg>
