<svg xmlns="http://www.w3.org/2000/svg" width="262.58" height="236.979" viewBox="0 0 262.58 236.979">
  <g id="ww1" transform="translate(0.01 -0.002)">
    <g id="Capa_2" data-name="Capa 2">
      <g id="OBJECTS">
        <g id="Grupo_1081002" data-name="Grupo 1081002">
          <g id="Grupo_1080977" data-name="Grupo 1080977" opacity="0.25">
            <path id="Trazado_833390" data-name="Trazado 833390" d="M34.78,47.39c-.65-13.13,5.19-29.28,20.28-29.8,27.36-.94,42.35,31.46,66.96,37.46,16.89,4.12,27.34-7.81,39.8-16.6,13.45-9.5,27.79-22.41,45.82-18.36,11.64,2.62,18.23,14.48,19.24,25.4,1.07,11.7-4.56,21.11-3.59,32.34,1.02,11.91,13.62,17.05,19.85,26.87,7.69,12.14,10.29,26.15,6.56,40.07-3.6,13.42-13.75,26.7-26.84,31.93-17.74,7.09-30.96-3.59-47.45-8.37-23.55-6.82-34.74,5.72-51.16,19.83-10.16,8.73-23,16.46-37.12,14.33-19.79-2.99-25.94-29.83-26.1-46.42-.1-10.58,4.65-22.84-3.15-30.96-7.46-7.77-14.75-6.7-24.89-7.33-8.07-.5-17.55-3.54-20.27-11.91-1.26-3.9-1.15-9,1.33-12.41C20.2,85,34.63,84.81,36.75,74.27c1.78-8.89-1.53-18.06-1.97-26.9Z" fill="#fff"/>
            <path id="Trazado_833391" data-name="Trazado 833391" d="M111.64,19.61C115.42,4.27,80.67-8.27,79.62,6.8c-.56,8.04,11.27,17.87,18.43,19.21,6.59,1.23,11.92.37,13.59-6.39Z" fill="#fff"/>
          </g>
          <g id="Grupo_1081001" data-name="Grupo 1081001">
            <g id="Grupo_1080978" data-name="Grupo 1080978">
              <path id="Trazado_833392" data-name="Trazado 833392" d="M85.48,176.93c-2.7-6.25-3.87-12.96-7.55-18.71a21.434,21.434,0,0,0-4.98-5.82c-2.64-2.04-5.57-1.71-8.48-2.93-5.34-2.24-8.33-8.36-13.42-11.39a23.829,23.829,0,0,0-16.92-2.77c-5.34,1.1-9.01,1.73-14.16-.49-3.94-1.7-12.15-4.5-9.37,2.98,1.64,4.41,7.1,6.54,9.76,10.61,2.86,4.36,3.57,10.75,7.43,14.45,3.66,3.5,8.62-.37,12.56,2.88,4.08,3.37,5.32,7.99,10.39,10.76,5.47,2.99,11.95,3.92,18.07,4.27,4.35.25,12.73.7,17.67-1.22-.31-.88-.63-1.75-1.01-2.62Z" fill="#3b8b58"/>
              <path id="Trazado_833393" data-name="Trazado 833393" d="M39.52,150.96c13.17,13.98,28.87,23.56,46.28,26.76-.11-.26-.21-.53-.32-.79-2.7-6.25-3.87-12.96-7.55-18.71a21.434,21.434,0,0,0-4.98-5.82c-2.64-2.04-5.57-1.71-8.48-2.93-5.34-2.24-8.33-8.36-13.42-11.39a23.829,23.829,0,0,0-16.92-2.77,46.335,46.335,0,0,1-5.95.95,119.787,119.787,0,0,0,11.34,14.69Z" fill="#307147"/>
              <path id="Trazado_833394" data-name="Trazado 833394" d="M221.47,63.32c-4.25-.86,4.29-8.03,5.52-9.22,3.14-3.06,9.12-8.31,8.4-13.34-.72-4.97-6.03-1.33-8.99-2.11.57-3.49,5.43-6.87,7.58-9.48,1.65-2,3.29-4.15,3.83-6.78,1.14-5.52-2.47-6.56-6.63-4.09-.61-.88-.41-2.17-.3-3.27.28-2.88,2.6-12.76-2.29-13.55-2.58-.42-4.75,4.93-5.56,6.68-.91,1.95-2.09,7.14-3.88,8.34-1.94,1.31-1.97-2.01-4.09-1.77-2.29.26-2.84,4.99-3.14,6.78a35.709,35.709,0,0,0,.2,9.63c.19,1.79.96,4.18-.1,5.8-1.19-.92-2.39-2.42-3.7-3.24-3.19-2-3.85,1.49-4.5,4.22-1.09,4.61-.35,9.62-.33,14.34,0,1.71.71,6.04-.48,7.19-2.78-2.11-7.19-6.46-8.62-.4a30.941,30.941,0,0,0,.22,12.64,163.557,163.557,0,0,0,5.1,18c.4-.28.79-.56,1.18-.84,3.37-2.44,7.03-4.27,10.49-6.61,4.77-3.23,10.08-7.53,13.02-12.52.74-1.26,2.81-5.27,1.95-6.66-1.16-1.89-3.58.5-4.87.24Z" fill="#3b8b58"/>
              <path id="Trazado_833395" data-name="Trazado 833395" d="M226.34,63.08c-1.16-1.89-3.58.5-4.87.24a2.366,2.366,0,0,1-.47-.15c-7.16,5.78-13.86,12.15-19.14,19.67q-1.575,2.235-2.97,4.53c.27.8.54,1.59.81,2.33.4-.28.79-.56,1.18-.84,3.37-2.44,7.03-4.27,10.49-6.61,4.77-3.23,10.08-7.53,13.02-12.52.74-1.26,2.81-5.27,1.95-6.66Z" fill="#307147"/>
              <path id="Trazado_833396" data-name="Trazado 833396" d="M75.79,113.54c1.94-6.99,4.4-14.24,5.56-21.34.94-5.79-1.35-11.98-4.22-16.88-2.36-4.03-7.33-6.76-9.57-10.84-2.86-5.23-1.24-12.4-2.98-18.1-1.89-6.21-5.61-10.33-10.57-14.27-4.36-3.46-7.59-4.71-10.26-9.76-2.42-4.57-5.02-10.13-10.19-12.21C21.54,5.31,30.44,30.19,30.9,34.78c.53,5.26-1.59,8.53-3.93,12.93-3.44,6.47-3.49,12.69,1.55,18.61,4.4,5.17,8.85,6.62,7.76,14.2-.79,5.47-1.64,11.52.02,17.02,1.93,6.38,5.54,12.35,11.22,15.64a74.549,74.549,0,0,0,7.86,3.89c2.18.94,10.72,2.35,17.61,3.37a34.89,34.89,0,0,0,2.81-6.9Z" fill="#59a960"/>
              <path id="Trazado_833397" data-name="Trazado 833397" d="M55.38,117.06c2.18.94,10.72,2.35,17.61,3.37a37.791,37.791,0,0,0,2.28-5.2A73.617,73.617,0,0,0,55.44,91.88,95.95,95.95,0,0,0,36.36,79.93c-.02.19-.04.38-.07.58-.79,5.47-1.64,11.52.02,17.02,1.93,6.38,5.54,12.35,11.22,15.64a74.549,74.549,0,0,0,7.86,3.89Z" fill="#3b8b58"/>
              <path id="Trazado_833398" data-name="Trazado 833398" d="M242.31,92.26a113.385,113.385,0,0,0,4.23-38.82,74.166,74.166,0,0,1,.54-15.55c-1.72,1.73-3.68,3.34-4.7,4.44-3.53,3.8-7.33,7.42-10.8,11.34-9.44,10.69-18.87,22.13-24.28,35.5-3.55,8.78-5.56,17.75-5.1,27.09a57.9,57.9,0,0,0,2.17,12.81c.39,1.38.85,3.3,1.45,5.26,18.29-8.12,30.95-22.89,36.5-42.08Z" fill="#59a960"/>
              <path id="Trazado_833399" data-name="Trazado 833399" d="M208.99,85.34c-.6,1.27-1.17,2.54-1.7,3.84-3.55,8.78-5.56,17.75-5.1,27.09a57.9,57.9,0,0,0,2.17,12.81c.39,1.38.85,3.3,1.45,5.26a66.852,66.852,0,0,0,15.1-9.21,81.49,81.49,0,0,0-11.92-39.8Z" fill="#3b8b58"/>
              <path id="Trazado_833400" data-name="Trazado 833400" d="M240.19,98.51c-11.57,2.67-21.62,7.98-31.03,14.97a76.838,76.838,0,0,0-6.74,5.62,59.072,59.072,0,0,0,1.95,9.98c.39,1.38.85,3.3,1.45,5.26a64.03,64.03,0,0,0,34.37-35.83Z" fill="#3b8b58"/>
              <path id="Trazado_833401" data-name="Trazado 833401" d="M51.13,97.07C40.89,88.99,29.93,82.9,17.21,80.05c-3.7-.83-10.91-.67-17.22-1.74,12.69,13.64,18.63,35.25,29.16,50.08,13.41,18.88,31.33,31.95,52.84,35.54-2.33-26.21-8.01-48.83-30.86-66.86Z" fill="#73c078"/>
              <path id="Trazado_833402" data-name="Trazado 833402" d="M209.15,119.16c9.76-7.25,20.21-12.71,32.33-15.27,3.53-.75,10.4-.6,16.41-1.56-12.1,12.24-17.76,31.63-27.79,44.93-12.78,16.94-29.86,28.66-50.36,31.89,2.22-23.51,7.63-43.8,29.42-59.98Z" fill="#73c078"/>
              <path id="Trazado_833403" data-name="Trazado 833403" d="M179.74,179.14a72.609,72.609,0,0,0,32.17-13.65A81.584,81.584,0,0,0,220.97,128a82.813,82.813,0,0,0-1.49-15.62,101.686,101.686,0,0,0-10.32,6.77c-21.78,16.18-27.2,36.47-29.42,59.98Z" fill="#59a960"/>
              <path id="Trazado_833404" data-name="Trazado 833404" d="M94.73,166.65c-5.07-2.43-10.35-6.69-13.89-9.68-12.6-10.67-22.69-23.94-32.44-36.78q-1.8-2.385-3.62-4.75A129.979,129.979,0,0,0,30.66,99.4c-.48-.45-.98-.93-1.49-1.42-4.05-3.86-9.08-8.67-13.84-10.74l.23-.54c4.85,2.11,9.93,6.96,14.01,10.86.52.49,1.01.97,1.49,1.42a130.377,130.377,0,0,1,14.19,16.11c1.21,1.58,2.41,3.17,3.62,4.75,9.74,12.81,19.8,26.06,32.36,36.68,3.51,2.97,8.75,7.2,13.76,9.6l-.25.53Z" fill="#59a960"/>
              <path id="Trazado_833405" data-name="Trazado 833405" d="M71.74,114.98a49.035,49.035,0,0,0-3.86-14.65A64.4,64.4,0,0,0,55.74,81.71c-4.26-4.48-7.79-8.75-7.8-15.62,0-1.52.03-3.05.07-4.53.11-4.72.22-9.18-.78-13.74C45.49,39.83,41.4,33.31,37.07,26.4l.23-.19.25-.15-.25.15.27-.12c4.36,6.95,8.47,13.52,10.23,21.61,1.01,4.64.9,9.34.79,13.88-.04,1.48-.07,3-.07,4.52,0,6.65,3.46,10.83,7.64,15.22a64.881,64.881,0,0,1,12.25,18.79,49.708,49.708,0,0,1,3.91,14.82l-.58.07Z" fill="#3b8b58"/>
              <path id="Trazado_833406" data-name="Trazado 833406" d="M196.73,107.93l-.57-.12c.51-2.46.78-4.91,1.05-7.29A53.988,53.988,0,0,1,199,90.42c.55-1.79,1.07-3.42,1.69-5.16.72-2,1.4-4.08,2.06-6.09,1.01-3.09,2.06-6.29,3.32-9.42,1.15-2.84,2.58-5.72,3.96-8.52,1.46-2.96,2.98-6.02,4.16-9.02,1.08-2.74,1.9-5.61,2.7-8.39a71.188,71.188,0,0,1,3.83-11.01,55.149,55.149,0,0,0,3.76-12.25c.39-1.74.79-3.55,1.27-5.37l.56.15c-.48,1.81-.88,3.6-1.27,5.34a55.508,55.508,0,0,1-3.8,12.37,70.306,70.306,0,0,0-3.79,10.92c-.8,2.79-1.63,5.67-2.72,8.44-1.19,3.02-2.71,6.09-4.18,9.06-1.38,2.78-2.8,5.66-3.94,8.48-1.26,3.11-2.3,6.3-3.31,9.38-.66,2.02-1.34,4.1-2.07,6.11-.62,1.73-1.13,3.34-1.68,5.13a53.479,53.479,0,0,0-1.77,9.99c-.27,2.39-.54,4.85-1.06,7.34Z" fill="#307147"/>
              <path id="Trazado_833407" data-name="Trazado 833407" d="M197.17,141.99l-.37-.45c1.77-1.47,2.81-3.62,3.82-5.7a23.536,23.536,0,0,1,2.46-4.31c.52-.67,1.02-1.27,1.51-1.84a21.771,21.771,0,0,0,3.05-4.31,55.659,55.659,0,0,0,4.15-11.8c.33-1.28.64-2.58.96-3.88a90.8,90.8,0,0,1,4.5-14.82l.82-1.88c2.74-6.31,5.58-12.83,9.82-18.23a76.809,76.809,0,0,0,9.69-15.99l.53.25a77.282,77.282,0,0,1-9.76,16.1c-4.19,5.34-7.01,11.83-9.74,18.1l-.82,1.88a92.08,92.08,0,0,0-4.47,14.73c-.32,1.31-.64,2.61-.96,3.89a56.491,56.491,0,0,1-4.2,11.92,21.985,21.985,0,0,1-3.12,4.42c-.48.57-.98,1.16-1.49,1.82a23.142,23.142,0,0,0-2.39,4.21,16.579,16.579,0,0,1-3.97,5.89Z" fill="#3b8b58"/>
              <path id="Trazado_833408" data-name="Trazado 833408" d="M170.68,191.03l-.3-.5a6.48,6.48,0,0,0,2.2-2.45,14.547,14.547,0,0,1,.93-1.38c3.07-3.98,6.03-8.05,8.9-11.99,4.32-5.93,8.79-12.06,13.66-17.96a59.5,59.5,0,0,1,8.99-8.29,57.926,57.926,0,0,0,8.81-8.13l1.37-1.67c5.85-7.15,11.37-13.9,17.71-20.44l.42.41c-6.32,6.53-11.83,13.27-17.67,20.4l-1.37,1.67a58.1,58.1,0,0,1-8.9,8.22,58.956,58.956,0,0,0-8.91,8.21c-4.86,5.88-9.32,12.01-13.64,17.93-2.87,3.94-5.84,8.01-8.91,12a13.4,13.4,0,0,0-.89,1.33,7.056,7.056,0,0,1-2.39,2.64Z" fill="#59a960"/>
              <path id="Trazado_833409" data-name="Trazado 833409" d="M101.47,185.54c-.84-.8-1.64-1.57-2.41-2.32-6.28-6.09-10.81-10.49-20.12-12.28-1.1-.21-2.28-.39-3.42-.56a40.453,40.453,0,0,1-7.41-1.59c-3.06-1.09-5.34-3.28-7.54-5.4-2.06-1.98-4.01-3.85-6.56-4.94a38.331,38.331,0,0,0-5.22-1.7c-3.49-.94-6.51-1.75-9.87-5.55-.65-.74-1.34-1.65-2.07-2.61-3.07-4.06-6.9-9.11-12.09-6.96l-.22-.54c5.6-2.32,9.58,2.93,12.77,7.15.72.96,1.41,1.86,2.05,2.58,3.25,3.67,6.19,4.46,9.59,5.37a37.584,37.584,0,0,1,5.3,1.72c2.65,1.12,4.73,3.12,6.74,5.05,2.16,2.07,4.39,4.22,7.34,5.27a38.913,38.913,0,0,0,7.3,1.56c1.14.17,2.32.35,3.44.56,9.48,1.82,14.06,6.27,20.41,12.43.77.75,1.57,1.52,2.4,2.32l-.4.42Z" fill="#307147"/>
            </g>
            <g id="Grupo_1080982" data-name="Grupo 1080982">
              <g id="Grupo_1080981" data-name="Grupo 1080981">
                <g id="Grupo_1080980" data-name="Grupo 1080980">
                  <circle id="Elipse_6004" data-name="Elipse 6004" cx="81.98" cy="81.98" r="81.98" transform="matrix(0.127, -0.992, 0.992, 0.127, 40.022, 185.016)" fill="#4d7abb"/>
                  <g id="Grupo_1080979" data-name="Grupo 1080979">
                    <path id="Trazado_833410" data-name="Trazado 833410" d="M128.13,44.16c-.65,1.36-2.56.89-3.1,1.98-.88,1.79.09,3.45.41,5.15.72,3.83,1.81,5.36-2.08,7.64-3.69,2.16-4.76.65-4.59,5.83.06,1.8,1.72,1.88.66,3.83-.33.61-2.93.89-3.64,1.89-2.08,2.96,1.13,6.84.32,10.09-.96,3.84-3.73,3.23-6.26,5.2-4.87,3.8-3.41,13.18-9.13,15.95-2.26,1.1-7.77-.15-9.35-1.94-2.42-2.73-.67-5.92.53-8.6,1.59-3.55,1.95-4.29.09-7.74-.68-1.25-1.73-1.64-2.23-3.3-.53-1.77.48-3.78-.31-5.53-.63-1.39-2.44-1.49-2.98-2.63-.8-1.65-.19-3.45-.94-5.01-.36-.74-1.54-2.9-2.53-3.09-2.85-.53-1.14,1.62-2.14,3.09-4.15,6.14-8.43-.64-14.45,1.59a30.414,30.414,0,0,0-4.35,2.3,81.968,81.968,0,0,1,58.85-38.04c3.13,3.51,9.97,5.5,7.2,11.33Z" fill="#79c0c4"/>
                    <path id="Trazado_833411" data-name="Trazado 833411" d="M148.51,133.66c-3.45-9.06-8.75-1.46-14.35-6-1.6-1.29-1.38-3.77-3.7-4.52-2.49-.81-5.79,1.36-8.71,1.08-7.4-.72-10.67,2.85-12.74,10.39-1.06,3.86-1.57,5.62,1.61,8.29,1.25,1.05,3.26,1.34,4.35,2.54,1.3,1.42,1,3.43,2.02,4.8,1.64,2.2,4.92,2.53,6.9,4.97.88,1.09.82,2.89,1.9,4.04,1.16,1.23,3.08,1.06,4.47,2.43,3.61,3.56,4.22,8.65,4.04,13.18-.24,6.14,3.74,8.12,9.79,7.57,1.36-4.77,3.43-2.46,6.89-4.17,2.89-1.43,4.47-5.58,5.07-8.5.75-3.62.28-4.1,2.97-7.31,2.11-2.53,4.02-5.02,4.25-8.4.35-5.25-1.73-4.51-4.67-6.78-2.04-1.57-3.6-3.95-5.52-5.54-1.63-1.35-2.01-.94-3.07-2.97-.75-1.44-.89-3.5-1.5-5.11Z" fill="#79c0c4"/>
                    <path id="Trazado_833412" data-name="Trazado 833412" d="M213.71,114.11a81.813,81.813,0,0,1-7.12,33.48c-1.11-.01-2.11-.03-2.83,0a9.966,9.966,0,0,1-8.95-4.22c-1.03-1.61-.23-3.52-2.12-5.04-1.26-1-3.17-.46-4.64-.93-5.09-1.67-2.65-3.45-3.4-7.22-.64-3.19-4.92-4.99-8.07-3.92-2.88.99-3.52,4.97-6.8,4.79-3.81-.2-4.31-4.65-5.09-7.24-1.35-4.48-.91-5.07-5.2-3.51a36.91,36.91,0,0,0-3.71,1.8c-1.09,1.34.05,3.37-.85,4.69-2.01,2.93-5.41-1.27-6.28-3.86-.54-1.59,0-3.47-.51-5.08-.44-1.41-2.05-1.96-2.47-3.39-1.57-5.39,2.54-4.29,4.9-6.89,4.02-4.42-1.58-4.31-4.58-2.56-1.62.95-1.96,2.2-3.82,2.66-1.58.39-3.39-.62-5.11-.43-1.69.18-2.31,1.35-4.24,1.28-2.51-.08-1.87-1.09-3.7-1.8-4.04-1.57-5.86.71-9.82.04-.85-3.46,2.98-5.96,5.55-7.05,1.71-.73,3.39-.62,4.9-1.49,1.6-.92,1.81-2.5,3.93-3.19,3.43-1.13,7.03-1.34,10.19-3.07,2.49-1.36,4.76-5.4-.35-6.02.92-5.98-6.37-1.5-8.55-1.6-6.6-.32-1.39-5.06,1.66-6.92,1.7-1.04,3.56-1.91,5.21-2.77a27.176,27.176,0,0,0,4.47-3.17c5.81-4.34,3.48,1.66,8.54,1.86-.71,6.27,3.39,4.29,6.45,1.64.76-.67,1.2-2.47,2.19-2.89,1.05-.44,1.72.77,2.12.68a41.817,41.817,0,0,1,5.38-.83c-.27-2.04-1.91-5.63-.71-7.51.51-.81,2.89-.51,3.73-1.34,1.58-1.55,1.31-1.9,1.7-3.83.7-3.4-.55-4.18,2.11-6.69a23.059,23.059,0,0,1,4.39-3.02,81.808,81.808,0,0,1,31.49,64.58Z" fill="#79c0c4"/>
                    <path id="Trazado_833413" data-name="Trazado 833413" d="M101.37,164.16c.44,6.76-3.45,3.07-7.68,4.84a17.2,17.2,0,0,1-.57,5.37c-4.56,2.25-4.05,6.01-3.58,10.02A82.094,82.094,0,0,1,74.3,172.58c-.08-.8-.16-1.6-.26-2.4-.09-.67,1.17-.86.82-2.02-.12-.38-1.45-1.01-1.74-1.7-.78-1.85-1.47-2.1-1.61-4.34-.2-3.41,2.6-6.22,3.01-9.34.21-1.66-.97-2.94-.87-4.67.09-1.5.99-2.61,1.21-4.17-2.68-.97-4.78-1.53-6.65-3.41-2.08,1.93-6.85-.92-9.03-1.34-3.3-.62-6.06-1.03-6.84-5.45a1.344,1.344,0,0,0-.24-.12h0a82.576,82.576,0,0,1-2.33-19.51,81.677,81.677,0,0,1,3.87-24.96c3.53.44,2.44-.1,4.27-2.22,1.27-1.47,8.32-10.49,9.44-3.45,2.85-.13,8.45.32,7.16,4.74-.79,2.7-5.9,2.45-7.77,5.53-2.12,3.5-.34,4.73,2.24,7.21,3.82,3.68,3.79,3.74,5.43-.75.68-1.87-1.28-2.18,1.37-3.07,1.78-.6,2.96.27,4.14,1.36,1.63,1.51.96,3.09,3.1,4.48,1.4.92,3.1.49,4.65.94,2.57.75,8.7,4.41,6.28,8.01-2.01,2.99-7.66-1.34-9.29.48l-.33.09c.24,3.51,4.94,3.68,4.54,7.1-2.99.15-7.67-.97-9.61,1.33-1.63,1.94-.12,8.51-1.45,9.69-2.14,1.89-6.56-.63-8.52-1.51-1.42-.64-2.35-1.86-4.14-1.81a29.106,29.106,0,0,0-3.95,2.01c-1.15,2.87,3.2,6.26,5.74,6.81,2.82.62,4.88-1.95,8.31-.23,3.17,1.59,2.68,4.3,6.89,5.01,2.44.41,7.88-.71,9.77.93,1.92,1.66.61,3.62,2.02,5.55,1.1,1.51,3.33,1.55,4.8,1.99,3.61,1.06,7.01,1.95,7.12,6.75-6.24,1.03-4.8,3.02-4.48,8.05Z" fill="#79c0c4"/>
                  </g>
                  <path id="Trazado_833414" data-name="Trazado 833414" d="M190.95,57.42A81.984,81.984,0,0,1,55.3,143.78,81.988,81.988,0,1,0,190.95,57.41Z" fill="#0bf" opacity="0.5"/>
                </g>
                <path id="Trazado_833415" data-name="Trazado 833415" d="M229.41,84.53c-3.21-17.44-15.63-9.61-15.63-9.61-17.43-16.43-20.44,4.81-20.44,4.81-8.01-3.01-10.22,4.81-10.22,4.81-11.06-2.68-14.48,3.1-15.4,8.41h73.93c-2.06-12.71-12.25-8.43-12.25-8.43Z" fill="#fff"/>
                <path id="Trazado_833416" data-name="Trazado 833416" d="M67.34,97.04C65.33,86.08,57.52,91,57.52,91c-10.96-10.33-12.85,3.02-12.85,3.02a4.609,4.609,0,0,0-6.42,3.02c-6.95-1.68-9.1,1.95-9.68,5.29H75.04c-1.3-7.99-7.7-5.3-7.7-5.3Z" fill="#fff"/>
                <path id="Trazado_833417" data-name="Trazado 833417" d="M94.54,50.2c-2.56-13.96-12.51-7.69-12.51-7.69-13.95-13.15-16.35,3.85-16.35,3.85-6.41-2.4-8.18,3.85-8.18,3.85-8.85-2.14-11.58,2.48-12.32,6.73h59.16c-1.65-10.17-9.8-6.74-9.8-6.74Z" fill="#fff"/>
              </g>
              <path id="Trazado_833418" data-name="Trazado 833418" d="M101.79,90.1c-11.24,14.42-26.2,21.55-33.4,15.93S64.46,84.17,75.7,69.75s26.2-21.55,33.41-15.93,3.93,21.86-7.31,36.28Z" fill="#fff" opacity="0.3"/>
            </g>
            <g id="Grupo_1081000" data-name="Grupo 1081000">
              <g id="Grupo_1080987" data-name="Grupo 1080987">
                <path id="Trazado_833419" data-name="Trazado 833419" d="M262.57,203.64c0,2.35-9.66,4.26-21.58,4.26s-21.58-1.91-21.58-4.26,9.66-4.26,21.58-4.26S262.57,201.29,262.57,203.64Z" fill="#cad3ea"/>
                <g id="Grupo_1080986" data-name="Grupo 1080986">
                  <g id="Grupo_1080983" data-name="Grupo 1080983">
                    <path id="Trazado_833420" data-name="Trazado 833420" d="M226.2,183.06l4.88-11.04-6.32-5.1-5.2,14.26s-1.26,2.72,3.7,6.22l9.79,9.52,3.04-1.46s-6.61-9.2-9.89-12.41Z" fill="#0a3c5f"/>
                    <path id="Trazado_833421" data-name="Trazado 833421" d="M233.04,196.93l.81.99-7.36,4.21-.21.91,12.92-1.82-1.85-4.29-1.27-1.46Z" fill="#fdb18d"/>
                    <path id="Trazado_833422" data-name="Trazado 833422" d="M233.33,197.28l.52.64,3.5-.99-.84-.97Z" fill="#fff"/>
                    <path id="Trazado_833423" data-name="Trazado 833423" d="M226.49,202.13l-.21.91,12.92-1.82-1.85-4.29-3.5.99Z" fill="#0d134f"/>
                    <path id="Trazado_833424" data-name="Trazado 833424" d="M239.2,201.22l-.46-1.06-12.25,1.97-.21.91Z" fill="#62c1c5"/>
                  </g>
                  <path id="Trazado_833425" data-name="Trazado 833425" d="M224.6,167.83l3.76,10.34,2.72-6.15-6.14-4.95Z" fill="#0d134f"/>
                  <path id="Trazado_833426" data-name="Trazado 833426" d="M194.27,133.08a5.746,5.746,0,0,1,0-2.76s-.53-4.25.6-2.83v-.89s-.92-1.56-.37-2.41l.37.39a1.744,1.744,0,0,1,0-1.2,7.556,7.556,0,0,1,.67,1.35l.25,1.63.11,1.88a29.258,29.258,0,0,0,.5,3.97s6.48,3.68,8.36,4.14l.35,3.12-10.84-6.37Z" fill="#f09474"/>
                  <path id="Trazado_833427" data-name="Trazado 833427" d="M205.11,139.45l-.35-3.12c-1.88-.46-8.36-4.14-8.36-4.14l-.97,1.56,9.68,5.7Z" fill="#fff"/>
                  <path id="Trazado_833428" data-name="Trazado 833428" d="M196.29,134.26l9.05,5.33-.18-3.09c-1.5-.37-6.35-2.96-8.06-3.92l-.8,1.68Z" fill="#f8a510"/>
                  <g id="Grupo_1080985" data-name="Grupo 1080985">
                    <path id="Trazado_833429" data-name="Trazado 833429" d="M211.44,142.24a8.151,8.151,0,0,1,3.7,1.1l1.76-1.98-2.35-2.42-2.92.86-.19,2.45Z" fill="#f09474"/>
                    <path id="Trazado_833430" data-name="Trazado 833430" d="M215.91,140.33l-.58-.74-2.48,2.6.51.83,2.36-1.39Z" fill="#fff"/>
                    <g id="Grupo_1080984" data-name="Grupo 1080984">
                      <path id="Trazado_833431" data-name="Trazado 833431" d="M215.16,137.2s-1.08-7.44-7.18-5.19c0,0-5.85,1.62-1.5,10.52l1.07-.53s1.45,2.34,2.68,1.67l4.59-4.45.33-2.02Z" fill="#fdb18d"/>
                      <path id="Trazado_833432" data-name="Trazado 833432" d="M213.18,135.76l-3.15-2.57-4.78,1.47c-.53,1.35-.61,3.35.53,6.26l7.4-5.16Z" fill="#f09474"/>
                      <path id="Trazado_833433" data-name="Trazado 833433" d="M215.16,137.2s-1.08-7.44-7.18-5.19c0,0-3.99,1.11-2.93,6.5,0,0,.67.43,2.73-.43a3.282,3.282,0,0,1,2.03,1.82l.74-.44s-.94-2.27.01-3l1.23.26s.81,1.92,2.23,1.98l.93-.24.21-1.25Z" fill="#0a3c5f"/>
                      <path id="Trazado_833434" data-name="Trazado 833434" d="M209.82,139.9l.74-.44s-.94-2.27.01-3l1.23.26s.81,1.92,2.23,1.98l.93-.24.21-1.25s-.53-3.63-2.92-5.05a10.061,10.061,0,0,1-7.32,5.44,8.241,8.241,0,0,0,.14.92s.67.43,2.73-.43a3.282,3.282,0,0,1,2.03,1.82Z" fill="#0d134f"/>
                      <path id="Trazado_833435" data-name="Trazado 833435" d="M211.91,136.95c.34.84.2,1.7-.33,1.91s-1.23-.29-1.57-1.13-.2-1.7.33-1.91S211.57,136.11,211.91,136.95Z" fill="#fdb18d"/>
                    </g>
                  </g>
                  <path id="Trazado_833436" data-name="Trazado 833436" d="M210.79,146.47l26.36,40.75,14.58,11.19,3.21-1.95L242.88,184.4l-10.02-23.44-13.37-18.57-3.58-2.06Z" fill="#0a3c5f"/>
                  <path id="Trazado_833437" data-name="Trazado 833437" d="M215.91,140.33l-5.13,6.13,13.82,21.36h0a14.686,14.686,0,0,0,8.26-6.87l-13.37-18.57-3.58-2.06Z" fill="#fdd247"/>
                  <path id="Trazado_833438" data-name="Trazado 833438" d="M215.33,147.55a4.676,4.676,0,0,0-2.6-3.41l-1.95,2.33,1.13,1.75a8.888,8.888,0,0,0,3.41-.67Z" fill="#f8a510"/>
                  <path id="Trazado_833439" data-name="Trazado 833439" d="M192.36,131.74s10.41,4.1,11.25,6.41c0,0,6.83,2.94,10.62,2.94,0,0,4.1.42,2.73,5.26,0,0-1.05,3.15-7.36-.53l-8.62-4.63s-8.41-6.1-10.41-8.62c0,0-1.47-1.34-.62-5.06,0,0,0-3.72.64-3.26,0,0-.28-1.75.46-1.75a18.377,18.377,0,0,1,.96,2.14l.07,1.38a7.672,7.672,0,0,1,.46,2.02,21.927,21.927,0,0,1-.17,3.69Z" fill="#fdb18d"/>
                  <path id="Trazado_833440" data-name="Trazado 833440" d="M216.97,146.35c1.37-4.84-2.73-5.26-2.73-5.26-3.79,0-10.62-2.94-10.62-2.94-.84-2.31-11.25-6.41-11.25-6.41l-1.16,1.54c2.72,2.8,9.78,7.92,9.78,7.92l8.62,4.63c6.31,3.68,7.36.53,7.36.53Z" fill="#fff"/>
                  <path id="Trazado_833441" data-name="Trazado 833441" d="M191.89,133.95c3.06,2.87,9.09,7.25,9.09,7.25l8.62,4.63c6.31,3.68,7.36.53,7.36.53,1.37-4.84-2.73-5.26-2.73-5.26-3.79,0-10.62-2.94-10.62-2.94-.71-1.97-8.34-5.22-10.61-6.15l-1.11,1.96Z" fill="#fdd247"/>
                  <path id="Trazado_833442" data-name="Trazado 833442" d="M251.73,198.41l.87.84-7.25,3.9-.13.84,12.49-.84.64-3.28-3.41-3.41Z" fill="#fdb18d"/>
                  <path id="Trazado_833443" data-name="Trazado 833443" d="M252.08,198.74l.52.51,4.29-.84-1.59-1.59Z" fill="#fff"/>
                  <path id="Trazado_833444" data-name="Trazado 833444" d="M256.89,198.41l-4.29.84-7.25,3.9-.13.84,12.49-.84.64-3.28Z" fill="#0d134f"/>
                  <path id="Trazado_833445" data-name="Trazado 833445" d="M257.71,203.15l.21-1.06h0l-12.57,1.06-.13.84Z" fill="#62c1c5"/>
                </g>
              </g>
              <g id="Grupo_1080989" data-name="Grupo 1080989">
                <path id="Trazado_833446" data-name="Trazado 833446" d="M146.85,224.35c0,2.35-15.06,4.26-33.64,4.26s-33.64-1.91-33.64-4.26,15.06-4.26,33.64-4.26S146.85,222,146.85,224.35Z" fill="#cad3ea"/>
                <g id="Grupo_1080988" data-name="Grupo 1080988">
                  <rect id="Rectángulo_379529" data-name="Rectángulo 379529" width="32.37" height="1.72" transform="translate(95.36 202.78)" fill="#f8a510"/>
                  <path id="Trazado_833447" data-name="Trazado 833447" d="M127.19,202.78h-2.57l.8,1.71h2.32v-.53Z" fill="#0d134f"/>
                  <rect id="Rectángulo_379530" data-name="Rectángulo 379530" width="15.94" height="1.72" transform="translate(97.49 171.47)" fill="#0d134f"/>
                  <path id="Trazado_833448" data-name="Trazado 833448" d="M108.03,158.89l-.81,3.14L91.06,224.34H88.64l17.03-65.63.11-.4a1.172,1.172,0,0,1,1.42-.84,1.206,1.206,0,0,1,.73.57,1.084,1.084,0,0,1,.08.19,1.171,1.171,0,0,1,.02.67Z" fill="#fdd247"/>
                  <path id="Trazado_833449" data-name="Trazado 833449" d="M106.81,158.22a1.538,1.538,0,0,0-.08-.19l-.24-.52a1.182,1.182,0,0,0-.72.8l-.11.4-.43,1.64.79,1.68.77,1.64.43-1.64.49-1.89-.89-1.92Z" fill="#f8a510"/>
                  <rect id="Rectángulo_379531" data-name="Rectángulo 379531" width="10.34" height="1.15" transform="translate(111.11 176.55)" fill="#0d134f"/>
                  <rect id="Rectángulo_379532" data-name="Rectángulo 379532" width="10.34" height="1.15" transform="translate(114.51 184.03)" fill="#0d134f"/>
                  <rect id="Rectángulo_379533" data-name="Rectángulo 379533" width="10.34" height="1.15" transform="translate(117.91 191.51)" fill="#0d134f"/>
                  <rect id="Rectángulo_379534" data-name="Rectángulo 379534" width="10.34" height="1.15" transform="translate(121.31 198.98)" fill="#0d134f"/>
                  <rect id="Rectángulo_379535" data-name="Rectángulo 379535" width="10.34" height="1.15" transform="translate(124.71 206.46)" fill="#0d134f"/>
                  <rect id="Rectángulo_379536" data-name="Rectángulo 379536" width="10.34" height="1.15" transform="translate(128.11 213.94)" fill="#0d134f"/>
                  <path id="Trazado_833450" data-name="Trazado 833450" d="M123.17,116.74c.1-.63-.47-2.36-1.38-2.02-.26.1-.31.34-.31.6a2.5,2.5,0,0,0,.7,1.64c.39.34.9.34.98-.22Z" fill="#f09474"/>
                  <path id="Trazado_833451" data-name="Trazado 833451" d="M128.98,116.74c-.1-.63.47-2.36,1.38-2.02.26.1.31.34.31.6a2.5,2.5,0,0,1-.7,1.64c-.39.34-.9.34-.98-.22Z" fill="#f09474"/>
                  <path id="Trazado_833452" data-name="Trazado 833452" d="M130.67,113.08a4.575,4.575,0,1,0-8.47,2.39h0a11.8,11.8,0,0,1,1.4,4.55h4.62a34.693,34.693,0,0,1,1.78-4.55h0a4.532,4.532,0,0,0,.68-2.39Z" fill="#fdb18d"/>
                  <path id="Trazado_833453" data-name="Trazado 833453" d="M146.85,122.3s.38-1.77.56-2.28a5.518,5.518,0,0,1,1.77-1.72l.46,1.65s-1.5,2.5-2.8,2.35Z" fill="#fdb18d"/>
                  <path id="Trazado_833454" data-name="Trazado 833454" d="M149.47,124.52h-.58v-10.8l10.12-6.07v-2.81h-9.83v-.58H159.6v3.72l-10.13,6.07Z" fill="#fdd247"/>
                  <path id="Trazado_833455" data-name="Trazado 833455" d="M149.18,124.53a.873.873,0,0,1-.87-.88v-6.83a.875.875,0,1,1,1.75,0v6.83A.881.881,0,0,1,149.18,124.53Z" fill="#f8a510"/>
                  <path id="Trazado_833456" data-name="Trazado 833456" d="M111.78,131.86a6.833,6.833,0,0,0,5.48,3.75S116.87,129.61,111.78,131.86Z" fill="#0a3c5f"/>
                  <path id="Trazado_833457" data-name="Trazado 833457" d="M132.89,144.33s-1.85,37.61-2.53,44.27h-3.79l-3.99-44.88S128.22,139.47,132.89,144.33Z" fill="#0a3c5f"/>
                  <path id="Trazado_833458" data-name="Trazado 833458" d="M123.19,150.64l.62,7.04a26.778,26.778,0,0,0,6.04-7.52l-6.66.48Z" fill="#0d134f"/>
                  <path id="Trazado_833459" data-name="Trazado 833459" d="M118.5,120.41l4.28-1.46s4.65-.78,6.81,0l5.84,2.82a43.648,43.648,0,0,0,1.26,8.07l-3.79,14.49-13.03-.78-2.14-15.07.78-8.07Z" fill="#fdd247"/>
                  <path id="Trazado_833460" data-name="Trazado 833460" d="M120.64,126.65l-2.86,1.15-.07.68,1.24,8.73c2.41-4.7,1.69-10.56,1.69-10.56Z" fill="#f8a510"/>
                  <path id="Trazado_833461" data-name="Trazado 833461" d="M132.89,144.33s1.2,8.47-16.99,11.32l3.27,17.99h-3.84l-7.92-21.47,12.36-6.08.09-2.54Z" fill="#0a3c5f"/>
                  <path id="Trazado_833462" data-name="Trazado 833462" d="M115.33,173.65l-6.57,1.86v1.04h10.63l-.23-2.9Z" fill="#0d134f"/>
                  <path id="Trazado_833463" data-name="Trazado 833463" d="M119.39,176.55l-.08-1.04H108.76v1.04Z" fill="#fff"/>
                  <path id="Trazado_833464" data-name="Trazado 833464" d="M126.57,188.6l-6.61,1.87v1.04h10.62l-.22-2.91Z" fill="#0d134f"/>
                  <path id="Trazado_833465" data-name="Trazado 833465" d="M130.58,191.51l-.08-1.04H119.96v1.04Z" fill="#fff"/>
                  <path id="Trazado_833466" data-name="Trazado 833466" d="M118.5,120.41s2.46,2.49.89,8.62l-4.24,9.43-8.37,12.36h-7.5a8.209,8.209,0,0,1,6.43-2.63s9.74-25.58,12.79-27.78Z" fill="#fdb18d"/>
                  <path id="Trazado_833467" data-name="Trazado 833467" d="M111.78,131.86a5.386,5.386,0,0,1,5.48,3.75s6.89-10.97,1.24-15.21c0,0-2.97.85-6.72,11.45Z" fill="#fdd247"/>
                  <path id="Trazado_833468" data-name="Trazado 833468" d="M139.82,124.24l3.4.56,3.63-2.5a11.1,11.1,0,0,1,3.21-4.25s1.69.95.7,4.33l-2.47,1.52-4.06,4.86s-5.17.19-5.13.3S139.82,124.24,139.82,124.24Z" fill="#fdb18d"/>
                  <path id="Trazado_833469" data-name="Trazado 833469" d="M135.42,121.77l5.35,2.33s1.55,3.72-.3,5.67l-3.79.07s-3.79-4.18-1.26-8.07Z" fill="#fdd247"/>
                  <path id="Trazado_833470" data-name="Trazado 833470" d="M135.03,136.17c-4.59,4.52-12.5,5.54-15.4,5.77l.23,1.62,13.03.78,2.14-8.16Z" fill="#f8a510"/>
                  <path id="Trazado_833471" data-name="Trazado 833471" d="M141.3,128.05a14.631,14.631,0,0,1-4.09-.72c-.22.79-.52,2.51-.52,2.51l3.79-.07a3.229,3.229,0,0,0,.83-1.72Z" fill="#f8a510"/>
                  <path id="Trazado_833472" data-name="Trazado 833472" d="M156.98,105.63a1.186,1.186,0,0,1-1.19,1.19H142.57a1.193,1.193,0,0,1-1.19-1.19v-2.17a1.734,1.734,0,0,1,.75-1.32h13.22c1.1.13,1.63.67,1.63,1.32Z" fill="#e9f9f9"/>
                  <path id="Trazado_833473" data-name="Trazado 833473" d="M155.79,105.2H142.57a1.186,1.186,0,0,1-1.19-1.19v1.63a1.186,1.186,0,0,0,1.19,1.19h13.22a1.193,1.193,0,0,0,1.19-1.19v-1.63A1.186,1.186,0,0,1,155.79,105.2Z" fill="#adcccc"/>
                  <path id="Trazado_833474" data-name="Trazado 833474" d="M129.99,115.46a4.563,4.563,0,0,0-3.89-6.96,4.584,4.584,0,0,0-4.58,4.57,4.532,4.532,0,0,0,.68,2.39h0s.13.22.32.61a10.315,10.315,0,0,1,1.36,1.58h4.36c.42-.37,1.44-1.53,1.44-1.53q.165-.36.33-.66h0Z" fill="#0a3c5f"/>
                  <path id="Trazado_833475" data-name="Trazado 833475" d="M129.67,110.23a15.855,15.855,0,0,1-.4,1.64,4.271,4.271,0,0,1-1.36,1.62,5.681,5.681,0,0,1-3.83.87,5.123,5.123,0,0,1-2.55-1.08,4.534,4.534,0,0,0,.66,2.19h0s.13.22.32.61a10.315,10.315,0,0,1,1.36,1.58h4.36c.42-.37,1.44-1.53,1.44-1.53q.165-.36.33-.66h0a4.552,4.552,0,0,0-.32-5.24Z" fill="#0d134f"/>
                  <path id="Trazado_833476" data-name="Trazado 833476" d="M138.83,224.35h-2.57l-29.04-62.31-1.55-3.32-1.69-3.62H98.09a1.17,1.17,0,1,1,0-2.34h6.63a1.152,1.152,0,0,1,1.06.68l2.15,4.6a1.084,1.084,0,0,1,.08.19l30.83,66.12Z" fill="#fdd247"/>
                  <path id="Trazado_833477" data-name="Trazado 833477" d="M97.25,150.82l-2.43,2.42v1.85h11.73l-1.99-4.27Z" fill="#0a3c5f"/>
                  <path id="Trazado_833478" data-name="Trazado 833478" d="M106.55,155.09l-.86-1.85H94.82v1.85Z" fill="#0d134f"/>
                  <path id="Trazado_833479" data-name="Trazado 833479" d="M106.55,155.09h-2.57l.86,1.85h2.57Z" fill="#f8a510"/>
                  <rect id="Rectángulo_379537" data-name="Rectángulo 379537" width="5.93" height="1.15" transform="translate(86.98 223.2)" fill="#0a3c5f"/>
                  <rect id="Rectángulo_379538" data-name="Rectángulo 379538" width="5.93" height="1.15" transform="translate(134.3 223.2)" fill="#0a3c5f"/>
                  <path id="Trazado_833480" data-name="Trazado 833480" d="M138.3,223.2l-1.32-2.81h-2.57l1.31,2.81Z" fill="#62c1c5"/>
                  <path id="Trazado_833481" data-name="Trazado 833481" d="M91.35,223.2l.73-2.81H89.66l-.73,2.81Z" fill="#62c1c5"/>
                </g>
              </g>
              <g id="Grupo_1080994" data-name="Grupo 1080994">
                <path id="Trazado_833482" data-name="Trazado 833482" d="M71.8,202.27c0,2.35-7.77,4.26-17.35,4.26s-17.35-1.91-17.35-4.26,7.77-4.26,17.35-4.26S71.8,199.92,71.8,202.27Z" fill="#cad3ea"/>
                <g id="Grupo_1080993" data-name="Grupo 1080993">
                  <rect id="Rectángulo_379539" data-name="Rectángulo 379539" width="5.53" height="3.61" transform="translate(74.76 144.55)" fill="#0d134f"/>
                  <path id="Trazado_833483" data-name="Trazado 833483" d="M75.45,155.63s.17-1.8.29-2.34a5.419,5.419,0,0,1,1.55-1.91l.66,1.59s-1.19,2.66-2.5,2.66Z" fill="#fdb18d"/>
                  <path id="Trazado_833484" data-name="Trazado 833484" d="M77.53,156.15a.683.683,0,0,1-.69-.68l-.02-5.34a.685.685,0,0,1,1.37-.01l.02,5.34A.683.683,0,0,1,77.53,156.15Z" fill="#f8a510"/>
                  <path id="Trazado_833485" data-name="Trazado 833485" d="M78.2,150.13a.685.685,0,0,0-1.37.01v.78H78.2v-.79Z" fill="#ba7c0c"/>
                  <path id="Trazado_833486" data-name="Trazado 833486" d="M78.2,150.94a11.617,11.617,0,0,0-2.75,4.68l-1,.88a1.688,1.688,0,0,1,1.63,2.05l.99-1.52,2.27-1.8c.58-3.47-1.15-4.29-1.15-4.29Z" fill="#fdb18d"/>
                  <path id="Trazado_833487" data-name="Trazado 833487" d="M74.65,156.15l.54-.68s1.08.15,2.04,1.87l-.81.76-1.77-1.95Z" fill="#fff"/>
                  <path id="Trazado_833488" data-name="Trazado 833488" d="M38.21,158.82a90.142,90.142,0,0,0,8.47,18.26l1.87,21.91,9.96-.29v-1.34l-7.35-1.62,1.24-20.39L44.65,160.1l-6.42-1.28Z" fill="#2466b4"/>
                  <path id="Trazado_833489" data-name="Trazado 833489" d="M58.51,197.35l-7.36-1.62H48.26l.28,3.25,9.97-.28Z" fill="#0d134f"/>
                  <path id="Trazado_833490" data-name="Trazado 833490" d="M58.51,198.01l-10.03.29.06.68,9.97-.28Z" fill="#fdd247"/>
                  <path id="Trazado_833491" data-name="Trazado 833491" d="M45.29,166.32a102.244,102.244,0,0,0,6.87,12.78l.23-3.76-2.41-4.74-4.68-4.28Z" fill="#0d134f"/>
                  <g id="Grupo_1080992" data-name="Grupo 1080992">
                    <path id="Trazado_833492" data-name="Trazado 833492" d="M65.4,144.35a8.294,8.294,0,0,0-3.77,1.12l-1.8-2.02,2.4-2.47,2.98.87.19,2.5Z" fill="#f09474"/>
                    <g id="Grupo_1080991" data-name="Grupo 1080991">
                      <path id="Trazado_833493" data-name="Trazado 833493" d="M61.62,139.21s1.1-7.59,7.32-5.3c0,0,5.97,1.65,1.53,10.73l-1.1-.54s-1.48,2.39-2.74,1.7l-4.68-4.54-.34-2.06Z" fill="#fdb18d"/>
                      <path id="Trazado_833494" data-name="Trazado 833494" d="M63.64,137.75l3.22-2.62,4.88,1.5c.54,1.38.62,3.41-.54,6.39l-7.56-5.27Z" fill="#f09474"/>
                      <path id="Trazado_833495" data-name="Trazado 833495" d="M61.62,139.21s1.1-7.59,7.32-5.3c0,0,4.07,1.13,2.99,6.64,0,0-.68.44-2.79-.44a3.408,3.408,0,0,0-2.08,1.85l-.75-.45s.95-2.32-.01-3.07l-1.25.27s-.82,1.96-2.27,2.02l-.95-.25-.21-1.27Z" fill="#0a3c5f"/>
                      <g id="Grupo_1080990" data-name="Grupo 1080990">
                        <path id="Trazado_833496" data-name="Trazado 833496" d="M66.49,138.66c.63.89-.18,2.86-.18,2.86l.75.45a3.342,3.342,0,0,1,2.08-1.85c2.11.88,2.78.44,2.79.44a7.69,7.69,0,0,0,.05-3.05c-.72.3-1.42.63-2.16.86a9.512,9.512,0,0,1-3.33.3Z" fill="#0d134f"/>
                        <path id="Trazado_833497" data-name="Trazado 833497" d="M65.05,138.72l.74-.16a4.38,4.38,0,0,1-1.81-.71,3.276,3.276,0,0,1-1.12-2.01,9.831,9.831,0,0,0-1.25,3.38l.21,1.27.95.25c1.45-.06,2.27-2.02,2.27-2.02Z" fill="#0d134f"/>
                      </g>
                      <path id="Trazado_833498" data-name="Trazado 833498" d="M64.93,138.96c-.35.86-.2,1.73.34,1.95s1.26-.3,1.61-1.15.2-1.73-.34-1.95-1.25.3-1.61,1.16Z" fill="#fdb18d"/>
                    </g>
                  </g>
                  <path id="Trazado_833499" data-name="Trazado 833499" d="M58.92,142.76l1.81-.98,3.58,3.69-.85.67Z" fill="#fff"/>
                  <path id="Trazado_833500" data-name="Trazado 833500" d="M42.06,159.94s2.32,7.07,12.64,19.14l.69,24.91H66.46v-1.21l-7.95-2.05,3.27-23.39L53.2,160.59l-11.13-.65Z" fill="#2466b4"/>
                  <path id="Trazado_833501" data-name="Trazado 833501" d="M38.21,158.82s3.85-11.96,20.71-16.06c0,0,4.24,1.42,6.48,4.61,0,0-2.55,4.28-10.02,10.06l-1.5,4.52s-12.62,3.07-15.68-3.13Z" fill="#5600b5"/>
                  <path id="Trazado_833502" data-name="Trazado 833502" d="M53.89,161.95l1.5-4.52a58.316,58.316,0,0,0,6.88-6.19l-.86-.94-7.15,5.71a5.613,5.613,0,0,1-2.45-1.85,6.046,6.046,0,0,0,1.94,3.27l-1.36,3.46s-9.88,1.76-14.18-2.07c3.06,6.2,15.68,3.13,15.68,3.13Z" fill="#410088"/>
                  <path id="Trazado_833503" data-name="Trazado 833503" d="M65.4,147.37s4.78,7,6.9,10.67l2.4-2.28a3.247,3.247,0,0,1,2.08,2.28l-4.24,4.12s-1.59,1.52-5.69-3.34l-5.48-6.65s-.8-5.53,4.02-4.8Z" fill="#5600b5"/>
                  <path id="Trazado_833504" data-name="Trazado 833504" d="M66.46,202.78l-7.95-2.05H55.3l.09,3.26H66.46Z" fill="#0d134f"/>
                  <path id="Trazado_833505" data-name="Trazado 833505" d="M55.39,203.99H66.46v-1.21H55.35Z" fill="#fdd247"/>
                  <rect id="Rectángulo_379540" data-name="Rectángulo 379540" width="5.73" height="2.75" transform="translate(74.66 147.55)" fill="#f8a510"/>
                  <path id="Trazado_833506" data-name="Trazado 833506" d="M80.39,148.72l-5.73.39v-.78h5.73Z" fill="#ba7c0c"/>
                  <path id="Trazado_833507" data-name="Trazado 833507" d="M74.76,145.67a1.107,1.107,0,0,0,.26.07.84.84,0,0,1,.54.22c.13.16.11.36.21.54.34.59.56-.13.72-.39a.853.853,0,0,1,1.02-.29c.33.18.04.75.34.96.43.3.55-.6.59-.84.06-.31.25-.79.67-.69.4.09.31.7.41.99.05.15.15.39.33.25.12-.1.07-.43.09-.57a.837.837,0,0,1,.19-.5.451.451,0,0,1,.14-.1v-.77H74.74v1.12Z" fill="#e9f9f9"/>
                </g>
              </g>
              <g id="Grupo_1080999" data-name="Grupo 1080999">
                <path id="Trazado_833508" data-name="Trazado 833508" d="M181.96,232.72c0,2.35-7.77,4.26-17.35,4.26s-17.35-1.91-17.35-4.26,7.77-4.26,17.35-4.26S181.96,230.37,181.96,232.72Z" fill="#cad3ea"/>
                <g id="Grupo_1080996" data-name="Grupo 1080996">
                  <g id="Grupo_1080995" data-name="Grupo 1080995">
                    <path id="Trazado_833509" data-name="Trazado 833509" d="M169.25,190.19s1.72,5.5-1.95,20.74l.49,17.57h-2.13s-3.98-8.7-3.51-16.79c0,0-3.03-12.64-1.58-20.27,0,0,3.95-3.71,8.69-1.25Z" fill="#2466b4"/>
                    <path id="Trazado_833510" data-name="Trazado 833510" d="M160.17,196.08a16.21,16.21,0,0,0,2.46,8.62c.74-3.41.19-7.97.68-14.47l-.22-.32a8.9,8.9,0,0,0-2.54,1.53c-.05.25-.09.5-.13.75a26.74,26.74,0,0,0-.26,3.89Z" fill="#0d134f"/>
                    <path id="Trazado_833511" data-name="Trazado 833511" d="M154.29,185.94s-3.99,8.18,1.07,23.55c0,0-2.24,3.4,0,20.23h1.95l2.72-19.94s2.74-11.95,3.36-20.17Z" fill="#2466b4"/>
                    <path id="Trazado_833512" data-name="Trazado 833512" d="M177.27,169.17s1.92,1.74-2.02,12.75l-.66,11.75.66,2.27-.66,2.6a2.144,2.144,0,0,1-.41-2.32s-2.01,1.12-2.61-.21l.87-2.74-1.17-10.68,2.24-11.08s.56-2.34,3.75-2.34Z" fill="#f09474"/>
                    <path id="Trazado_833513" data-name="Trazado 833513" d="M174.75,205.76l-1.13-.29c1.08-4.14.82-7.18-.78-9.05-2.01-2.35-5.51-2.04-5.54-2.04-7.09.25-7.61,10.16-7.62,10.26l-1.17-.05c0-.11.58-11.09,8.71-11.37.13-.02,4.11-.37,6.51,2.44,1.86,2.17,2.2,5.57,1.02,10.1Z" fill="#fdd247"/>
                    <path id="Trazado_833514" data-name="Trazado 833514" d="M167.3,193.4l-1.05.31-1.43-.31a2.81,2.81,0,0,1,0,1.41h0a1.774,1.774,0,0,0,.02.32c.14.54.62.56,1.1.55a4.693,4.693,0,0,1,1.45.18,1.3,1.3,0,0,0,1.27-.2,1.879,1.879,0,0,0,.37-.45l.72-1.02-2.47-.8Z" fill="#f09474"/>
                    <path id="Trazado_833515" data-name="Trazado 833515" d="M162.97,165.58s5.89-6.9,14.3,3.59a20.543,20.543,0,0,1-2.99,6.94s-1.42,3-4.16,3.14c0,0-1.74,7.41-.87,10.95,0,0-9.29,5.52-16.13-4.25,0,0,3.65-5.53,4.98-10.08,0,0,1.14-6.4,4.87-10.28Z" fill="#fdb18d"/>
                    <path id="Trazado_833516" data-name="Trazado 833516" d="M173.97,196.42c-.19-.11-.37.06-.52.13.18-.46-.1-1.34-.72-1.18l-.07.02a.4.4,0,0,0-.46-.56c-.28.08-.44.36-.58.58a1.086,1.086,0,0,0-.28.86.671.671,0,0,0,.67.51.774.774,0,0,0,.24.66c.16.14.36.21.52.03a.933.933,0,0,0,.11,1.07c.35.31.56.01.76-.26a2.353,2.353,0,0,0,.47-.83c.07-.26.16-.86-.15-1.03Z" fill="#f09474"/>
                    <path id="Trazado_833517" data-name="Trazado 833517" d="M175.25,195.93l-.65,2.61a2.155,2.155,0,0,1-.41-2.33s.08-1.25-.14-1.17c.09-.34.06.66.35.48a2.047,2.047,0,0,1,.65-.31h0Z" fill="#f09474"/>
                    <path id="Trazado_833518" data-name="Trazado 833518" d="M174.28,176.11a30.213,30.213,0,0,0,1.47-2.66l.03-.24a23.222,23.222,0,0,0,.16-3.23c0-.73.1-1.45.16-2.18-.23-.25-.46-.49-.68-.71v.56c0,1.64.17,3.49-.48,5.02-.46,1.09-1.13,2.41-2.45,2.49a2.393,2.393,0,0,1-1.87-.43,2.432,2.432,0,0,1-.66-2.1,43.4,43.4,0,0,0,.54-4.44c.06-1.31.33-3.41-.62-4.41a3.476,3.476,0,0,0-.3-.26,7.133,7.133,0,0,0-2.22-.13.355.355,0,0,1,.11.03,2.2,2.2,0,0,1,1.7,2.72,13.215,13.215,0,0,1-1.97,3.75c-.93,1.28-2.13,2.62-3.83,2.19-1.54-.39-1.9-1.94-2.09-3.3a6.051,6.051,0,0,1-.05-.95,25.223,25.223,0,0,0-3.12,8.03c-1.33,4.56-4.98,10.08-4.98,10.08,6.83,9.77,16.13,4.25,16.13,4.25-.87-3.54.87-10.95.87-10.95,2.74-.13,4.16-3.14,4.16-3.14Z" fill="#5600b5"/>
                    <path id="Trazado_833519" data-name="Trazado 833519" d="M169.25,190.19c-.87-3.53.87-10.91.87-10.95-.56-.42-1.23-.7-1.8-1.14a8.414,8.414,0,0,1-1.12-.87,4.028,4.028,0,0,0-.94-.86,18.369,18.369,0,0,0-.07,2.11,3.725,3.725,0,0,1-.95,1.65,11.35,11.35,0,0,0-1.42,3.56c-.6,1.73-2.32,4.51-4.46,4.42-1.97-.09-4.12-1.83-5.47-3.38-.45.75-.76,1.21-.76,1.21,6.83,9.77,16.13,4.25,16.13,4.25Z" fill="#410088"/>
                    <path id="Trazado_833520" data-name="Trazado 833520" d="M179.67,165.86c-.87.67-.09,3,.15,3.8.35,1.17.95,2.72.63,4.02-.41,1.63-2.34,1.62-3.51.84a3.821,3.821,0,0,1-1.56-3.33c-.04-.83.04-1.66,0-2.49-.05-.86-.52-1.41-.62-2.22-.24-1.93,3.46-2.38,4.57-1.31" fill="#0d134f"/>
                    <path id="Trazado_833521" data-name="Trazado 833521" d="M164.17,166.9s2.14-4.49,5.08-1.58c0,0,1.5,2.03-1.67,6.79,0,0-4.14,5.87-4.67,8.28,0,0,2.87,7.75,4.14,9.95a20.207,20.207,0,0,1,2.73,3.87s-6.48,2.07-4.67-2.68l-6.8-11.09a67.4,67.4,0,0,1,5.87-13.53Z" fill="#fdb18d"/>
                    <path id="Trazado_833522" data-name="Trazado 833522" d="M156.86,205.01s.03,5.34,6.52,10.02l1.89-5.32-2.87-3.64-5.54-1.06Z" fill="#f8a510"/>
                    <path id="Trazado_833523" data-name="Trazado 833523" d="M175.43,207.13,168,212.01l-.08.05-1.87,1.23-.96.63-1.71,1.12a18.706,18.706,0,0,0-6.52-10.02l12.05-7.9a18.644,18.644,0,0,1,6.52,10.02Z" fill="#fdd247"/>
                    <path id="Trazado_833524" data-name="Trazado 833524" d="M155.36,229.72a6.266,6.266,0,0,1-.81,2.5s-1.31,1.72,1.25,1.72h2.79s1.75-.87-.22-2.11a2.667,2.667,0,0,1-1.07-2.11h-1.95Z" fill="#fdb18d"/>
                    <path id="Trazado_833525" data-name="Trazado 833525" d="M167.79,228.51l.2,1.7s6.59,1.35,6.88,2.28h-8.73l.24-1.99-.74-1.99h2.13Z" fill="#fdb18d"/>
                    <path id="Trazado_833526" data-name="Trazado 833526" d="M154.67,223.56c.16,1.82.38,3.86.68,6.16h1.95l.84-6.16h-3.47Z" fill="#fdb18d"/>
                    <path id="Trazado_833527" data-name="Trazado 833527" d="M165.66,228.51h2.13l-.14-4.95h-3.8A43.667,43.667,0,0,0,165.66,228.51Z" fill="#fdb18d"/>
                    <path id="Trazado_833528" data-name="Trazado 833528" d="M158.51,231.93a.737.737,0,0,1-.25.28,3.293,3.293,0,0,1-2.45.02,1.309,1.309,0,0,1-.87-.74,2.649,2.649,0,0,1-.39.73s-1.31,1.72,1.25,1.72h2.79S160.24,233.11,158.51,231.93Z" fill="#62c1c5"/>
                    <path id="Trazado_833529" data-name="Trazado 833529" d="M170.95,230.9c-.02.16,0,.29-.16.41a.943.943,0,0,1-.6.11c-.46-.02-.9-.1-1.37-.1h-2.53l-.14,1.17h8.73c-.16-.5-2.13-1.12-3.93-1.58Z" fill="#62c1c5"/>
                  </g>
                  <path id="Trazado_833530" data-name="Trazado 833530" d="M186.4,214.6l-5.47-1.52-12.52.65-3.32.18.96-.63,1.87-1.23L168,212l2.49-.2,9.5-.78,1.23-2.09Z" fill="#fdd247"/>
                  <path id="Trazado_833531" data-name="Trazado 833531" d="M170.49,211.8l-2.08,1.93-3.32.18.96-.63,1.87-1.23L168,212Z" fill="#f8a510"/>
                  <path id="Trazado_833532" data-name="Trazado 833532" d="M174.28,161.42l2.32,4.05,1.31,2.65s-1.52-2.23-4.73.32l-3.09-4.79a3.317,3.317,0,0,0,4.19-2.23Z" fill="#fdb18d"/>
                  <path id="Trazado_833533" data-name="Trazado 833533" d="M174.28,161.42s2.15-7.36,8-4.22c0,0,4.49,1.52.63,8.54-.29.53-.22,1.71-.62,2.3l-1.01-.69s-1.8,2.16-2.95,1.3l-4-5.15-.05-2.09Z" fill="#fdb18d"/>
                  <path id="Trazado_833534" data-name="Trazado 833534" d="M184.47,160.92a5.655,5.655,0,0,1-5.74,1.24,7.107,7.107,0,0,1-2.78,2.19,4.643,4.643,0,0,1-.77.26,6.28,6.28,0,0,1-5.09-.96,3.319,3.319,0,0,0,4.19-2.23s2.15-7.35,8-4.21a3.635,3.635,0,0,1,2.19,3.72Z" fill="#0a3c5f"/>
                  <path id="Trazado_833535" data-name="Trazado 833535" d="M183.53,158.09a4.644,4.644,0,0,1-.12.94c-.44,1.76-1.88,2.35-3.52,2.35-1.46,0-3.16,0-3.81-1.56a3.936,3.936,0,0,1-.28-1.3,10,10,0,0,0-1.5,2.91,3.319,3.319,0,0,1-4.19,2.23,6.329,6.329,0,0,0,5.09.96,5.8,5.8,0,0,0,.77-.26,7.01,7.01,0,0,0,2.78-2.19,5.619,5.619,0,0,0,5.74-1.24,3.941,3.941,0,0,0-.95-2.83Z" fill="#0d134f"/>
                  <path id="Trazado_833536" data-name="Trazado 833536" d="M177.61,161.63c-.47.8-.44,1.68.06,1.98s1.28-.12,1.75-.92.44-1.68-.06-1.98S178.08,160.83,177.61,161.63Z" fill="#fdb18d"/>
                </g>
                <g id="Grupo_1080998" data-name="Grupo 1080998">
                  <path id="Trazado_833537" data-name="Trazado 833537" d="M203.3,208.17c1.89-6.38-4.49-10.51-6.97-15.29.04,2.45-.61,4.71.05,7.14.68,2.53,1.71,4.28,1.44,6.96-.23,2.35-.76,5.26.12,7.59a23.637,23.637,0,0,0,2.76,4.71c.52-1.32,1.48-2.5,1.75-4.12.18-1.11-.22-2.54-.15-3.72.08-1.33.65-2.05,1.01-3.28Z" fill="#3d895b"/>
                  <path id="Trazado_833538" data-name="Trazado 833538" d="M221.29,215.1c-1.2-.9-2.66-.86-4.12-.94a4.732,4.732,0,0,0-4.13,1.85,9.542,9.542,0,0,1-1.31,1.52c-.6.41-1.53.42-2.13.96-.94.83-1.05,2.13-1.31,3.26,1.04-.12,2.39-.02,2.88-.1,1.57-.25,2.43-1.4,3.35-2.64.56-.76.75-1.09,1.71-1.2a9.348,9.348,0,0,1,2.25.09,9.647,9.647,0,0,0,4.38-.28,2.488,2.488,0,0,1,1.81.43c-.58-1.22-2.4-2.22-3.39-2.96Z" fill="#73c176"/>
                  <path id="Trazado_833539" data-name="Trazado 833539" d="M215.95,206.29a12.691,12.691,0,0,0-1.81,3.18,6.635,6.635,0,0,1-1.96,3,16.027,16.027,0,0,1-2.7,1.04c-2.24,1.07-3.14,4.14-2.5,6.57,1.19-.79,2.04-2.2,3.23-3.03,1.43-1,2.22-2.65,3.58-3.66,1.49-1.1,3.01-1.38,4.01-3.16a8.429,8.429,0,0,0,.96-4.5c-.01-.22-.1-.72-.15-1.21a2.379,2.379,0,0,0-.31.17c-.91.59-1.65.68-2.34,1.6Z" fill="#3d895b"/>
                  <path id="Trazado_833540" data-name="Trazado 833540" d="M194.28,212.22a9.441,9.441,0,0,0-3.46-4.5c-1.84-1.3-3.68-1.31-5.89-1.31.28,1.41.45,2.88,1.31,3.84,1.27,1.42,3.01,1.44,4.02,3.41,1.03,2.01,1.18,4.16,3.23,5.58,1.77,1.23,4.04,1.13,5.78,2.48-.5-1.8-.54-3.73-1.88-5.35-1.29-1.56-2.34-2.14-3.12-4.16Z" fill="#73c176"/>
                  <path id="Trazado_833541" data-name="Trazado 833541" d="M195.08,217.38c.93.92,1.99,1.68,2.9,2.48a9.328,9.328,0,0,1,2.13,2.55l-.02-.03a15.993,15.993,0,0,1,.7,1.59c.19.47.33.87.45,1.2a3.229,3.229,0,0,1,.31,1.06,3.388,3.388,0,0,1-.57-.95c-.16-.32-.34-.71-.56-1.15s-.46-.96-.74-1.46h0l-.01-.03a9.393,9.393,0,0,0-2.09-2.32c-.9-.76-1.97-1.5-2.97-2.49-.26-.31-.55-.58-.77-.9-.2-.34-.43-.65-.6-1a10.2,10.2,0,0,1-.64-2.05,6,6,0,0,0-.62-1.69,6.386,6.386,0,0,0-.95-1.26,9.44,9.44,0,0,0-1.85-1.42c-.48-.3-.74-.47-.72-.51s.32.05.84.28a7.211,7.211,0,0,1,2.05,1.31,5.978,5.978,0,0,1,1.09,1.31,6.5,6.5,0,0,1,.74,1.82,10.066,10.066,0,0,0,.64,1.92c.15.31.37.59.55.89a10.782,10.782,0,0,0,.71.83Z" fill="#f8a510"/>
                  <g id="Grupo_1080997" data-name="Grupo 1080997">
                    <path id="Trazado_833542" data-name="Trazado 833542" d="M201.08,211.87c-1.03,4.09-.2,7.88.27,10.57a25.975,25.975,0,0,1,.7,4.42,4.9,4.9,0,0,1-.37-1.15c-.19-.75-.48-1.83-.79-3.17a37.1,37.1,0,0,1-.84-4.8c-.03-.46-.07-.93-.1-1.42,0-.49.02-.98.03-1.49a11.936,11.936,0,0,1,.18-1.54c.07-.53.17-1.03.28-1.54a19.881,19.881,0,0,0,.35-3,12.44,12.44,0,0,0-.23-2.77,22.672,22.672,0,0,0-1.65-4.48,23.5,23.5,0,0,1-1.21-3.06,3.742,3.742,0,0,1-.22-1.19,4.614,4.614,0,0,1,.47,1.11c.29.71.75,1.71,1.38,2.94a20.98,20.98,0,0,1,1.82,4.55,11.983,11.983,0,0,1,.28,2.91,21.022,21.022,0,0,1-.35,3.1Z" fill="#f8a510"/>
                    <path id="Trazado_833543" data-name="Trazado 833543" d="M202.29,211.44a4.021,4.021,0,0,1,.13-.82c-.12-.13-.23-.25-.36-.38a5.115,5.115,0,0,1-1.12-2.1c-.89,1.67-1.75,3.83-1.15,5.62a15.885,15.885,0,0,0,1.58,2.7,3.92,3.92,0,0,1,.34.8,7.359,7.359,0,0,0,.74-2.1c.18-1.11-.22-2.54-.15-3.72Z" fill="#0d134f"/>
                  </g>
                  <path id="Trazado_833544" data-name="Trazado 833544" d="M208.1,217.76a27.011,27.011,0,0,0-1.26,4.16,12.243,12.243,0,0,1-.73,1.83c-.28.54-.55,1.02-.77,1.48a11.323,11.323,0,0,0-.93,3.11,2,2,0,0,1-.09-.9,6.357,6.357,0,0,1,.6-2.4c.2-.48.45-.99.71-1.53a12.444,12.444,0,0,0,.64-1.76,24.236,24.236,0,0,1,1.26-4.28,7.081,7.081,0,0,1,.63-1.03,9.581,9.581,0,0,1,.76-.89c.54-.53,1.09-.99,1.62-1.42,1.08-.84,2.05-1.55,2.83-2.21,1.55-1.3,2.26-2.36,2.36-2.3.04.02-.12.3-.43.79a11.811,11.811,0,0,1-1.61,1.85c-.75.71-1.72,1.48-2.76,2.33a10.114,10.114,0,0,0-2.8,3.17Z" fill="#f8a510"/>
                  <path id="Trazado_833545" data-name="Trazado 833545" d="M210.98,220.62a6.194,6.194,0,0,0-1.84.98,9.043,9.043,0,0,0-1.4,1.36,17.909,17.909,0,0,0-1.82,2.83,23.474,23.474,0,0,0-.89,2.98c-.05,0-.06-.31-.05-.86a7.545,7.545,0,0,1,.52-2.31,15.352,15.352,0,0,1,1.77-3.02,9.46,9.46,0,0,1,1.48-1.49,6.914,6.914,0,0,1,1.98-1.07,5.765,5.765,0,0,0,1.8-1,10.734,10.734,0,0,0,1.26-1.51,4.454,4.454,0,0,1,2.88-2.04,5.722,5.722,0,0,1,2.37.17c.54.14.82.24.81.28s-.31.03-.86-.03a6.768,6.768,0,0,0-2.24.03,4.078,4.078,0,0,0-2.49,1.95,10.347,10.347,0,0,1-1.31,1.62,6.023,6.023,0,0,1-1.98,1.13Z" fill="#f8a510"/>
                  <path id="Trazado_833546" data-name="Trazado 833546" d="M206.69,204.04c.71-1.9,1.18-3.75.47-5.74-.3-.84-.74-1.62-1.01-2.47a6.963,6.963,0,0,0-.61.87,12.178,12.178,0,0,0-.47,2.09,13.8,13.8,0,0,1-1.24,3.56c-1.19,2.12-3.16,3.65-3.61,6.19a9.81,9.81,0,0,0,1.88,7.1,6.434,6.434,0,0,1,1.29,2.38c.08.44.08.87.13,1.28a20.378,20.378,0,0,1,2.01-2.89,6.786,6.786,0,0,0,1.07-6.18A10.7,10.7,0,0,1,206.69,204.04Z" fill="#73c176"/>
                  <path id="Trazado_833547" data-name="Trazado 833547" d="M203.85,213.12a19.217,19.217,0,0,1,0,5.62c-.19,1.7-.41,3.22-.43,4.49a29.249,29.249,0,0,0,.3,4.12,3.666,3.666,0,0,1-.39-1.06,6.434,6.434,0,0,1-.26-1.31c-.03-.26-.08-.53-.1-.83,0-.29-.01-.61-.02-.93a41.966,41.966,0,0,1,.3-4.55,20.032,20.032,0,0,0-.05-5.46c-.32-1.9-.68-3.88-.15-5.63a12.019,12.019,0,0,1,.51-1.2c.2-.35.4-.69.59-1.02a20.048,20.048,0,0,0,.99-1.84,8.4,8.4,0,0,0,.83-2.86,4.821,4.821,0,0,1,.08-1.12,3.046,3.046,0,0,1,.17,1.12,7.786,7.786,0,0,1-.66,3.03,18.7,18.7,0,0,1-.94,1.92c-.18.33-.37.68-.56,1.03-.16.36-.31.72-.44,1.1-.45,1.58-.11,3.41.21,5.36Z" fill="#f8a510"/>
                  <path id="Trazado_833548" data-name="Trazado 833548" d="M220.96,233.07H186.32a11.537,11.537,0,0,1,4.58-4.93,19.551,19.551,0,0,1,4.2-1.29,26.877,26.877,0,0,0,4.03-1.87c3.42-1.47,6.05,1.09,9.32,1.29,1.48.09,2.84-.83,4.39-.7a7.2,7.2,0,0,1,4.38,2.39c1.73,1.81,2.41,3.58,3.75,5.12Z" fill="#1cdbc9"/>
                </g>
              </g>
            </g>
          </g>
        </g>
      </g>
    </g>
  </g>
</svg>
