<svg xmlns="http://www.w3.org/2000/svg" xmlns:xlink="http://www.w3.org/1999/xlink" width="71" height="71" viewBox="0 0 71 71">
  <defs>
    <clipPath id="clip-path">
      <rect id="Rectángulo_383613" data-name="Rectángulo 383613" width="46.998" height="45.857" fill="none"/>
    </clipPath>
  </defs>
  <g id="Grupo_1081568" data-name="Grupo 1081568" transform="translate(-1151 -1030)">
    <g id="Grupo_1081497" data-name="Grupo 1081497" transform="translate(858 -644)">
      <g id="Grupo_1015825" data-name="Grupo 1015825" transform="translate(293 1674)">
        <circle id="Elipse_4845" data-name="Elipse 4845" cx="35.5" cy="35.5" r="35.5" fill="#fff"/>
      </g>
    </g>
    <g id="Grupo_1081499" data-name="Grupo 1081499" transform="translate(1163 1043)">
      <g id="Grupo_1081498" data-name="Grupo 1081498" clip-path="url(#clip-path)">
        <path id="Trazado_836958" data-name="Trazado 836958" d="M25.7,19.446c.869.412,1.739.783,2.568,1.231a20.274,20.274,0,0,1,1.939,1.24.554.554,0,0,0,.67.057,9.827,9.827,0,0,1,2.917-1.022,10.816,10.816,0,0,1,2.94-.162,11.177,11.177,0,0,1,9.507,7.1,10.1,10.1,0,0,1,.738,4.417,11,11,0,0,1-5.6,9.116,10.706,10.706,0,0,1-2.7,1.115,11.549,11.549,0,0,1-2.865.36,10.372,10.372,0,0,1-3.061-.442.47.47,0,0,0-.286.044c-.821.355-1.626.751-2.461,1.067-1.03.39-2.077.742-3.132,1.061a26.351,26.351,0,0,1-2.579.653,28.326,28.326,0,0,1-6.382.56,20.855,20.855,0,0,1-3.166-.276c-.822-.154-1.652-.269-2.466-.456-.963-.221-1.926-.458-2.864-.768-1.058-.349-2.1-.762-3.127-1.191A39.454,39.454,0,0,1,.758,40.227,1.259,1.259,0,0,1,.1,39.121c-.015-.647-.095-1.293-.1-1.94a17.7,17.7,0,0,1,.312-3.657c.114-.566.188-1.141.333-1.7a19.867,19.867,0,0,1,1.136-3.265A16.788,16.788,0,0,1,7.475,21.64a16.591,16.591,0,0,1,3.693-1.954c.16-.06.315-.131.481-.2a.422.422,0,0,0-.038-.072A14.3,14.3,0,0,1,8.8,14.166a13.993,13.993,0,0,1-.522-2.975,11.121,11.121,0,0,1,.843-5.157A9.259,9.259,0,0,1,14.507.769a11.262,11.262,0,0,1,4.57-.759,10.7,10.7,0,0,1,5.844,1.882A9.247,9.247,0,0,1,28.2,6.036a11.413,11.413,0,0,1,.819,5.5A14.242,14.242,0,0,1,25.8,19.3c-.044.054-.084.111-.107.142m2.938,3.99c-.12-.082-.229-.158-.339-.231a15.634,15.634,0,0,0-4.072-1.9.527.527,0,0,0-.55.116,9.046,9.046,0,0,1-2.816,1.6,6.551,6.551,0,0,1-4.37.013,9.613,9.613,0,0,1-2.976-1.7.327.327,0,0,0-.253-.062A14.918,14.918,0,0,0,2.891,31.731a18.288,18.288,0,0,0-.619,3.345,22.605,22.605,0,0,0-.037,3.39.293.293,0,0,0,.13.2c1.169.651,2.33,1.32,3.52,1.933a24.923,24.923,0,0,0,3.632,1.515c.933.307,1.876.586,2.827.83.748.191,1.511.334,2.275.452.708.109,1.425.164,2.139.228a25,25,0,0,0,5.589-.186c.965-.131,1.915-.375,2.868-.582A24.664,24.664,0,0,0,28.607,41.8c.454-.17.9-.353,1.414-.554a10.986,10.986,0,0,1-5.215-8.564,10.867,10.867,0,0,1,3.828-9.251M10.459,10.608a8.73,8.73,0,0,0,.3,2.48,11.926,11.926,0,0,0,1.3,3.216A11.757,11.757,0,0,0,15.78,20.3a5.036,5.036,0,0,0,3.772.83,5.712,5.712,0,0,0,2.306-1.042A11.892,11.892,0,0,0,25.473,15.9a11.312,11.312,0,0,0,1.376-4.961,9.635,9.635,0,0,0-.456-3.547,7.591,7.591,0,0,0-2.17-3.3,8.11,8.11,0,0,0-4.733-1.872,9.325,9.325,0,0,0-4.119.537,6.987,6.987,0,0,0-3.579,2.833,8.674,8.674,0,0,0-1.333,5.023M35.846,40.719a8.889,8.889,0,1,0-8.89-8.894,8.915,8.915,0,0,0,8.89,8.894" transform="translate(0 0)" fill="#161615"/>
        <path id="Trazado_836959" data-name="Trazado 836959" d="M199.788,186.631c.159-.154.309-.3.456-.444q2.4-2.387,4.792-4.777a1.249,1.249,0,0,1,1.134-.443,1.065,1.065,0,0,1,.616,1.735c-.145.176-.315.332-.476.493q-2.8,2.8-5.608,5.606a1.284,1.284,0,0,1-1.028.441,1.036,1.036,0,0,1-.686-.327c-.387-.377-.764-.763-1.147-1.145l-2.51-2.5a1.14,1.14,0,0,1-.383-.744,1.034,1.034,0,0,1,.528-1.006.993.993,0,0,1,1.192.059,3.62,3.62,0,0,1,.392.36q1.2,1.19,2.388,2.383c.1.1.214.2.34.31" transform="translate(-165.121 -153.268)" fill="#161615"/>
      </g>
    </g>
  </g>
</svg>
