<svg xmlns="http://www.w3.org/2000/svg" width="144.381" height="104.314" viewBox="0 0 144.381 104.314">
  <g id="doc3" transform="translate(0.881 0.345)">
    <g id="Capa_2" data-name="Capa 2">
      <g id="Layer_1" data-name="Layer 1">
        <g id="Grupo_1081056" data-name="Grupo 1081056">
          <g id="Grupo_1081050" data-name="Grupo 1081050">
            <g id="Grupo_1081048" data-name="Grupo 1081048">
              <path id="Trazado_833675" data-name="Trazado 833675" d="M143.49,45.39,118.44,78.5a2.488,2.488,0,0,1-3.49.48L87.63,58.31a2.488,2.488,0,0,1-.48-3.49l29.14-38.51a2.488,2.488,0,0,1,3.49-.48L141.7,32.42l1.8,12.97Z" fill="#e6e6e6"/>
            </g>
            <path id="Trazado_833676" data-name="Trazado 833676" d="M143.49,42.7,118.44,75.81a2.488,2.488,0,0,1-3.49.48L87.63,55.62a2.488,2.488,0,0,1-.48-3.49l29.14-38.51a2.488,2.488,0,0,1,3.49-.48L141.7,29.73l1.8,12.97Z" fill="#fff"/>
            <path id="Trazado_833677" data-name="Trazado 833677" d="M143.49,42.7l-7.38-5.59,5.58-7.38Z" fill="#e6e6e6"/>
            <rect id="Rectángulo_379552" data-name="Rectángulo 379552" width="28.54" height="1.06" transform="matrix(0.797, 0.603, -0.603, 0.797, 114.828, 24.421)" fill="#ddd"/>
            <rect id="Rectángulo_379553" data-name="Rectángulo 379553" width="28.54" height="1.06" transform="matrix(0.797, 0.603, -0.603, 0.797, 112.043, 28.102)" fill="#ddd"/>
            <rect id="Rectángulo_379554" data-name="Rectángulo 379554" width="28.54" height="1.06" transform="matrix(0.797, 0.603, -0.603, 0.797, 109.25, 31.798)" fill="#ddd"/>
            <rect id="Rectángulo_379555" data-name="Rectángulo 379555" width="28.54" height="1.06" transform="matrix(0.797, 0.603, -0.603, 0.797, 106.464, 35.469)" fill="#ddd"/>
            <rect id="Rectángulo_379556" data-name="Rectángulo 379556" width="28.54" height="1.06" transform="matrix(0.797, 0.603, -0.603, 0.797, 103.679, 39.15)" fill="#ddd"/>
            <rect id="Rectángulo_379557" data-name="Rectángulo 379557" width="28.54" height="1.06" transform="matrix(0.797, 0.603, -0.603, 0.797, 100.902, 42.838)" fill="#ddd"/>
            <rect id="Rectángulo_379558" data-name="Rectángulo 379558" width="14.27" height="1.06" transform="matrix(0.797, 0.603, -0.603, 0.797, 98.107, 46.525)" fill="#ddd"/>
            <rect id="Rectángulo_379559" data-name="Rectángulo 379559" width="14.27" height="1.06" transform="matrix(0.797, 0.603, -0.603, 0.797, 95.322, 50.196)" fill="#ddd"/>
            <path id="Trazado_833678" data-name="Trazado 833678" d="M112.12,71.3a5.482,5.482,0,1,1,7.68-1.06,5.483,5.483,0,0,1-7.68,1.06Zm6.05-7.99a4.533,4.533,0,1,0,.88,6.35A4.54,4.54,0,0,0,118.17,63.31Z" fill="#cadeb4"/>
            <path id="Trazado_833679" data-name="Trazado 833679" d="M113.11,68.64l-.42-3.04,1.61-.23.2,1.43,3.71-.51.23,1.61Z" fill="#cadeb4"/>
            <g id="Grupo_1081049" data-name="Grupo 1081049">
              <path id="Trazado_833680" data-name="Trazado 833680" d="M136.11,37.11l6.31,7.01,1.07-1.42Z" fill="#f2f2f2"/>
            </g>
          </g>
          <g id="Grupo_1081051" data-name="Grupo 1081051">
            <rect id="Rectángulo_379560" data-name="Rectángulo 379560" width="37.7" height="53.27" rx="2.27" transform="translate(-0.881 37.453) rotate(-34.41)" fill="#e6e6e6"/>
            <rect id="Rectángulo_379561" data-name="Rectángulo 379561" width="37.7" height="53.27" rx="2.27" transform="translate(-0.878 35.036) rotate(-34.41)" fill="#fff"/>
            <path id="Trazado_833681" data-name="Trazado 833681" d="M24.16,22.63,9.6,32.6a1.669,1.669,0,0,0-.43,2.32h0a1.669,1.669,0,0,0,2.32.43l14.56-9.97a1.669,1.669,0,0,0,.43-2.32h0a1.669,1.669,0,0,0-2.32-.43Z" fill="#f9bcab"/>
            <rect id="Rectángulo_379562" data-name="Rectángulo 379562" width="14.67" height="0.65" transform="translate(8.804 41.774) rotate(-34.41)" fill="#ccc"/>
            <rect id="Rectángulo_379563" data-name="Rectángulo 379563" width="29.33" height="0.65" transform="translate(9.929 43.412) rotate(-34.41)" fill="#e6e6e6"/>
            <rect id="Rectángulo_379564" data-name="Rectángulo 379564" width="29.33" height="0.65" transform="translate(11.058 45.057) rotate(-34.41)" fill="#e6e6e6"/>
            <rect id="Rectángulo_379565" data-name="Rectángulo 379565" width="29.33" height="0.65" transform="translate(12.169 46.697) rotate(-34.41)" fill="#e6e6e6"/>
            <rect id="Rectángulo_379566" data-name="Rectángulo 379566" width="14.67" height="0.65" transform="translate(15.188 51.101) rotate(-34.41)" fill="#ccc"/>
            <rect id="Rectángulo_379567" data-name="Rectángulo 379567" width="29.33" height="0.65" transform="translate(16.313 52.748) rotate(-34.41)" fill="#e6e6e6"/>
            <rect id="Rectángulo_379568" data-name="Rectángulo 379568" width="29.33" height="0.65" transform="translate(17.442 54.383) rotate(-34.41)" fill="#e6e6e6"/>
            <rect id="Rectángulo_379569" data-name="Rectángulo 379569" width="29.33" height="0.65" transform="translate(18.563 56.023) rotate(-34.41)" fill="#e6e6e6"/>
            <rect id="Rectángulo_379570" data-name="Rectángulo 379570" width="14.67" height="0.65" transform="translate(21.582 60.437) rotate(-34.41)" fill="#ccc"/>
            <rect id="Rectángulo_379571" data-name="Rectángulo 379571" width="29.33" height="0.65" transform="translate(22.702 62.067) rotate(-34.41)" fill="#e6e6e6"/>
            <rect id="Rectángulo_379572" data-name="Rectángulo 379572" width="29.33" height="0.65" transform="translate(23.837 63.709) rotate(-34.41)" fill="#e6e6e6"/>
            <rect id="Rectángulo_379573" data-name="Rectángulo 379573" width="29.33" height="0.65" transform="translate(24.957 65.359) rotate(-34.41)" fill="#e6e6e6"/>
            <rect id="Rectángulo_379574" data-name="Rectángulo 379574" width="11.25" height="0.65" transform="translate(42.89 59.533) rotate(-34.41)" fill="#ccc"/>
            <rect id="Rectángulo_379575" data-name="Rectángulo 379575" width="5.63" height="0.65" transform="translate(48.645 58.002) rotate(-34.41)" fill="#ccc"/>
          </g>
          <g id="Grupo_1081052" data-name="Grupo 1081052">
            <rect id="Rectángulo_379576" data-name="Rectángulo 379576" width="39.24" height="50.25" rx="2.27" transform="matrix(0.99, -0.141, 0.141, 0.99, 32.041, 7.371)" fill="#e6e6e6"/>
            <rect id="Rectángulo_379577" data-name="Rectángulo 379577" width="39.24" height="50.25" rx="2.27" transform="matrix(0.99, -0.141, 0.141, 0.99, 33.587, 5.829)" fill="#fff"/>
            <rect id="Rectángulo_379578" data-name="Rectángulo 379578" width="19.65" height="2.06" transform="matrix(0.99, -0.141, 0.141, 0.99, 43.992, 10.068)" fill="#cadeb4"/>
            <rect id="Rectángulo_379579" data-name="Rectángulo 379579" width="28.84" height="1.03" transform="matrix(0.99, -0.141, 0.141, 0.99, 40.124, 15.473)" fill="#d6d6d6"/>
            <rect id="Rectángulo_379580" data-name="Rectángulo 379580" width="28.84" height="1.03" transform="matrix(0.99, -0.141, 0.141, 0.99, 40.449, 17.803)" fill="#d6d6d6"/>
            <rect id="Rectángulo_379581" data-name="Rectángulo 379581" width="28.84" height="1.03" transform="matrix(0.99, -0.141, 0.141, 0.99, 42.347, 31.122)" fill="#d6d6d6"/>
            <rect id="Rectángulo_379582" data-name="Rectángulo 379582" width="22.84" height="1.03" transform="matrix(0.99, -0.141, 0.141, 0.99, 42.682, 33.464)" fill="#d6d6d6"/>
            <rect id="Rectángulo_379583" data-name="Rectángulo 379583" width="26.29" height="1.03" transform="matrix(0.99, -0.141, 0.141, 0.99, 43.012, 35.79)" fill="#d6d6d6"/>
            <rect id="Rectángulo_379584" data-name="Rectángulo 379584" width="24.74" height="1.03" transform="matrix(0.99, -0.141, 0.141, 0.99, 43.342, 38.117)" fill="#d6d6d6"/>
            <rect id="Rectángulo_379585" data-name="Rectángulo 379585" width="27.2" height="1.03" transform="matrix(0.99, -0.141, 0.141, 0.99, 43.674, 40.451)" fill="#d6d6d6"/>
            <rect id="Rectángulo_379586" data-name="Rectángulo 379586" width="23.67" height="1.03" transform="matrix(0.99, -0.141, 0.141, 0.99, 44.004, 42.786)" fill="#d6d6d6"/>
            <rect id="Rectángulo_379587" data-name="Rectángulo 379587" width="28.84" height="1.03" transform="matrix(0.99, -0.141, 0.141, 0.99, 40.784, 20.133)" fill="#d6d6d6"/>
            <rect id="Rectángulo_379588" data-name="Rectángulo 379588" width="14.42" height="1.03" transform="matrix(0.99, -0.141, 0.141, 0.99, 41.122, 22.472)" fill="#d6d6d6"/>
            <path id="Trazado_833682" data-name="Trazado 833682" d="M72.28,48.39a2.536,2.536,0,1,1,2.15-2.87A2.543,2.543,0,0,1,72.28,48.39Zm-.58-4.08a1.591,1.591,0,1,0,1.8,1.35A1.592,1.592,0,0,0,71.7,44.31Z" fill="#b3b3b3"/>
            <path id="Trazado_833683" data-name="Trazado 833683" d="M72.78,49.14a.156.156,0,0,1-.17-.11.16.16,0,0,1,.11-.19,3.058,3.058,0,0,0,2.27-3.03.155.155,0,0,1,.31-.01,3.381,3.381,0,0,1-2.5,3.33h-.02Z" fill="#b3b3b3"/>
            <path id="Trazado_833684" data-name="Trazado 833684" d="M68.72,46.09H68.7a.156.156,0,0,1-.16-.15,3.381,3.381,0,0,1,2.5-3.33.155.155,0,1,1,.08.3,3.058,3.058,0,0,0-2.27,3.03.171.171,0,0,1-.13.16Z" fill="#b3b3b3"/>
            <rect id="Rectángulo_379589" data-name="Rectángulo 379589" width="20.94" height="0.31" transform="matrix(0.99, -0.141, 0.141, 0.99, 45.109, 50.575)" fill="#b3b3b3"/>
            <path id="Trazado_833685" data-name="Trazado 833685" d="M46.97,49.41q1.59-2.22,3.19-4.44c-.05-.03-.1-.05-.14-.08a14.524,14.524,0,0,0-.65,1.7c-.09.28-.17.57-.24.86a4.726,4.726,0,0,0-.16.9,1.009,1.009,0,0,0,1.82.79,2.93,2.93,0,0,0,.59-1.67h-.16c.04.13.09.26.13.39a2.533,2.533,0,0,1,.08.48.712.712,0,0,0,.4.62.728.728,0,0,0,.69-.16,1.677,1.677,0,0,0,.42-.76h-.15a.4.4,0,0,0,.47.27.419.419,0,0,0,.31-.43c-.04.03-.09.05-.13.08a.759.759,0,0,0,.83.05l-.1-.02a.438.438,0,0,0,.71-.08l-.09.05a11.492,11.492,0,0,0,1.44.12,6.011,6.011,0,0,0,1.64.02,1.449,1.449,0,0,0,.35-.12,1,1,0,0,0,.14-.08.2.2,0,0,1,.21,0,.728.728,0,0,0,.67-.09,1.94,1.94,0,0,0,.85-.96,1.246,1.246,0,0,0-.16-1.26c-.07-.08-.2.02-.13.1.58.69-.02,1.64-.68,2a.6.6,0,0,1-.37.09c-.11-.01-.19-.09-.3-.08a.536.536,0,0,0-.27.11.985.985,0,0,1-.34.12,5.749,5.749,0,0,1-1.55-.01,10.705,10.705,0,0,1-1.49-.13.105.105,0,0,0-.09.05.274.274,0,0,1-.43.04.078.078,0,0,0-.1-.02.589.589,0,0,1-.66-.03.08.08,0,0,0-.13.08.234.234,0,0,1-.46.07.082.082,0,0,0-.15,0,1.925,1.925,0,0,1-.32.64.531.531,0,0,1-.63.16c-.21-.12-.23-.4-.25-.62a5.711,5.711,0,0,0-.19-.71c-.02-.08-.16-.1-.16,0a2.794,2.794,0,0,1-.44,1.43,1.023,1.023,0,0,1-1.05.51c-.51-.12-.63-.72-.59-1.16a8.555,8.555,0,0,1,.38-1.57,14.524,14.524,0,0,1,.65-1.7.081.081,0,0,0-.14-.08q-1.59,2.22-3.19,4.44c-.06.09.07.19.13.1h0Z" fill="gray"/>
          </g>
          <g id="Grupo_1081054" data-name="Grupo 1081054">
            <rect id="Rectángulo_379590" data-name="Rectángulo 379590" width="52.38" height="39.24" rx="2.27" transform="translate(68.039 53.027) rotate(-80.67)" fill="#e6e6e6"/>
            <rect id="Rectángulo_379591" data-name="Rectángulo 379591" width="52.38" height="39.24" rx="2.27" transform="translate(64.59 53.116) rotate(-80.67)" fill="#e6e6e6"/>
            <rect id="Rectángulo_379592" data-name="Rectángulo 379592" width="52.38" height="39.24" rx="2.27" transform="translate(66.36 51.343) rotate(-80.67)" fill="#fff"/>
            <path id="Trazado_833686" data-name="Trazado 833686" d="M97.42,53.35a3.526,3.526,0,1,1,4.05-2.91A3.53,3.53,0,0,1,97.42,53.35Zm.93-5.65a2.21,2.21,0,1,0,1.82,2.54A2.214,2.214,0,0,0,98.35,47.7Z" fill="#5ecaef"/>
            <g id="Grupo_1081053" data-name="Grupo 1081053">
              <path id="Trazado_833687" data-name="Trazado 833687" d="M98.18,45.19a4.689,4.689,0,0,0-4.64,6.19.212.212,0,0,0,.27.13h.02a.217.217,0,0,0,.11-.26,4.263,4.263,0,0,1,4.22-5.63.21.21,0,0,0,.02-.42Z" fill="#4d4d4d"/>
              <path id="Trazado_833688" data-name="Trazado 833688" d="M102.43,48.37a.212.212,0,1,0-.4.14,4.262,4.262,0,0,1-4.22,5.63.212.212,0,0,0-.22.2.216.216,0,0,0,.18.22h.03a4.66,4.66,0,0,0,3.66-1.53,4.713,4.713,0,0,0,.98-4.67Z" fill="#4d4d4d"/>
            </g>
            <rect id="Rectángulo_379593" data-name="Rectángulo 379593" width="17.37" height="0.32" transform="translate(71.535 47.635) rotate(9.33)" fill="#4d4d4d"/>
            <path id="Trazado_833689" data-name="Trazado 833689" d="M87.84,7.66,99.45,9.57a.855.855,0,0,0,.99-.71h0a.855.855,0,0,0-.71-.99L88.12,5.96a.855.855,0,0,0-.99.71h0A.855.855,0,0,0,87.84,7.66Z" fill="#c1cdf5"/>
            <path id="Trazado_833690" data-name="Trazado 833690" d="M86.77,11l21.4,3.52a.35.35,0,0,0,.4-.29h0a.35.35,0,0,0-.29-.4l-21.4-3.52a.35.35,0,0,0-.4.29h0a.35.35,0,0,0,.29.4Z" fill="#ddd"/>
            <path id="Trazado_833691" data-name="Trazado 833691" d="M86.44,12.96l21.4,3.52a.35.35,0,0,0,.4-.29h0a.35.35,0,0,0-.29-.4l-21.4-3.52a.35.35,0,0,0-.4.29h0a.35.35,0,0,0,.29.4Z" fill="#ddd"/>
            <path id="Trazado_833692" data-name="Trazado 833692" d="M82.82,12.37l-4.76-.78a1.49,1.49,0,0,1-1.23-1.72l.78-4.76a1.49,1.49,0,0,1,1.72-1.23l4.76.78a1.49,1.49,0,0,1,1.23,1.72l-.78,4.76a1.49,1.49,0,0,1-1.72,1.23ZM79.13,5.1a.267.267,0,0,0-.3.21l-.78,4.76a.267.267,0,0,0,.21.3l4.76.78a.267.267,0,0,0,.3-.21l.78-4.76a.267.267,0,0,0-.21-.3L79.13,5.1Z" fill="#ddd"/>
            <path id="Trazado_833693" data-name="Trazado 833693" d="M80.4,9.64,79.2,7.96l.7-.5.7.97,1.93-1.38.51.7Z" fill="#f9bcab"/>
            <path id="Trazado_833694" data-name="Trazado 833694" d="M85.6,21.24l11.61,1.91a.855.855,0,0,0,.99-.71h0a.855.855,0,0,0-.71-.99L85.88,19.54a.855.855,0,0,0-.99.71h0A.855.855,0,0,0,85.6,21.24Z" fill="#c1cdf5"/>
            <path id="Trazado_833695" data-name="Trazado 833695" d="M84.53,24.58l21.4,3.52a.35.35,0,0,0,.4-.29h0a.35.35,0,0,0-.29-.4l-21.4-3.52a.35.35,0,0,0-.4.29h0A.35.35,0,0,0,84.53,24.58Z" fill="#ddd"/>
            <path id="Trazado_833696" data-name="Trazado 833696" d="M84.21,26.55l21.4,3.52a.35.35,0,0,0,.4-.29h0a.35.35,0,0,0-.29-.4l-21.4-3.52a.35.35,0,0,0-.4.29h0A.35.35,0,0,0,84.21,26.55Z" fill="#ddd"/>
            <path id="Trazado_833697" data-name="Trazado 833697" d="M80.59,25.95l-4.76-.78a1.49,1.49,0,0,1-1.23-1.72l.78-4.76a1.49,1.49,0,0,1,1.72-1.23l4.76.78a1.49,1.49,0,0,1,1.23,1.72l-.78,4.76A1.49,1.49,0,0,1,80.59,25.95ZM76.9,18.68a.267.267,0,0,0-.3.21l-.78,4.76a.267.267,0,0,0,.21.3l4.76.78a.267.267,0,0,0,.3-.21l.78-4.76a.267.267,0,0,0-.21-.3Z" fill="#ddd"/>
            <path id="Trazado_833698" data-name="Trazado 833698" d="M78.17,23.22l-1.21-1.67.71-.51.7.98,1.93-1.39.51.7Z" fill="#f9bcab"/>
            <path id="Trazado_833699" data-name="Trazado 833699" d="M83.37,34.82l11.61,1.91a.855.855,0,0,0,.99-.71h0a.855.855,0,0,0-.71-.99L83.65,33.12a.855.855,0,0,0-.99.71h0A.855.855,0,0,0,83.37,34.82Z" fill="#c1cdf5"/>
            <path id="Trazado_833700" data-name="Trazado 833700" d="M82.3,38.16l21.4,3.52a.35.35,0,0,0,.4-.29h0a.35.35,0,0,0-.29-.4l-21.4-3.52a.35.35,0,0,0-.4.29h0A.35.35,0,0,0,82.3,38.16Z" fill="#ddd"/>
            <path id="Trazado_833701" data-name="Trazado 833701" d="M81.98,40.13l21.4,3.52a.35.35,0,0,0,.4-.29h0a.35.35,0,0,0-.29-.4l-21.4-3.52a.35.35,0,0,0-.4.29h0A.35.35,0,0,0,81.98,40.13Z" fill="#ddd"/>
            <path id="Trazado_833702" data-name="Trazado 833702" d="M78.36,39.53l-4.76-.78a1.49,1.49,0,0,1-1.23-1.72l.78-4.76a1.49,1.49,0,0,1,1.72-1.23l4.76.78a1.49,1.49,0,0,1,1.23,1.72l-.78,4.76a1.49,1.49,0,0,1-1.72,1.23Zm-3.69-7.27a.267.267,0,0,0-.3.21l-.78,4.76a.267.267,0,0,0,.21.3l4.76.78a.267.267,0,0,0,.3-.21l.78-4.76a.267.267,0,0,0-.21-.3Z" fill="#ddd"/>
            <path id="Trazado_833703" data-name="Trazado 833703" d="M75.94,36.81l-1.21-1.68.71-.5.7.97,1.93-1.39.51.7Z" fill="#f9bcab"/>
          </g>
          <g id="Grupo_1081055" data-name="Grupo 1081055">
            <path id="Trazado_833704" data-name="Trazado 833704" d="M104.81,84.85H38.2l-.22-27.82V55.79l-.16-19.24a3.047,3.047,0,0,1,3.05-3.07H64.09a3.047,3.047,0,0,1,2.88,2.05l.56,1.6a5.6,5.6,0,0,0,5.29,3.76h28.92a2.968,2.968,0,0,1,2.97,2.96v3.24l.01,1.24.09,36.52Z" fill="#e0a35a"/>
            <path id="Trazado_833705" data-name="Trazado 833705" d="M44.53,43.82H98.08a3.719,3.719,0,0,1,3.72,3.72v9.48h-61V47.54a3.719,3.719,0,0,1,3.72-3.72Z" fill="#e6e6e6"/>
            <path id="Trazado_833706" data-name="Trazado 833706" d="M44.53,45.31H98.08a3.719,3.719,0,0,1,3.72,3.72v9.48h-61V49.03a3.719,3.719,0,0,1,3.72-3.72Z" fill="#fff"/>
            <path id="Trazado_833707" data-name="Trazado 833707" d="M102.94,101.26a5.335,5.335,0,0,1-4.65,2.71H39.67a5.358,5.358,0,0,1-5.32-4.77L30.38,62.39a3.05,3.05,0,0,1,2.13-3.22,3.05,3.05,0,0,0-.12,1.21l3.97,36.81a5.343,5.343,0,0,0,5.32,4.77H100.3A5.257,5.257,0,0,0,102.94,101.26Z" fill="#e6e6e6"/>
            <path id="Trazado_833708" data-name="Trazado 833708" d="M110.24,51.67l-4.62,45.49a5.341,5.341,0,0,1-2.68,4.11,5.257,5.257,0,0,1-2.64.7H41.68a5.358,5.358,0,0,1-5.32-4.77L32.39,60.39a3.213,3.213,0,0,1,.09-1.12.539.539,0,0,1,.03-.1,3.043,3.043,0,0,1,2.91-2.14H54.76a5.6,5.6,0,0,0,5.29-3.77l.97-2.79.03-.1a3.047,3.047,0,0,1,2.88-2.05h43.28a3.041,3.041,0,0,1,3.03,3.34Z" fill="#ffbb61"/>
            <path id="Trazado_833709" data-name="Trazado 833709" d="M104.71,48.33H63.92a3.047,3.047,0,0,0-2.88,2.05l-.03.1-.97,2.79a5.6,5.6,0,0,1-5.29,3.77H37.98V55.8H53.79a5.6,5.6,0,0,0,5.29-3.77l.97-2.79.03-.1a3.047,3.047,0,0,1,2.88-2.05h41.75v1.24Z" fill="#e6e6e6"/>
          </g>
        </g>
      </g>
    </g>
  </g>
</svg>
