<svg xmlns="http://www.w3.org/2000/svg" xmlns:xlink="http://www.w3.org/1999/xlink" width="165.507" height="164.92" viewBox="0 0 165.507 164.92">
  <defs>
    <clipPath id="clip-path">
      <path id="Trazado_833610" data-name="Trazado 833610" d="M98.693,102.913,37.056,122.48,21.972,43.846l-.852-4.469,54.9-26.565a2.057,2.057,0,0,1,2.807,1.383l1.131,4.442,20.615,80.785a2.87,2.87,0,0,1-1.886,3.506Z" transform="translate(-21.12 -12.63)" fill="#fff" stroke="#1a2e35" stroke-linecap="round" stroke-linejoin="round" stroke-width="0.29"/>
    </clipPath>
    <clipPath id="clip-path-2">
      <path id="Trazado_833639" data-name="Trazado 833639" d="M72.321,43.61s-3.129,5.713-3.1,7,5.964,10.252,6.145,11.271S79.835,64.854,81.4,65.9s3.562-6.509,3.3-11.928S72.321,43.61,72.321,43.61Z" transform="translate(-69.22 -43.61)" fill="#fce7e1" stroke="#1a2e35" stroke-linecap="round" stroke-linejoin="round" stroke-width="0.29"/>
    </clipPath>
  </defs>
  <g id="Layer_1" data-name="Layer 1" transform="translate(0.003 0.008)">
    <g id="Grupo_1081036" data-name="Grupo 1081036" transform="translate(-0.003 -0.008)">
      <g id="Grupo_1081010" data-name="Grupo 1081010" opacity="0.66">
        <path id="Trazado_833593" data-name="Trazado 833593" d="M.979,91.892a43.351,43.351,0,0,1,2.3-25.727c4.609-11.383,14.5-19.484,25.588-24.2,16.118-6.858,31.929-7,45.03-20.434,4.036-4.148,7.43-8.9,11.551-12.961C97.616-3.419,115.438-1.966,128.735,7.531c27.752,19.819,37.725,59.053,36.189,91.5A53.551,53.551,0,0,1,146.277,136.7c-24.889,21.607-67.139,17.976-95.716,6.69C29.248,134.98,5.979,115.357.965,91.878Z" transform="translate(0.003 0.008)" fill="#fff"/>
        <path id="Trazado_833594" data-name="Trazado 833594" d="M.979,91.892a43.351,43.351,0,0,1,2.3-25.727c4.609-11.383,14.5-19.484,25.588-24.2,16.118-6.858,31.929-7,45.03-20.434,4.036-4.148,7.43-8.9,11.551-12.961C97.616-3.419,115.438-1.966,128.735,7.531c27.752,19.819,37.725,59.053,36.189,91.5A53.551,53.551,0,0,1,146.277,136.7c-24.889,21.607-67.139,17.976-95.716,6.69C29.248,134.98,5.979,115.357.965,91.878Z" transform="translate(0.003 0.008)" fill="#fff"/>
      </g>
      <g id="Grupo_1081013" data-name="Grupo 1081013" transform="translate(32.798 21.59)">
        <g id="Grupo_1081011" data-name="Grupo 1081011" transform="translate(0 0.964)">
          <line id="Línea_3394" data-name="Línea 3394" x1="1.397" transform="translate(93.383)" fill="none" stroke="#1a2e35" stroke-linejoin="round" stroke-width="0.29"/>
          <line id="Línea_3395" data-name="Línea 3395" x1="87.811" transform="translate(2.779)" fill="none" stroke="#1a2e35" stroke-linejoin="round" stroke-width="0.29" stroke-dasharray="0 0 2 2"/>
          <line id="Línea_3396" data-name="Línea 3396" x1="1.397" fill="none" stroke="#1a2e35" stroke-linejoin="round" stroke-width="0.29"/>
        </g>
        <g id="Grupo_1081012" data-name="Grupo 1081012" transform="translate(95.744 1.927)">
          <line id="Línea_3397" data-name="Línea 3397" y1="1.397" transform="translate(0 111.247)" fill="none" stroke="#1a2e35" stroke-linejoin="round" stroke-width="0.29"/>
          <line id="Línea_3398" data-name="Línea 3398" y1="105.618" transform="translate(0 2.807)" fill="none" stroke="#1a2e35" stroke-linejoin="round" stroke-width="0.29" stroke-dasharray="0 0 2.02 2.02"/>
          <line id="Línea_3399" data-name="Línea 3399" y1="1.397" fill="none" stroke="#1a2e35" stroke-linejoin="round" stroke-width="0.29"/>
        </g>
        <rect id="Rectángulo_379549" data-name="Rectángulo 379549" width="1.927" height="1.927" transform="translate(94.78)" fill="none" stroke="#1a2e35" stroke-linejoin="round" stroke-width="0.29"/>
      </g>
      <path id="Trazado_833595" data-name="Trazado 833595" d="M107.577,21.954,93.54,16.06,99.434,30.1l1.634-4.749,3.129,3.129,1.76-1.76-3.129-3.129Z" transform="translate(37.111 6.382)" fill="none" stroke="#1a2e35" stroke-linecap="round" stroke-linejoin="round" stroke-width="0.29"/>
      <g id="Grupo_1081017" data-name="Grupo 1081017" transform="translate(48.056 136.162)">
        <g id="Grupo_1081014" data-name="Grupo 1081014" transform="translate(52.111)">
          <path id="Trazado_833596" data-name="Trazado 833596" d="M89.181,112.617H75.326a2.159,2.159,0,0,1-2.053-1.774l-1.536-9.679a1.48,1.48,0,0,1,1.494-1.774H87.086a2.159,2.159,0,0,1,2.053,1.774l1.536,9.679A1.48,1.48,0,0,1,89.181,112.617Z" transform="translate(-71.714 -96.722)" fill="none" stroke="#1a2e35" stroke-linecap="round" stroke-linejoin="round" stroke-width="0.29"/>
          <path id="Trazado_833597" data-name="Trazado 833597" d="M88.631,113.374a1.776,1.776,0,0,0,1.774-1.774V100.692a1.769,1.769,0,0,0-1.648-1.76l-.433-1.1a.543.543,0,0,0-.5-.349H83.3a.543.543,0,0,0-.5.349l-.433,1.1H74.776a1.767,1.767,0,0,0-1.676,1.2" transform="translate(-71.165 -97.48)" fill="none" stroke="#1a2e35" stroke-linecap="round" stroke-linejoin="round" stroke-width="0.29"/>
        </g>
        <g id="Grupo_1081015" data-name="Grupo 1081015">
          <path id="Trazado_833598" data-name="Trazado 833598" d="M51.871,112.617H38.016a2.159,2.159,0,0,1-2.053-1.774l-1.536-9.679a1.48,1.48,0,0,1,1.494-1.774H49.776a2.159,2.159,0,0,1,2.053,1.774l1.536,9.679A1.48,1.48,0,0,1,51.871,112.617Z" transform="translate(-34.404 -96.722)" fill="none" stroke="#1a2e35" stroke-linecap="round" stroke-linejoin="round" stroke-width="0.29"/>
          <path id="Trazado_833599" data-name="Trazado 833599" d="M51.321,113.374A1.776,1.776,0,0,0,53.1,111.6V100.692a1.769,1.769,0,0,0-1.648-1.76l-.433-1.1a.543.543,0,0,0-.5-.349H45.986a.543.543,0,0,0-.5.349l-.433,1.1H37.466a1.767,1.767,0,0,0-1.676,1.2" transform="translate(-33.855 -97.48)" fill="none" stroke="#1a2e35" stroke-linecap="round" stroke-linejoin="round" stroke-width="0.29"/>
        </g>
        <g id="Grupo_1081016" data-name="Grupo 1081016" transform="translate(26.048)">
          <path id="Trazado_833600" data-name="Trazado 833600" d="M70.521,112.617H56.666a2.159,2.159,0,0,1-2.053-1.774l-1.536-9.679a1.48,1.48,0,0,1,1.494-1.774H68.426a2.159,2.159,0,0,1,2.053,1.774l1.536,9.679A1.48,1.48,0,0,1,70.521,112.617Z" transform="translate(-53.054 -96.722)" fill="none" stroke="#1a2e35" stroke-linecap="round" stroke-linejoin="round" stroke-width="0.29"/>
          <path id="Trazado_833601" data-name="Trazado 833601" d="M69.971,113.374a1.776,1.776,0,0,0,1.774-1.774V100.692a1.769,1.769,0,0,0-1.648-1.76l-.433-1.1a.543.543,0,0,0-.5-.349H64.636a.543.543,0,0,0-.5.349l-.433,1.1H56.116a1.767,1.767,0,0,0-1.676,1.2" transform="translate(-52.505 -97.48)" fill="none" stroke="#1a2e35" stroke-linecap="round" stroke-linejoin="round" stroke-width="0.29"/>
        </g>
      </g>
      <g id="Grupo_1081026" data-name="Grupo 1081026" transform="translate(22.463 8.472)">
        <path id="Trazado_833602" data-name="Trazado 833602" d="M92.815,39.3l3.757-4.637a4.552,4.552,0,0,0,.908-3.785L93.918,14.339a2.763,2.763,0,0,0-2.7-2.179h-6.9a4.568,4.568,0,0,0-1.439.237L16.08,39.759l16.928,87.88c2.374,3.562,69.151-19.512,69.151-19.512a4.493,4.493,0,0,0,2.947-5.293L91.446,45.318a6.973,6.973,0,0,1,1.369-6.02Z" transform="translate(-16.08 -3.637)" fill="#c59637" stroke="#1a2e35" stroke-linecap="round" stroke-linejoin="round" stroke-width="0.29"/>
        <path id="Trazado_833603" data-name="Trazado 833603" d="M81.819,13.564l21.132,90.59s-71.469,26.621-68.1,18.381c0,0-17.012-80.925-15.573-81.232S81.819,13.55,81.819,13.55Z" transform="translate(-14.847 -3.086)" opacity="0.3"/>
        <g id="Grupo_1081019" data-name="Grupo 1081019" transform="translate(7.039 9.179)">
          <path id="Trazado_833604" data-name="Trazado 833604" d="M98.693,102.913,37.056,122.48,21.972,43.846l-.852-4.469,54.9-26.565a2.057,2.057,0,0,1,2.807,1.383l1.131,4.442,20.615,80.785a2.87,2.87,0,0,1-1.886,3.506Z" transform="translate(-21.12 -12.63)" fill="#fff"/>
          <g id="Grupo_1081018" data-name="Grupo 1081018" clip-path="url(#clip-path)">
            <path id="Trazado_833605" data-name="Trazado 833605" d="M79.967,18.622,22.409,44.964l-1.3-5.6L76.028,12.812a2.057,2.057,0,0,1,2.807,1.383l1.131,4.442Z" transform="translate(-21.124 -12.63)" fill="#1a2e35"/>
            <path id="Trazado_833606" data-name="Trazado 833606" d="M61.9,15.971a1.268,1.268,0,0,1-1.271,1.369,1.494,1.494,0,0,1-1.271-1.55,1.268,1.268,0,0,1,1.271-1.369A1.494,1.494,0,0,1,61.9,15.971Z" transform="translate(-5.95 -11.92)" fill="#6e524b" stroke="#1a2e35" stroke-linecap="round" stroke-linejoin="round" stroke-width="0.29"/>
            <path id="Trazado_833607" data-name="Trazado 833607" d="M59.5,17.1a1.183,1.183,0,0,1-1.187,1.271,1.386,1.386,0,0,1-1.187-1.439,1.175,1.175,0,0,1,1.187-1.271A1.386,1.386,0,0,1,59.5,17.1Z" transform="translate(-6.835 -11.429)" fill="#6e524b" stroke="#1a2e35" stroke-linecap="round" stroke-linejoin="round" stroke-width="0.29"/>
            <path id="Trazado_833608" data-name="Trazado 833608" d="M57.237,18.081a1.1,1.1,0,0,1-1.1,1.187,1.292,1.292,0,0,1-1.1-1.341,1.1,1.1,0,0,1,1.1-1.187A1.292,1.292,0,0,1,57.237,18.081Z" transform="translate(-7.668 -11)" fill="#6e524b" stroke="#1a2e35" stroke-linecap="round" stroke-linejoin="round" stroke-width="0.29"/>
            <path id="Trazado_833609" data-name="Trazado 833609" d="M98.693,102.913,37.056,122.48,21.972,43.846l-.852-4.469,54.9-26.565a2.057,2.057,0,0,1,2.807,1.383l1.131,4.442,20.615,80.785a2.87,2.87,0,0,1-1.886,3.506Z" transform="translate(-21.12 -12.63)" opacity="0.3"/>
          </g>
          <path id="Trazado_833611" data-name="Trazado 833611" d="M98.693,102.913,37.056,122.48,21.972,43.846l-.852-4.469,54.9-26.565a2.057,2.057,0,0,1,2.807,1.383l1.131,4.442,20.615,80.785a2.87,2.87,0,0,1-1.886,3.506Z" transform="translate(-21.12 -12.63)" fill="none" stroke="#1a2e35" stroke-linecap="round" stroke-linejoin="round" stroke-width="0.29"/>
        </g>
        <g id="Grupo_1081021" data-name="Grupo 1081021" transform="translate(4.428 6.824)">
          <path id="Trazado_833612" data-name="Trazado 833612" d="M95.789,99.7l-60.8,23.87L20.1,46l-.852-4.414L73.414,11.19a1.89,1.89,0,0,1,2.765,1.187L77.3,16.735,97.633,96.081a3.084,3.084,0,0,1-1.858,3.631Z" transform="translate(-19.25 -10.944)" fill="#fff" stroke="#1a2e35" stroke-linecap="round" stroke-linejoin="round" stroke-width="0.29"/>
          <path id="Trazado_833613" data-name="Trazado 833613" d="M77.311,16.735,20.535,47.1,19.25,41.6,73.414,11.19a1.89,1.89,0,0,1,2.765,1.187L77.3,16.735Z" transform="translate(-19.25 -10.944)" fill="#1a2e35"/>
          <path id="Trazado_833614" data-name="Trazado 833614" d="M59.494,14.243a1.27,1.27,0,1,1-2.514,0,1.27,1.27,0,1,1,2.514,0Z" transform="translate(-4.282 -10.211)" fill="#6e524b" stroke="#1a2e35" stroke-linecap="round" stroke-linejoin="round" stroke-width="0.29"/>
          <path id="Trazado_833615" data-name="Trazado 833615" d="M57.126,15.545a1.185,1.185,0,1,1-2.346,0,1.185,1.185,0,1,1,2.346,0Z" transform="translate(-5.155 -9.656)" fill="#6e524b" stroke="#1a2e35" stroke-linecap="round" stroke-linejoin="round" stroke-width="0.29"/>
          <path id="Trazado_833616" data-name="Trazado 833616" d="M54.889,16.691A1.1,1.1,0,1,1,53.8,15.42,1.194,1.194,0,0,1,54.889,16.691Z" transform="translate(-5.976 -9.168)" fill="#6e524b" stroke="#1a2e35" stroke-linecap="round" stroke-linejoin="round" stroke-width="0.29"/>
          <path id="Trazado_833617" data-name="Trazado 833617" d="M61.029,16.575l17.906,70.1a.614.614,0,0,1-.349.712l-1.634.726a.6.6,0,0,1-.824-.405L58.7,18a.836.836,0,0,1,.391-.922l1.341-.754a.393.393,0,0,1,.573.251Z" transform="translate(-3.611 -8.829)" opacity="0.3"/>
          <path id="Trazado_833618" data-name="Trazado 833618" d="M59.383,18.12l.992-.545a.7.7,0,0,1,1.02.447l1.83,7.347a.835.835,0,0,1-.419.936l-1.2.642a.516.516,0,0,1-.74-.321l-1.886-7.57a.808.808,0,0,1,.405-.922Z" transform="translate(-3.501 -8.348)" fill="#bfbfbf" stroke="#1a2e35" stroke-linecap="round" stroke-linejoin="round" stroke-width="0.29"/>
          <line id="Línea_3400" data-name="Línea 3400" x1="39.163" y2="16.132" transform="translate(25.657 88.266)" fill="none" stroke="#000" stroke-linecap="round" stroke-linejoin="round" stroke-width="0.57" opacity="0.4"/>
          <line id="Línea_3401" data-name="Línea 3401" x1="49.75" y2="21.048" transform="translate(20.364 83.35)" fill="none" stroke="#000" stroke-linecap="round" stroke-linejoin="round" stroke-width="0.57" opacity="0.4"/>
          <g id="Grupo_1081020" data-name="Grupo 1081020" transform="translate(42.376 10.68)">
            <path id="Trazado_833619" data-name="Trazado 833619" d="M70.179,60.322,66.17,43.24l-10.88,5.2,3.967,17.026Z" transform="translate(-47.329 -8.811)" fill="#cadeb4"/>
            <path id="Trazado_833620" data-name="Trazado 833620" d="M52.11,34.987,55.9,51.16l10.852-5.266L62.865,29.33Z" transform="translate(-48.59 -14.329)" fill="#c1cdf5"/>
            <path id="Trazado_833621" data-name="Trazado 833621" d="M63.515,32.124,60.331,18.59,49.59,24.219l3.184,13.6Z" transform="translate(-49.59 -18.59)" fill="#f9bcab"/>
            <path id="Trazado_833622" data-name="Trazado 833622" d="M58.42,61.742,62.079,77.4l11.006-4.819-3.7-15.741Z" transform="translate(-46.087 -3.416)" fill="#f1ece6"/>
          </g>
        </g>
        <g id="Grupo_1081025" data-name="Grupo 1081025">
          <path id="Trazado_833623" data-name="Trazado 833623" d="M16.08,42.179l16.928,87.88c5.419-6.187,44.108-34.526,44.108-34.526a9.276,9.276,0,0,0,3.6-9.581L62.8,9.134a3.946,3.946,0,0,0-6.467-2.081S20.354,29.665,16.08,42.166Z" transform="translate(-16.08 -6.058)" fill="#c59637" stroke="#1a2e35" stroke-linecap="round" stroke-linejoin="round" stroke-width="0.29"/>
          <g id="Grupo_1081024" data-name="Grupo 1081024" transform="translate(4.882 1.12)">
            <g id="Grupo_1081022" data-name="Grupo 1081022" transform="translate(54.672 75.491)" opacity="0.7">
              <path id="Trazado_833624" data-name="Trazado 833624" d="M60.746,66.944a1.134,1.134,0,0,1-1.1-.866c-.307-1.257-.6-2.514-.894-3.771a1.14,1.14,0,0,1,2.221-.517c.293,1.257.587,2.5.894,3.757a1.126,1.126,0,0,1-.838,1.369.859.859,0,0,1-.265.028Z" transform="translate(-58.719 -60.909)" fill="#f1b846"/>
            </g>
            <g id="Grupo_1081023" data-name="Grupo 1081023" opacity="0.7">
              <path id="Trazado_833625" data-name="Trazado 833625" d="M73.955,78.287a1.134,1.134,0,0,1-1.1-.88L57.335,9.262a.143.143,0,0,0-.084-.1.174.174,0,0,0-.126,0c-3.981,2.654-17.473,11.7-23.716,16.691A83.472,83.472,0,0,0,21.593,38.188a1.132,1.132,0,1,1-1.76-1.425A85.214,85.214,0,0,1,31.985,24.1c6.159-4.93,18.772-13.408,23.9-16.83A2.416,2.416,0,0,1,58.1,7.028a2.386,2.386,0,0,1,1.453,1.7L75.073,76.877a1.125,1.125,0,0,1-.852,1.355,1.539,1.539,0,0,1-.251.028Z" transform="translate(-19.575 -6.86)" fill="#f1b846"/>
            </g>
          </g>
        </g>
      </g>
      <g id="Grupo_1081028" data-name="Grupo 1081028" transform="translate(4.697 55.341)">
        <path id="Trazado_833626" data-name="Trazado 833626" d="M35.163,149.15c-.531-4.819-1.257-11.509-1.886-17.892-.908-9.3-1.62-17.92-1.229-19.023a10.724,10.724,0,0,0,.7-4.26c1.9-.21,2.751-2.793,2.751-2.793l-1.02-9.093s.629-17.417-.14-22.361-3.953-8.268-4.022-9.581,2.472-7.109,3.31-8.757.349-10.978-.992-13.9a2.951,2.951,0,0,0-1.522-1.578A4.236,4.236,0,0,0,28.068,40,25.89,25.89,0,0,1,24.59,51.7h0c-1.313,2.277-2.514,3.743-2.738,4.944-.461,2.57-6.132,9.2-7.207,12.626s-1.411,15.084-3.1,19.68C10.749,91.117,7.9,98,7.159,119.023a180.726,180.726,0,0,1-3.8,30.155H35.177Z" transform="translate(-3.36 -39.599)" fill="#fce7e1"/>
        <path id="Trazado_833627" data-name="Trazado 833627" d="M29.069,55.391c-.838,1.662-3.38,7.444-3.31,8.757S29,68.785,29.782,73.73s.14,22.361.14,22.361l1.02,9.093s-.852,2.584-2.751,2.793a10.724,10.724,0,0,1-.7,4.26c-.391,1.089.321,9.707,1.229,19.023-.95-4.023-1.732-7.123-1.732-7.123s-.419,4.944-.95,8.855-1.83,9.456-1.83,9.456-2.849-26.873-2.193-31.356,2.291-3.757,1.034-5.908-8.939-4.009-8.185-5.629c.74-1.592,6.746,1.257,7,1.369-.21-.168-3.534-2.835-3.506-4.064.028-1.271,5.349,1.983,5.349,1.983a17.754,17.754,0,0,0,3.841-3.184c1.62-1.872-.782-19.721-1.243-21.006s-3.31-1.1-4.134-2.179,1.425-1.55.992-3.184-1.606-1.494-1.606-1.494,1.872-2.738,1.7-5.126,2.933-5.266,2.71-7c-.866-6.7-4.861-2.081-5.95-3.995h0A25.957,25.957,0,0,0,23.5,39.957a4.236,4.236,0,0,1,3.045-.084,3,3,0,0,1,1.522,1.578c1.355,2.919,1.83,12.235.992,13.9Z" transform="translate(1.183 -39.614)" fill="#fce7e1" opacity="0.4"/>
        <g id="Grupo_1081027" data-name="Grupo 1081027" transform="translate(1.285 0.044)">
          <path id="Trazado_833628" data-name="Trazado 833628" d="M4.28,142.449A175.229,175.229,0,0,0,6.794,119c.754-21.006,3.6-27.906,4.4-30.057,1.676-4.6,2.025-16.258,3.1-19.68S21.026,59.205,21.5,56.635s5.517-6.411,6.215-16.649c0,0,3.212-1.411,4.567,1.508s1.83,12.235.992,13.9-3.38,7.444-3.31,8.757,3.24,4.637,4.023,9.581.14,22.375.14,22.375l1.02,9.093s-.852,2.6-2.738,2.793a10.725,10.725,0,0,1-.7,4.26c-.6,1.69,1.425,21.453,2.779,33.842" transform="translate(-4.28 -39.646)" fill="#fce7e1" stroke="#1a2e35" stroke-linecap="round" stroke-linejoin="round" stroke-width="0.29"/>
          <path id="Trazado_833629" data-name="Trazado 833629" d="M23.487,57.18s-1.006,2.793-2.947,2.779" transform="translate(2.17 -32.69)" fill="#fce7e1" stroke="#1a2e35" stroke-linecap="round" stroke-linejoin="round" stroke-width="0.29"/>
          <path id="Trazado_833630" data-name="Trazado 833630" d="M22.618,58.08s.587,3.394-1.508,5.545" transform="translate(2.396 -32.333)" fill="#fce7e1" stroke="#1a2e35" stroke-linecap="round" stroke-linejoin="round" stroke-width="0.29"/>
          <path id="Trazado_833631" data-name="Trazado 833631" d="M17.11,50.644a6.439,6.439,0,0,1,3.827.419" transform="translate(0.81 -35.331)" fill="#fce7e1" stroke="#1a2e35" stroke-linecap="round" stroke-linejoin="round" stroke-width="0.29"/>
          <path id="Trazado_833632" data-name="Trazado 833632" d="M15.94,82.96s7.64,2.4,8.855,3.617a28.006,28.006,0,0,1,2.961,4.232" transform="translate(0.346 -22.463)" fill="#fce7e1" stroke="#1a2e35" stroke-linecap="round" stroke-linejoin="round" stroke-width="0.29"/>
          <path id="Trazado_833633" data-name="Trazado 833633" d="M20.21,82.12c1.117,1.257,3.631,2.71,4.819,3.827A8.792,8.792,0,0,1,26.8,89.564" transform="translate(2.039 -22.797)" fill="#fce7e1" stroke="#1a2e35" stroke-linecap="round" stroke-linejoin="round" stroke-width="0.29"/>
          <path id="Trazado_833634" data-name="Trazado 833634" d="M23.81,82.735a6.214,6.214,0,0,0,2.668-3.645" transform="translate(3.468 -23.999)" fill="#fce7e1" stroke="#1a2e35" stroke-linecap="round" stroke-linejoin="round" stroke-width="0.29"/>
          <path id="Trazado_833635" data-name="Trazado 833635" d="M22.729,88.99c-1.676.838-1.718,10.447-.838,21.314" transform="translate(2.481 -20.071)" fill="#fce7e1" stroke="#1a2e35" stroke-linecap="round" stroke-linejoin="round" stroke-width="0.29"/>
          <path id="Trazado_833636" data-name="Trazado 833636" d="M22.96,90.41c.014,1.061,1.439,9.162,2.1,15.978" transform="translate(3.13 -19.508)" fill="#fce7e1" stroke="#1a2e35" stroke-linecap="round" stroke-linejoin="round" stroke-width="0.29"/>
        </g>
      </g>
      <g id="Grupo_1081035" data-name="Grupo 1081035" transform="translate(89.268 37.819)">
        <g id="Grupo_1081031" data-name="Grupo 1081031" transform="translate(7.415 23.102)">
          <g id="Grupo_1081030" data-name="Grupo 1081030">
            <path id="Trazado_833637" data-name="Trazado 833637" d="M72.321,43.61s-3.129,5.713-3.1,7,5.964,10.252,6.145,11.271S79.835,64.854,81.4,65.9s3.562-6.509,3.3-11.928S72.321,43.61,72.321,43.61Z" transform="translate(-69.22 -43.61)" fill="#fce7e1"/>
            <g id="Grupo_1081029" data-name="Grupo 1081029" clip-path="url(#clip-path-2)">
              <path id="Trazado_833638" data-name="Trazado 833638" d="M72.321,43.61s-3.129,5.713-3.1,7,5.964,10.252,6.145,11.271S79.835,64.854,81.4,65.9s3.562-6.509,3.3-11.928S72.321,43.61,72.321,43.61Z" transform="translate(-69.22 -43.61)" fill="#fce7e1" opacity="0.5"/>
            </g>
            <path id="Trazado_833640" data-name="Trazado 833640" d="M72.321,43.61s-3.129,5.713-3.1,7,5.964,10.252,6.145,11.271S79.835,64.854,81.4,65.9s3.562-6.509,3.3-11.928S72.321,43.61,72.321,43.61Z" transform="translate(-69.22 -43.61)" fill="none" stroke="#1a2e35" stroke-linecap="round" stroke-linejoin="round" stroke-width="0.29"/>
          </g>
          <path id="Trazado_833641" data-name="Trazado 833641" d="M72.98,51.283s3.073-1.4,6.411,2.332" transform="translate(-67.728 -40.668)" fill="#fce7e1" stroke="#1a2e35" stroke-linecap="round" stroke-linejoin="round" stroke-width="0.29"/>
        </g>
        <g id="Grupo_1081034" data-name="Grupo 1081034">
          <path id="Trazado_833642" data-name="Trazado 833642" d="M139.914,113.889l-18.758,21.16s-3.087-3.841-6.942-8.534c-5.475-6.662-12.528-15.056-14.512-16.579-2.43-1.872-18.241-12.682-22.613-18.031-.629-.768-1.173-1.453-1.648-2.067h0c-2.891-3.715-3.464-5.307-4.888-10.5-1.676-6.062-3.506-9.414-3.981-11.648a1.114,1.114,0,0,0-.042-.21C66.057,64.991,65.2,57.5,64.1,55.6c-1.131-1.955,3.366-2.905,5.084-1.816s5.992,6.4,5.726,10.964c0,0,3.366,8.282,5.07,8.059,0,0-.223-8.3-1.355-10.322a6.655,6.655,0,0,1-.88-3.031,3.443,3.443,0,0,1,.028-.768s-5.293-5.7-6.844-9.539-4.6-9.749-5.182-15.5c0,0-.684-4.134,1.816-6.006.95-.712,1.83-.922,2.724.321A9.846,9.846,0,0,1,71.406,30.3C75.163,40.884,79.8,44.948,79.8,44.948a35.848,35.848,0,0,1,5.307,1.83,9.888,9.888,0,0,1,1.089.642h0c.978.67,2.179,1.62,3.422,2.57,1.788,1.355,3.631,2.668,5.028,2.961a14.558,14.558,0,0,1,7.179,3.52,4.712,4.712,0,0,1,4.93,2.319c1.648,2.905,2.57,3.478,2.57,3.478.028,0,1.215,0,2.193,2.151,1.718,3.757,6.9,23.814,7.151,24.624,2.081,6.634,8.268,13.744,15.35,19.987h0c1.927,1.7,3.925,3.324,5.922,4.874Z" transform="translate(-63.907 -27.07)" fill="#fce7e1"/>
          <g id="Grupo_1081032" data-name="Grupo 1081032" transform="translate(0 0.881)">
            <path id="Trazado_833643" data-name="Trazado 833643" d="M79.86,41.64Z" transform="translate(-57.584 -22.17)" fill="#fce7e1" opacity="0.4"/>
            <path id="Trazado_833644" data-name="Trazado 833644" d="M90.277,55.3s-5.6-1.006-6.718-3.562-5.8-7.975-6.914-8.324a1.775,1.775,0,0,0-1.83.433s-1.941-3.073-3.408-5.726c-1.383-2.514-8.255-10.07-2.249-10.419a9.846,9.846,0,0,1,1.117,2.332c3.757,10.587,8.394,14.651,8.394,14.651a35.849,35.849,0,0,1,5.307,1.83,9.886,9.886,0,0,1,1.089.642c-.14-.028-2.388-.587-1.941.559.447,1.187,4.106,4.5,6.034,5.95S90.291,55.3,90.291,55.3Z" transform="translate(-62.791 -27.7)" fill="#fce7e1" opacity="0.4"/>
            <path id="Trazado_833645" data-name="Trazado 833645" d="M126.693,102.512c-3.171-1.732-7.961-4.6-9.553-6.858-2.472-3.478-4.3-5.21-5.936-7.221s-4.749-3.645-4.022-3.38,4.022,1.411,4.022,1.411a31.883,31.883,0,0,1-4.386-8.171c-1.913-5.112-5.405-23.115-8-25.113s0,17.654,0,17.654a58.086,58.086,0,0,1-3.687-11.984c-1.187-6.453-2.277-9.623-3.673-10.5s-4.092.964-4.819,0,.1-1.327-4.316-4.888c1.788,1.355,3.631,2.668,5.028,2.961a14.558,14.558,0,0,1,7.179,3.52,4.712,4.712,0,0,1,4.93,2.319c1.648,2.905,2.57,3.478,2.57,3.478.028,0,1.215,0,2.193,2.151,1.718,3.757,6.9,23.814,7.151,24.624,2.081,6.634,8.268,13.744,15.35,19.987Z" transform="translate(-56.608 -21.448)" fill="#fce7e1" opacity="0.4"/>
            <path id="Trazado_833646" data-name="Trazado 833646" d="M81.829,69.162c-.21,1.215-1.718-2.332-1.844-1.788s-.545,2.346-.573,1.788-3.226-2.332-3.771-4.986a25.029,25.029,0,0,0-1.187-4.455c-.279-.67-.768.447-.8-1.159-.028-1.439-4.665-2.961-7.137,1.467-.475-2.486-1.327-9.972-2.43-11.872-1.131-1.955,3.366-2.905,5.084-1.816s5.992,6.4,5.726,10.964c0,0,3.366,8.282,5.07,8.059,0,0-.223-8.3-1.355-10.322a6.655,6.655,0,0,1-.88-3.031l1.676.223c.447.992-.433,2.4,0,3.115s3.129,5.908,2.235,8.6.391,4.022.182,5.224Z" transform="translate(-63.911 -20.487)" fill="#fce7e1" opacity="0.4"/>
            <path id="Trazado_833647" data-name="Trazado 833647" d="M110.952,108.7c-5.475-6.662-12.528-15.056-14.512-16.579C94.01,90.247,78.2,79.436,73.828,74.087c-.629-.768-1.173-1.453-1.648-2.067a20.59,20.59,0,0,0,6.411,5c2.193,1.187,8.548,2.207,12.975,7.025,2.151,2.332,3.38,4.036,6.034,6.956s6.481,3.115,8.771,7.137a103.568,103.568,0,0,1,4.6,10.559Z" transform="translate(-60.631 -10.118)" fill="#fce7e1" opacity="0.4"/>
          </g>
          <g id="Grupo_1081033" data-name="Grupo 1081033" transform="translate(0.028 0.018)">
            <path id="Trazado_833648" data-name="Trazado 833648" d="M121.166,135.058s-18.059-22.5-21.453-25.113c-2.43-1.872-18.241-12.682-22.613-18.031s-4.874-6.509-6.537-12.57-3.506-9.4-3.981-11.648-1.341-10.126-2.472-12.081S67.477,52.709,69.2,53.8s5.992,6.4,5.726,10.964c0,0,3.366,8.282,5.07,8.059,0,0-.223-8.3-1.369-10.322a6.3,6.3,0,0,1-.852-3.8s-5.294-5.7-6.844-9.539-4.6-9.749-5.182-15.5c0,0-.684-4.134,1.83-6.006,1.355-1.006,2.542-.992,3.841,2.654,3.757,10.587,8.394,14.651,8.394,14.651a35.848,35.848,0,0,1,5.307,1.83c2.235,1.048,6.788,5.573,9.539,6.173a14.7,14.7,0,0,1,7.179,3.52,4.712,4.712,0,0,1,4.93,2.319c1.648,2.905,2.556,3.478,2.556,3.478s1.2,0,2.193,2.137c1.732,3.757,6.9,23.814,7.151,24.624,2.654,8.436,11.956,17.668,21.272,24.861" transform="translate(-63.931 -27.082)" fill="#fce7e1" stroke="#1a2e35" stroke-linecap="round" stroke-linejoin="round" stroke-width="0.29"/>
            <path id="Trazado_833649" data-name="Trazado 833649" d="M75.28,39.86s4.6,6.355,7.808,7.57" transform="translate(-59.429 -22.013)" fill="#fce7e1" stroke="#1a2e35" stroke-linecap="round" stroke-linejoin="round" stroke-width="0.29"/>
            <path id="Trazado_833650" data-name="Trazado 833650" d="M80.69,46.29c3.1.992,5.1,1.578,5.657,3.911s2.221,7.612,3.017,9.679,2.71,7.319,2.71,7.319" transform="translate(-57.283 -19.463)" fill="#fce7e1" stroke="#1a2e35" stroke-linecap="round" stroke-linejoin="round" stroke-width="0.29"/>
            <path id="Trazado_833651" data-name="Trazado 833651" d="M75.42,59.82s2.109,2.738,1.592,5.419" transform="translate(-59.373 -14.095)" fill="#fce7e1" stroke="#1a2e35" stroke-linecap="round" stroke-linejoin="round" stroke-width="0.29"/>
            <path id="Trazado_833652" data-name="Trazado 833652" d="M74.781,59.5a15.686,15.686,0,0,0,.656,4.972" transform="translate(-59.628 -14.222)" fill="#fce7e1" stroke="#1a2e35" stroke-linecap="round" stroke-linejoin="round" stroke-width="0.29"/>
            <path id="Trazado_833653" data-name="Trazado 833653" d="M73.84,49.71s1.69.908,2.1,1.983" transform="translate(-60 -18.106)" fill="#fce7e1" stroke="#1a2e35" stroke-linecap="round" stroke-linejoin="round" stroke-width="0.29"/>
            <path id="Trazado_833654" data-name="Trazado 833654" d="M74.72,53.15a12.661,12.661,0,0,0,1.564,2.542c.81.894,1.2,3.813,1.2,3.813" transform="translate(-59.651 -16.741)" fill="#fce7e1" stroke="#1a2e35" stroke-linecap="round" stroke-linejoin="round" stroke-width="0.29"/>
            <path id="Trazado_833655" data-name="Trazado 833655" d="M65.82,56.822s1.816-2.053,3.7-2.332" transform="translate(-63.182 -16.21)" fill="#fce7e1" stroke="#1a2e35" stroke-linecap="round" stroke-linejoin="round" stroke-width="0.29"/>
            <path id="Trazado_833656" data-name="Trazado 833656" d="M72,39.829s2.123-1.592,3.729-.489" transform="translate(-60.73 -22.374)" fill="#fce7e1" stroke="#1a2e35" stroke-linecap="round" stroke-linejoin="round" stroke-width="0.29"/>
            <path id="Trazado_833657" data-name="Trazado 833657" d="M97.26,55.96c.419,1.159,2.6,11.635,3.143,13.129" transform="translate(-50.709 -15.626)" fill="#fce7e1" stroke="#1a2e35" stroke-linecap="round" stroke-linejoin="round" stroke-width="0.29"/>
            <path id="Trazado_833658" data-name="Trazado 833658" d="M86.64,47.526a3.93,3.93,0,0,1,4.5.321c2.5,1.746,2.5,2.6,4.036,2.179a2.611,2.611,0,0,1,2.556.852" transform="translate(-54.922 -19.19)" fill="#fce7e1" stroke="#1a2e35" stroke-linecap="round" stroke-linejoin="round" stroke-width="0.29"/>
            <path id="Trazado_833659" data-name="Trazado 833659" d="M92.4,52.65c.391,2.346,2.1,13.855,2.905,16.732" transform="translate(-52.637 -16.939)" fill="#fce7e1" stroke="#1a2e35" stroke-linecap="round" stroke-linejoin="round" stroke-width="0.29"/>
          </g>
        </g>
      </g>
    </g>
  </g>
</svg>
