<svg xmlns="http://www.w3.org/2000/svg" width="62" height="62" viewBox="0 0 62 62">
  <g id="Grupo_1081042" data-name="Grupo 1081042" transform="translate(-1182 -13506)">
    <path id="Unión_17" data-name="Unión 17" d="M31,0A31,31,0,1,1,0,31,31,31,0,0,1,31,0Z" transform="translate(1182 13506)" fill="#cadeb4"/>
    <g id="_30" data-name="30" transform="translate(1193 13518)">
      <g id="Grupo_1081041" data-name="Grupo 1081041" transform="translate(0 0)">
        <path id="Trazado_833669" data-name="Trazado 833669" d="M163.782,192.939h-1.23v-.827a6.15,6.15,0,0,0,3.075-5.322v-4.8l1.2-2.966.006-.018v0l0-.007c.005-.016.011-.032.015-.048s0-.01,0-.015.006-.029.008-.044l0-.018c0-.014,0-.027,0-.041v-.059c0-.008,0-.015,0-.024s0-.024,0-.035,0-.016,0-.025,0-.022-.007-.033l-.007-.025-.009-.032-.009-.025c0-.01-.008-.02-.012-.029s-.008-.017-.012-.025l-.014-.027-.015-.025-.016-.025-.018-.025-.018-.022a.321.321,0,0,0-.022-.024l-.018-.018-.025-.023-.019-.016-.029-.022-.02-.014a.259.259,0,0,0-.032-.018l-.022-.012-.032-.015-.016-.008-.009,0-.012-.005-6.692-2.429a.644.644,0,0,0-.564,0l-6.7,2.43-.006,0-.015.005-.027.012-.016.008-.038.02-.017.01-.034.023-.016.012-.031.026-.015.013c-.01.009-.019.019-.028.029l-.012.013-.026.033-.01.013c-.008.012-.016.024-.024.036l-.008.013c-.008.013-.014.026-.021.039l-.006.013c-.006.014-.012.028-.017.042l0,.012c-.005.015-.009.029-.013.044l0,.012q-.006.023-.009.046a.085.085,0,0,1,0,.012c0,.015,0,.032,0,.048v.072q0,.025,0,.051a.019.019,0,0,0,0,.009c0,.018.006.035.01.052s0,.005,0,.008.01.035.016.052a.011.011,0,0,0,0,0v0l.006.018,1.181,2.929v4.871c0,.01,0,.021,0,.031a6.153,6.153,0,0,0,3.073,5.261v.827h-1.24a3.692,3.692,0,0,0-3.669,3.642c0,.016,0,.032,0,.049v1.7a.6.6,0,0,0-.018.142,1.231,1.231,0,0,0,1.23,1.23h13.54a.566.566,0,0,0,.063,0,1.23,1.23,0,0,0,1.164-1.164.57.57,0,0,0,0-.063V196.63a3.694,3.694,0,0,0-3.69-3.69Zm2.46,3.69v1.844h-5.021l-.474-2.373.477-.954.97-.976h1.589A2.463,2.463,0,0,1,166.242,196.63Zm-6.764-1.774.413.2-.169.338h-.474l-.169-.341.4-.2Zm-.107,1.773h.226l.369,1.845H159l.366-1.845Zm3.549-11.685h-6.872l-.618-.614h8.1Zm-3.437-7.953,5.958,2.162-.846,2.1H154.371l-.846-2.1,5.958-2.162Zm-4.928,5.492h9.84v.617h-9.84Zm0,4.308v-1.6l.8.8a.628.628,0,0,0,.1.084l.008,0a.489.489,0,0,0,.043.025l.015.007.039.018.018.007.038.013.022.005.036.008.029,0,.03,0a.525.525,0,0,0,.061,0h7.381a.521.521,0,0,0,.06,0l.041-.006.018,0c.018,0,.035-.008.052-.013a.006.006,0,0,0,0,0,.609.609,0,0,0,.264-.16l.779-.783v1.586a4.922,4.922,0,0,1-2.7,4.39.645.645,0,0,0-.065.033,4.919,4.919,0,0,1-7.071-4.423Zm4.919,6.149a6.121,6.121,0,0,0,1.846-.283v.645l-.729.735-.842-.417h0c-.018-.008-.036-.017-.055-.024h0a.607.607,0,0,0-.493.027l-.825.416-.743-.736v-.641a6.135,6.135,0,0,0,1.844.283Zm-4.295,1.23h1.582l.988.98.471.95-.471,2.374h-5.032v-1.82c0-.008,0-.016,0-.024A2.463,2.463,0,0,1,155.18,194.169Z" transform="translate(-139.805 -162.185)" fill="#455b2d"/>
        <path id="Trazado_833670" data-name="Trazado 833670" d="M248.268,216.871a.615.615,0,0,0,0-1.231h-.007a.615.615,0,0,0,.007,1.231Z" transform="translate(-228.578 -199.033)" fill="#455b2d"/>
        <path id="Trazado_833671" data-name="Trazado 833671" d="M361.092,172.042a.607.607,0,0,0-.065,0h-1.164v-.668a4.919,4.919,0,0,0,2.461-4.257c0-.008,0-.016,0-.024v-2.282a.014.014,0,0,1,0,0l.6-2.449,0-.006,0,0,0-.012c0-.016.007-.032.009-.048s0-.011,0-.016,0-.029,0-.044v-.06a.245.245,0,0,0,0-.025c0-.012,0-.023,0-.035l0-.026c0-.011,0-.022-.007-.032l-.007-.024c0-.011-.006-.022-.01-.033a.158.158,0,0,0-.008-.02c0-.012-.009-.024-.015-.035l-.008-.015a.363.363,0,0,0-.021-.038l-.007-.01a.458.458,0,0,0-.027-.04l0-.006c-.011-.014-.022-.028-.033-.041l0,0a.475.475,0,0,0-.039-.039l0,0a.516.516,0,0,0-.045-.037h0c-.015-.012-.032-.022-.049-.033h0a.581.581,0,0,0-.1-.049l-4.92-1.845a.61.61,0,0,0-.252-.037h0c-.019,0-.038,0-.058.006l-.008,0c-.018,0-.035.006-.052.011l-.012,0-.047.015,0,0-4.912,1.842h0l-.008,0-.015.007-.039.017-.017.009-.036.02-.018.012-.031.022-.021.017-.025.021-.022.022-.02.021-.02.025-.017.022-.018.026-.015.023a.294.294,0,0,0-.015.027.27.27,0,0,0-.013.026l-.012.026-.012.028c0,.008-.005.018-.008.026s-.006.02-.008.03,0,.018-.006.028,0,.02-.005.03,0,.021,0,.032,0,.018,0,.027v.06c0,.015,0,.031,0,.046a.068.068,0,0,0,0,.013.455.455,0,0,0,.011.055.016.016,0,0,0,0,.005v0l0,.011.585,2.373v2.384c0,.017,0,.033,0,.05a4.92,4.92,0,0,0,2.457,4.2v.67h-1.164a.622.622,0,0,0-.066,0,2.463,2.463,0,0,0-2.46,2.46v3.079a.615.615,0,0,0,.615.615h11.07a.615.615,0,0,0,.615-.615V174.5a2.463,2.463,0,0,0-2.46-2.46Zm-1.475-6.148h-4.411l-.618-.615h5.642Zm-2.2-4.879,4.192,1.572-.36,1.461h-7.666l-.359-1.46Zm-3.7,6.1c0-.008,0-.016,0-.024v-.953l.8.8a.514.514,0,0,0,.052.048l.008.007.039.029.022.014.029.017.026.012.029.013.026.009.031.011.026.007.032.008.031,0,.029,0a.529.529,0,0,0,.061,0h4.92a.525.525,0,0,0,.06,0l.041-.006.018,0c.018,0,.035-.008.052-.013a.006.006,0,0,0,0,0,.609.609,0,0,0,.264-.16l.779-.784v.967a.1.1,0,0,0,0,.015,3.69,3.69,0,0,1-7.38-.017Zm3.69,4.918a4.9,4.9,0,0,0,1.229-.156v.635l-.268.545-.677-.338-.012-.005-.03-.013-.027-.011-.029-.009-.028-.008-.031-.007-.026,0-.038,0-.019,0h-.057a.462.462,0,0,0-.056,0h0a.618.618,0,0,0-.2.059l-.685.342-.281-.553v-.631a4.918,4.918,0,0,0,1.231.156Zm-3.727,1.236.035,0h1.467l.454.893c.009.018.02.034.03.05s.009.016.015.024.015.019.023.029.021.027.032.039l.011.01a.625.625,0,0,0,.195.134l.005,0a.633.633,0,0,0,.073.025l.032.007c.017,0,.033.008.05.01a.607.607,0,0,0,.084.005c.023,0,.046,0,.069,0l.028,0a.41.41,0,0,0,.042-.008l.032-.009.038-.012a.617.617,0,0,0,.07-.03l.006,0,.946-.472.957.477a.548.548,0,0,0,.069.029h0a.659.659,0,0,0,.066.019c.012,0,.023,0,.035.006l.033.005c.023,0,.046,0,.069,0a.616.616,0,0,0,.551-.34l0,0h0l.435-.885h1.462l.035,0a1.231,1.231,0,0,1,1.194,1.228v2.464h-9.84V174.5a1.231,1.231,0,0,1,1.194-1.228Z" transform="translate(-324.199 -147.441)" fill="#455b2d"/>
        <path id="Trazado_833672" data-name="Trazado 833672" d="M12.292,177.569V174.49a2.463,2.463,0,0,0-2.46-2.46.634.634,0,0,0-.066,0H8.6v-.668a4.919,4.919,0,0,0,2.461-4.257c0-.008,0-.016,0-.024V164.8l0,0,.605-2.46a.229.229,0,0,0,.006-.033l0-.022a.454.454,0,0,0,0-.045.085.085,0,0,1,0-.014q0-.027,0-.053v-.006a.488.488,0,0,0-.005-.058h0a.628.628,0,0,0-.049-.168,0,0,0,0,0,0,0,.434.434,0,0,0-.024-.046l0-.007q-.012-.02-.025-.039l-.008-.012-.025-.032-.012-.015c-.008-.009-.016-.018-.025-.026l-.018-.018-.024-.021-.022-.018-.022-.016-.028-.018-.02-.012c-.012-.006-.022-.013-.035-.018l-.015-.006c-.012-.005-.024-.012-.037-.016l-4.92-1.845a.622.622,0,0,0-.312-.031h0a.5.5,0,0,0-.059.012l0,0a.47.47,0,0,0-.053.017h0l-4.92,1.845-.028.012-.023.01-.035.018-.018.01c-.013.008-.025.017-.038.025l-.011.008-.041.034,0,0a.616.616,0,0,0-.177.624l.582,2.365v2.383c0,.017,0,.034,0,.05a4.92,4.92,0,0,0,2.457,4.2v.67H2.517a.622.622,0,0,0-.066,0,2.463,2.463,0,0,0-2.46,2.46v3.079a.615.615,0,0,0,.615.615h11.07a.615.615,0,0,0,.615-.615ZM8.355,165.882H3.944l-.618-.615H8.967l-.612.615ZM6.151,161l4.192,1.572-.36,1.46H2.317l-.36-1.46L6.151,161Zm-3.7,6.1c0-.008,0-.016,0-.024v-.953l.8.8a.511.511,0,0,0,.052.048l.01.008c.012.009.025.019.038.028l.025.015.026.015.028.014.026.012.028.011.028.01.029.008.029.007.033.005.026,0a.534.534,0,0,0,.061,0H8.61a.543.543,0,0,0,.061,0l.038-.005.021,0,.048-.012.01,0,.052-.018,0,0a.613.613,0,0,0,.206-.139l.782-.786v.968a.1.1,0,0,0,0,.015,3.69,3.69,0,0,1-7.38-.018Zm3.69,4.918a4.9,4.9,0,0,0,1.229-.156v.634l-.269.547-.677-.338-.01,0-.034-.015-.024-.009-.031-.01-.027-.008-.032-.007-.025,0-.038,0-.018,0H6.129a.618.618,0,0,0-.253.063l-.684.342-.28-.551v-.633a4.919,4.919,0,0,0,1.231.156Zm-3.727,1.236.035,0H3.917l.454.893c.01.019.022.037.033.055s.007.013.012.019.02.025.03.038.016.021.025.03l.023.022c.013.012.025.025.039.036l.017.012a.486.486,0,0,0,.052.036l.015.008a.536.536,0,0,0,.059.03l.021.007a.569.569,0,0,0,.058.02.337.337,0,0,0,.039.008l.043.009a.605.605,0,0,0,.084.005c.023,0,.046,0,.07,0l.036-.006c.011,0,.022,0,.033-.006s.029-.008.044-.013l.025-.008a.621.621,0,0,0,.07-.03l0,0,.947-.473.957.477a.554.554,0,0,0,.069.029h0c.022.008.043.014.065.019l.041.007.028,0c.023,0,.046,0,.069,0a.619.619,0,0,0,.085-.006h0a.616.616,0,0,0,.366-.192l0,0a.611.611,0,0,0,.052-.065.171.171,0,0,0,.009-.016q.018-.028.035-.058l0,0h0l.435-.885H9.833l.035,0a1.231,1.231,0,0,1,1.194,1.228v2.464H1.221v-2.464a1.231,1.231,0,0,1,1.194-1.228Z" transform="translate(0.01 -147.43)" fill="#455b2d"/>
        <path id="Trazado_833673" data-name="Trazado 833673" d="M184.99,3.727a4.3,4.3,0,0,0,2.906,7.322.637.637,0,0,0,.145.018.616.616,0,0,1,.615.615.615.615,0,0,0,1.231,0,.615.615,0,0,1,.615-.615.59.59,0,0,0,.144-.018,4.3,4.3,0,0,0,2.908-7.322l-.011-.012-.179-.18.647-.643h0l.021-.023.021-.023c.008-.009.014-.018.021-.028a.222.222,0,0,0,.015-.022c.007-.01.012-.021.018-.032l.012-.021c.006-.012.012-.024.017-.035a.146.146,0,0,0,.008-.019l.013-.037.007-.019a.3.3,0,0,0,.008-.035c0-.008,0-.015.005-.022s0-.022,0-.034,0-.016,0-.025,0-.021,0-.031,0-.018,0-.028,0-.018,0-.027a.225.225,0,0,0,0-.032c0-.008,0-.015,0-.023s0-.024-.005-.035l0-.019c0-.013-.005-.025-.009-.039l-.005-.016c0-.013-.008-.027-.014-.04l-.007-.015c-.005-.013-.012-.026-.018-.039l-.009-.016c-.007-.012-.014-.025-.022-.036l-.013-.018c-.008-.011-.015-.022-.023-.032l-.018-.02-.023-.026h0L192.17.18a.567.567,0,0,0-.05-.045l0,0A.5.5,0,0,0,192.072.1l-.017-.011-.034-.02L192,.056l-.028-.013-.032-.012-.025-.008-.04-.01-.018,0L191.8,0h0a.57.57,0,0,0-.126,0h0c-.019,0-.038,0-.058.008l-.02,0-.038.009-.028.01-.028.01-.033.015-.021.01c-.014.007-.027.015-.039.023L191.393.1a.619.619,0,0,0-.173.173l-.007.012a.4.4,0,0,0-.023.039.183.183,0,0,0-.01.022.3.3,0,0,0-.015.032L191.155.4c0,.009-.007.018-.009.027s-.007.025-.01.038l0,.019a.5.5,0,0,0-.008.058h0a.609.609,0,0,0,0,.065.615.615,0,0,1-1.23,0,.617.617,0,0,0-1.234,0,.615.615,0,0,1-1.23,0,.622.622,0,0,0,0-.065h0c0-.02-.005-.039-.009-.059l0-.018c0-.013-.006-.027-.01-.04s-.005-.016-.008-.025-.007-.021-.012-.032-.008-.019-.013-.028-.008-.017-.012-.025-.013-.022-.02-.034L187.323.27c-.011-.016-.022-.032-.034-.046l0,0A.6.6,0,0,0,187.2.134l0,0A.4.4,0,0,0,187.151.1l-.017-.011L187.1.068l-.025-.012-.028-.013-.032-.012L186.99.022l-.04-.01-.018,0L186.874,0h0a.57.57,0,0,0-.126,0h0c-.019,0-.039,0-.058.008l-.02,0-.038.009-.028.01-.028.01-.033.015-.021.01a.421.421,0,0,0-.04.024L186.471.1a.639.639,0,0,0-.1.082L184.53,2.02a.614.614,0,0,0,0,.869l.013.012.636.632L185,3.713l-.011.012Zm3.05-1.271a1.841,1.841,0,0,0,1.231-.471,1.842,1.842,0,0,0,2.7-.263l.732.732-.645.641,0,0a.61.61,0,0,0-.179.424v.01c0,.012,0,.022,0,.034a.142.142,0,0,0,0,.025.2.2,0,0,0,0,.021c0,.012,0,.025.005.038a.064.064,0,0,0,0,.012q0,.023.012.046s0,0,0,.005c.005.017.011.034.018.051l0,.006c.007.016.014.032.022.049l.006.01c.008.015.016.028.025.042l.012.015c.008.012.016.023.025.034l.019.022.022.025h0l.614.614,0,0a3.066,3.066,0,0,1-2.169,5.236.619.619,0,0,0-.157.021,1.841,1.841,0,0,0-1.077.464A1.84,1.84,0,0,0,188.2,9.84a.629.629,0,0,0-.158-.021,3.066,3.066,0,0,1-2.169-5.236l.006-.006.611-.611a.614.614,0,0,0,0-.869l-.01-.008-.639-.635.732-.732a1.843,1.843,0,0,0,1.471.734Z" transform="translate(-169.589 0.005)" fill="#455b2d"/>
        <path id="Trazado_833674" data-name="Trazado 833674" d="M233.415,59.59a1.845,1.845,0,1,0-1.845-1.845A1.847,1.847,0,0,0,233.415,59.59Zm0-2.46a.615.615,0,1,1-.615.615A.616.616,0,0,1,233.415,57.13Z" transform="translate(-213.736 -51.595)" fill="#455b2d"/>
      </g>
    </g>
  </g>
</svg>
