<svg xmlns="http://www.w3.org/2000/svg" width="85" height="85" viewBox="0 0 85 85">
  <g id="Grupo_1080917" data-name="Grupo 1080917" transform="translate(-285 -4401)">
    <g id="Grupo_1080699" data-name="Grupo 1080699" transform="translate(0 -2174)">
      <path id="Trazado_836896" data-name="Trazado 836896" d="M42.5,0A42.5,42.5,0,1,1,0,42.5,42.5,42.5,0,0,1,42.5,0Z" transform="translate(285 6575)" fill="#eaf2e1"/>
    </g>
    <g id="Ñëîé_1" data-name="Ñëîé 1" transform="translate(300.002 4416.01)">
      <g id="Grupo_1080912" data-name="Grupo 1080912">
        <path id="Trazado_833273" data-name="Trazado 833273" d="M53.23,18.83a3.253,3.253,0,0,0,.03-.44,3.078,3.078,0,0,0-4.93-2.46,4.25,4.25,0,0,0-3.14-1.37,4.3,4.3,0,0,0-4.16,3.27,4.268,4.268,0,0,0-3.2,1.89,1.828,1.828,0,0,0-.25-.06c-.06-.02-.12-.03-.18-.05a2.76,2.76,0,0,0-.57-.06,3.081,3.081,0,0,0-3.08,3.08v.17a4.272,4.272,0,0,0-2.86,3.29,4.269,4.269,0,0,0-3.68,3.44h-.36a1.9,1.9,0,0,0-1.89,1.89v2.17a1.884,1.884,0,0,0,1.67,1.87L25.07,54.14a.806.806,0,0,0,.74.87h.07a.805.805,0,0,0,.8-.74l1.57-18.79H40.87l.31,3.75a.812.812,0,0,0,.8.74h.07a.82.82,0,0,0,.74-.87l-.3-3.64a1.884,1.884,0,0,0,1.67-1.87V31.42a1.883,1.883,0,0,0-1.02-1.67A4.575,4.575,0,0,0,43.7,29a6.235,6.235,0,0,0,8.79-2.79,4.291,4.291,0,0,0,2.52-3.9,4.228,4.228,0,0,0-1.77-3.46ZM42.54,33.58a.28.28,0,0,1-.28.28H26.85a.286.286,0,0,1-.28-.28V31.41a.28.28,0,0,1,.28-.28h15.4a.286.286,0,0,1,.28.28v2.17Zm9.07-8.77h0a2.742,2.742,0,0,1-2.63-.51.808.808,0,1,0-1.06,1.22,4.293,4.293,0,0,0,2.46,1.02,4.617,4.617,0,0,1-6.53.6.805.805,0,0,0-.76-.15.821.821,0,0,0-.54.56,2.668,2.668,0,0,1-2.58,1.97h-.45a3.07,3.07,0,0,0,.39-1.47,3.109,3.109,0,0,0-.72-1.98.806.806,0,0,0-1.13-.1.8.8,0,0,0-.1,1.13,1.477,1.477,0,0,1-1.13,2.42H28.86a2.663,2.663,0,0,1,2.54-1.86h.17a.8.8,0,0,0,.85-.81,2.67,2.67,0,0,1,2.36-2.65.8.8,0,0,0,.59-.38.788.788,0,0,0,.07-.7,1.524,1.524,0,0,1-.09-.51,1.472,1.472,0,0,1,1.47-1.47,1.844,1.844,0,0,1,.41.06c.03,0,.05.02.08.02a1.851,1.851,0,0,1,.37.19,1.481,1.481,0,0,1,.62,1.2.81.81,0,0,0,1.62,0,3.068,3.068,0,0,0-.75-2,2.713,2.713,0,0,1,2.48-1.2.819.819,0,0,0,.6-.19.785.785,0,0,0,.28-.57,2.664,2.664,0,0,1,5.01-1.1h0a2.74,2.74,0,0,1,.18,2.1.807.807,0,0,0,.52,1.02.727.727,0,0,0,.25.04.813.813,0,0,0,.77-.56,4.3,4.3,0,0,0,.21-1.33,4.4,4.4,0,0,0-.28-1.52,1.452,1.452,0,0,1,.99-.39,1.472,1.472,0,0,1,1.47,1.47,1.386,1.386,0,0,1-.1.53.815.815,0,0,0,.38,1.01,2.648,2.648,0,0,1,1.45,2.37,2.682,2.682,0,0,1-1.79,2.52Z" fill="#455b2d"/>
        <path id="Trazado_833274" data-name="Trazado 833274" d="M29.24,19.3a6.262,6.262,0,0,0,5.35-3.03,4.318,4.318,0,0,0,.95.1,4.507,4.507,0,0,0,4.5-4.5,4.621,4.621,0,0,0-.11-.99A4.5,4.5,0,0,0,37.49,2.6c-.12,0-.23,0-.35.01a6.235,6.235,0,0,0-9.9-.34,6.565,6.565,0,0,0-1.66-.09,2.538,2.538,0,0,0-4.21.02,4.032,4.032,0,0,0-.6-.04,4.506,4.506,0,0,0-4.42,3.69,6.24,6.24,0,0,0-6,5.49,4.48,4.48,0,0,0-2.82,1.71,3.128,3.128,0,0,0-.44-.04,2.544,2.544,0,0,0-2.54,2.54v.13a4.472,4.472,0,0,0-1.98,2.98H2.32A1.9,1.9,0,0,0,.43,20.55v2.17a1.892,1.892,0,0,0,1.68,1.87L0,54.14A.806.806,0,0,0,.75,55H.81a.8.8,0,0,0,.8-.75L3.73,24.61H17.42l.37,5.2a.807.807,0,0,0,.8.75h.06a.813.813,0,0,0,.75-.86l-.36-5.11a1.892,1.892,0,0,0,1.68-1.87V20.55a1.889,1.889,0,0,0-.76-1.51,4.458,4.458,0,0,0,.88-1.14,4.572,4.572,0,0,0,2.08-.06,2.584,2.584,0,0,0,2.3-.03,6.238,6.238,0,0,0,4.03,1.48Zm-5.75-2.98a.778.778,0,0,0-.75-.1,2.968,2.968,0,0,1-1.42.13,5.27,5.27,0,0,0,.04-.56,4.566,4.566,0,0,0-.51-2.08.808.808,0,0,0-1.09-.34.8.8,0,0,0-.34,1.09,2.788,2.788,0,0,1,.33,1.33,2.909,2.909,0,0,1-.14.89h0a2.879,2.879,0,0,1-2.74,1.99H9.85a.81.81,0,1,0,0,1.62h8.98a.286.286,0,0,1,.28.28v2.17a.28.28,0,0,1-.28.28H2.32a.286.286,0,0,1-.28-.28V20.57a.28.28,0,0,1,.28-.28H6.07a.81.81,0,1,0,0-1.62H4.22a2.921,2.921,0,0,1,1.57-1.82.8.8,0,0,0,.43-.99.982.982,0,0,1-.05-.29.952.952,0,0,1,1.35-.83.811.811,0,0,0,1.07-.33,2.89,2.89,0,0,1,4.53-.7.811.811,0,0,0,.56.22.788.788,0,0,0,.58-.25.806.806,0,0,0-.02-1.14,4.454,4.454,0,0,0-2.23-1.16,4.6,4.6,0,0,1,7.23-3.04.8.8,0,0,0,.47.15.82.82,0,0,0,.66-.34.8.8,0,0,0-.19-1.12,6.057,6.057,0,0,0-2.19-.97A2.892,2.892,0,0,1,20.8,3.8a2.855,2.855,0,0,1,.82.12.8.8,0,0,0,1-.54.933.933,0,0,1,.89-.66.916.916,0,0,1,.88.63.8.8,0,0,0,.9.53,4.555,4.555,0,0,1,2.08.1.8.8,0,0,0,.89-.32,4.618,4.618,0,0,1,7.8.26.8.8,0,0,0,.86.38,2.876,2.876,0,0,1,3.46,2.82,2.886,2.886,0,0,1-1.74,2.65.811.811,0,0,0-.43,1.04,2.889,2.889,0,0,1-2.67,3.97c-.1,0-.2-.02-.3-.03a6.159,6.159,0,0,0,.23-1.66,6.3,6.3,0,0,0-.83-3.12.8.8,0,0,0-1.39.81,4.674,4.674,0,0,1,.62,2.31,4.605,4.605,0,0,1-.41,1.9h0a4.623,4.623,0,0,1-7.59,1.24.845.845,0,0,0-.58-.26.905.905,0,0,0-.59.25.953.953,0,0,1-1.21.11Z" fill="#455b2d"/>
        <path id="Trazado_833275" data-name="Trazado 833275" d="M30.42,7.47a.807.807,0,0,0,.81-.81.69.69,0,0,1,1.38,0,.81.81,0,0,0,1.62,0,2.3,2.3,0,1,0-4.6,0,.813.813,0,0,0,.81.81Z" fill="#455b2d"/>
        <path id="Trazado_833276" data-name="Trazado 833276" d="M28.2,12.96a2.294,2.294,0,0,0,0-3.25.806.806,0,1,0-1.14,1.14.686.686,0,0,1-.97.97.806.806,0,0,0-1.14,1.14,2.318,2.318,0,0,0,3.26,0Z" fill="#455b2d"/>
        <path id="Trazado_833277" data-name="Trazado 833277" d="M18.8,32.71a.813.813,0,0,0-.75.86l1.48,20.68a.807.807,0,0,0,.8.75h.06a.813.813,0,0,0,.75-.86L19.66,33.46a.826.826,0,0,0-.86-.75Z" fill="#455b2d"/>
        <path id="Trazado_833278" data-name="Trazado 833278" d="M42.23,42.1a.82.82,0,0,0-.74.87l.94,11.29a.812.812,0,0,0,.8.74h.07a.82.82,0,0,0,.74-.87L43.1,42.84A.808.808,0,0,0,42.23,42.1Z" fill="#455b2d"/>
        <path id="Trazado_833279" data-name="Trazado 833279" d="M43.91,20.32a2.3,2.3,0,0,0-2.3,2.3.81.81,0,0,0,1.62,0,.69.69,0,1,1,1.38,0,.81.81,0,0,0,1.62,0,2.3,2.3,0,0,0-2.3-2.3Z" fill="#455b2d"/>
      </g>
    </g>
  </g>
</svg>
