<svg xmlns="http://www.w3.org/2000/svg" xmlns:xlink="http://www.w3.org/1999/xlink" width="71" height="71" viewBox="0 0 71 71">
  <defs>
    <clipPath id="clip-path">
      <rect id="Rectángulo_383615" data-name="Rectángulo 383615" width="48" height="47.826" fill="none"/>
    </clipPath>
  </defs>
  <g id="Grupo_1081566" data-name="Grupo 1081566" transform="translate(-636 -1030)">
    <g id="Grupo_1081495" data-name="Grupo 1081495" transform="translate(343 -644)">
      <g id="Grupo_1015825" data-name="Grupo 1015825" transform="translate(293 1674)">
        <circle id="Elipse_4845" data-name="Elipse 4845" cx="35.5" cy="35.5" r="35.5" fill="#fff"/>
      </g>
    </g>
    <g id="Grupo_1081503" data-name="Grupo 1081503" transform="translate(648 1042)">
      <g id="Grupo_1081502" data-name="Grupo 1081502" clip-path="url(#clip-path)">
        <path id="Trazado_836961" data-name="Trazado 836961" d="M28.42,34.173a18.147,18.147,0,0,1-6.379,2.469C14.681,37.826,8.575,35.56,3.917,29.75A17.448,17.448,0,0,1,.209,15.891a18.545,18.545,0,0,1,34.4-6.621,17.955,17.955,0,0,1,.173,18.153c-.314.6-.341.927.172,1.433,3.974,3.914,7.912,7.865,11.861,11.805,1.567,1.563,1.574,3.1.025,4.649-.513.514-1.025,1.029-1.547,1.534a2.837,2.837,0,0,1-4.32-.032q-6.015-5.983-12.014-11.981c-.183-.183-.331-.4-.542-.658m-9.81.912A16.606,16.606,0,1,0,1.9,18.561,16.638,16.638,0,0,0,18.611,35.085m14.818,1.427c3,3.026,6.019,6.082,9.052,9.126a.9.9,0,0,0,1.381-.027c.564-.535,1.111-1.088,1.659-1.64.78-.784.786-1.168.008-1.947-1.63-1.632-3.274-3.25-4.9-4.887-1.306-1.316-2.593-2.651-3.885-3.974l-3.316,3.349m-.049-6.546-3.125,3.228,1.721,1.815,3.2-3.167-1.793-1.876" transform="translate(0 0)" fill="#161615"/>
        <path id="Trazado_836962" data-name="Trazado 836962" d="M33.618,46.816a13.323,13.323,0,1,1,16.04,12.955A13.064,13.064,0,0,1,41.75,59c-.8-.331-1.1-.812-.842-1.392.231-.528.763-.645,1.55-.333a11.435,11.435,0,0,0,15.66-12.928,11.441,11.441,0,0,0-22.477.885,10.533,10.533,0,0,0,.84,6.076,4.344,4.344,0,0,1,.276.642c.151.541.142,1.043-.486,1.294a.843.843,0,0,1-1.2-.529,32.883,32.883,0,0,1-1.17-3.436,16.8,16.8,0,0,1-.286-2.461" transform="translate(-28.384 -28.313)" fill="#161615"/>
        <path id="Trazado_836963" data-name="Trazado 836963" d="M81.521,82.17c1.6-1.622,3.044-3.1,4.505-4.572.792-.8,1.149-.79,1.943-.006.737.728,1.479,1.453,2.2,2.2.58.6.585,1.022,0,1.607q-3.9,3.907-7.814,7.792c-.588.583-1.008.585-1.609,0q-2.36-2.311-4.68-4.663a1,1,0,0,1,.015-1.571q1.205-1.213,2.423-2.412a.979.979,0,0,1,1.556.033c.466.482.906.99,1.458,1.6m0,5.066L88.138,80.6,86.89,79.3c-1.474,1.5-2.939,3-4.419,4.49-.705.709-1.122.7-1.84-.01-.441-.439-.846-.912-1.173-1.267l-1.381,1.19,3.443,3.528" transform="translate(-63.912 -65.014)" fill="#161615"/>
        <path id="Trazado_836964" data-name="Trazado 836964" d="M58.822,169.46a.908.908,0,0,1-.953.83.972.972,0,0,1-.943-1.021.874.874,0,0,1,.894-.888,1.06,1.06,0,0,1,1,1.079" transform="translate(-48.063 -142.164)" fill="#161615"/>
      </g>
    </g>
  </g>
</svg>
