<svg xmlns="http://www.w3.org/2000/svg" xmlns:xlink="http://www.w3.org/1999/xlink" width="71" height="71" viewBox="0 0 71 71">
  <defs>
    <clipPath id="clip-path">
      <rect id="Rectángulo_383614" data-name="Rectángulo 383614" width="50.928" height="48.211" fill="none"/>
    </clipPath>
  </defs>
  <g id="Grupo_1081567" data-name="Grupo 1081567" transform="translate(-894 -1030)">
    <g id="Grupo_1081496" data-name="Grupo 1081496" transform="translate(601 -644)">
      <g id="Grupo_1015825" data-name="Grupo 1015825" transform="translate(293 1674)">
        <circle id="Elipse_4845" data-name="Elipse 4845" cx="35.5" cy="35.5" r="35.5" fill="#fff"/>
      </g>
    </g>
    <g id="Grupo_1081501" data-name="Grupo 1081501" transform="translate(904 1043)">
      <g id="Grupo_1081500" data-name="Grupo 1081500" clip-path="url(#clip-path)">
        <path id="Trazado_836960" data-name="Trazado 836960" d="M18.261,40.333c.182.261.342.482.494.709a.754.754,0,0,1-.121,1.075,10.836,10.836,0,0,1-.944.7c-2.464,1.718-4.934,3.428-7.392,5.155a.91.91,0,0,1-1.432-.262c-.832-1.206-1.681-2.4-2.523-3.6q-3.026-4.3-6.054-8.6c-.337-.478-.379-.787-.126-1.159a.987.987,0,0,1,.25-.246Q4.5,31.246,8.585,28.4a.89.89,0,0,1,.924-.214,1.1,1.1,0,0,1,.4.3c.309.4.6.808.884,1.223.112.164.195.155.352.048,1.3-.883,2.593-1.763,3.9-2.624a8.69,8.69,0,0,1,1.1-.572.345.345,0,0,0,.23-.368q-.009-10.3,0-20.609c0-.97-.018-1.94,0-2.909A2.582,2.582,0,0,1,17.972.2a2.111,2.111,0,0,1,.833-.179Q32.545,0,46.285,0a2.587,2.587,0,0,1,2.564,2.234,5.4,5.4,0,0,1,.046.663q0,11.548,0,23.1a.359.359,0,0,0,.232.388,3.3,3.3,0,0,1,1.794,3.188,3.238,3.238,0,0,1-2.247,2.961c-2.463.922-4.94,1.805-7.412,2.7q-2.937,1.067-5.875,2.13c-1.556.563-3.107,1.14-4.67,1.682a10.533,10.533,0,0,1-2.389.46,14.825,14.825,0,0,1-4.186-.335,7.709,7.709,0,0,0-5.168.739c-.233.125-.454.27-.709.423M28.349,6.771c-.076,0-.127-.009-.178-.009q-4.921,0-9.841,0c-.2,0-.222.079-.222.249q0,9.239,0,18.477v.232c.091-.02.148-.031.2-.044.925-.227,1.845-.477,2.775-.676a15.4,15.4,0,0,1,4.2-.221,46.213,46.213,0,0,1,4.708.733c.882.147,1.765.289,2.646.442.844.147,1.69.29,2.528.468a5.658,5.658,0,0,1,1.5.443A2.145,2.145,0,0,0,38.1,27.2a.393.393,0,0,1,.066,0c1.673,0,3.347.007,5.02,0a2.2,2.2,0,0,0,.668-.12c1.044-.345,2.082-.71,3.126-1.056a.213.213,0,0,0,.173-.254c-.015-.414-.029-.829-.028-1.243q.007-8.75.018-17.5c0-.084-.014-.168-.022-.261H37.193c-.3,0-.292,0-.291.3.007,1.244.015,2.487.01,3.731a1.366,1.366,0,0,1-.113.621.833.833,0,0,1-1.413.15q-1.314-1.309-2.624-2.622c-.111-.112-.16-.106-.274.01q-1.315,1.339-2.651,2.657a.837.837,0,0,1-1.349-.148,1.277,1.277,0,0,1-.135-.594c-.011-1.177,0-2.354,0-3.531,0-.183,0-.366,0-.57M11.89,31.25c.077.118.142.223.212.324q2.034,2.9,4.069,5.794c.327.466.655.932.988,1.394.075.1.141.214.322.115a19.451,19.451,0,0,1,1.747-.906,9.577,9.577,0,0,1,2.885-.652,12.289,12.289,0,0,1,3.231.344,10.465,10.465,0,0,0,5.568-.438c1.874-.7,3.761-1.371,5.643-2.054l4.708-1.707q2.1-.762,4.209-1.523c.91-.33,1.825-.647,2.723-1.006a1.6,1.6,0,0,0,1.073-1.521,1.64,1.64,0,0,0-.986-1.606,1.962,1.962,0,0,0-1.535-.008c-.591.212-1.178.435-1.768.648q-3.167,1.146-6.336,2.288a.489.489,0,0,0-.311.31,3.406,3.406,0,0,1-2.9,2.206,5.887,5.887,0,0,1-1.775-.216c-1.633-.271-3.262-.563-4.894-.844q-1.638-.281-3.277-.548c-.153-.025-.16-.106-.14-.216.081-.443.17-.884.248-1.328.023-.131.073-.174.207-.147.3.059.6.1.894.157,1.106.192,2.213.381,3.319.577,1.571.278,3.142.563,4.714.839a1.76,1.76,0,0,0,1.384-.237,1.637,1.637,0,0,0,.728-1.754,1.6,1.6,0,0,0-1.334-1.348c-1.254-.245-2.515-.459-3.774-.678-.888-.155-1.779-.3-2.667-.446-.838-.141-1.674-.29-2.512-.425a12.838,12.838,0,0,0-1.406-.187,17.113,17.113,0,0,0-8.695,1.794,28.854,28.854,0,0,0-3.244,2.088c-.438.3-.872.606-1.325.922M2.01,35.027a.662.662,0,0,0,.032.069L7.7,43.139q1.021,1.452,2.037,2.908c.1.139.183.172.323.067.165-.125.338-.239.508-.358q3.065-2.144,6.132-4.284c.177-.123.184-.206.06-.38q-1.734-2.444-3.45-4.9-2.073-2.951-4.143-5.9c-.1-.143-.169-.15-.315-.048q-2.623,1.846-5.256,3.678L2.01,35.027M23.236,5.087h4.909c.109,0,.209,0,.209-.153,0-1.043,0-2.087-.01-3.13,0-.048-.082-.122-.138-.136a1.165,1.165,0,0,0-.287-.009l-7.774,0c-.377,0-.755-.027-1.131,0a.835.835,0,0,0-.89.955c-.007.755,0,1.51-.006,2.265,0,.159.037.218.211.218,1.636-.007,3.272,0,4.908,0m18.8,0v0c1.644,0,3.288,0,4.932,0,.137,0,.183-.034.182-.171,0-.792,0-1.584-.006-2.375a.832.832,0,0,0-.866-.89c-.384-.018-.769,0-1.154,0q-3.977,0-7.953,0c-.2,0-.258.051-.256.262.012.984.007,1.969-.006,2.954,0,.179.039.226.217.225,1.637-.006,3.273,0,4.91,0M35.2,1.646H30.073V9.013c.121-.115.212-.2.3-.285.545-.543,1.082-1.095,1.637-1.628a.78.78,0,0,1,1.213-.04,3.289,3.289,0,0,1,.261.24q.75.757,1.5,1.516c.059.06.126.112.218.194Z" transform="translate(0 0)" fill="#161615"/>
      </g>
    </g>
  </g>
</svg>
