<svg xmlns="http://www.w3.org/2000/svg" width="190" height="166" viewBox="0 0 190 166">
  <g id="Grupo_1080910" data-name="Grupo 1080910" transform="translate(-390 -2091)">
    <rect id="Rectángulo_379329" data-name="Rectángulo 379329" width="190" height="166" transform="translate(390 2091)" fill="none"/>
    <g id="y1" transform="translate(425.002 2107.612)">
      <g id="Capa_2" data-name="Capa 2" transform="translate(-0.002 -0.004)">
        <g id="Ñëîé_1" data-name="Ñëîé 1" transform="translate(0)">
          <g id="Grupo_1080909" data-name="Grupo 1080909">
            <g id="Grupo_1080901" data-name="Grupo 1080901">
              <path id="Trazado_833243" data-name="Trazado 833243" d="M122.761,16.205,118.54,15.9l-1.737-.126-79.627-5.76a6.734,6.734,0,0,0-7.122,5.581l-1.123-.027v.048l-2.006-.048-.179,7.269-9.278.514.137,2.464-7.594.932L23.977,140.506l51.992-6.384,27.126,1.962a6.731,6.731,0,0,0,7.1-5.478,6.33,6.33,0,0,0,.1-.752l.651-9.021,4.818-66.579,4.222.306a5.98,5.98,0,0,0,6.4-5.533L128.3,22.6a5.981,5.981,0,0,0-5.535-6.4Z" transform="translate(-7.9 -7.888)" opacity="0.1"/>
              <g id="Grupo_1080900" data-name="Grupo 1080900">
                <path id="Trazado_833244" data-name="Trazado 833244" d="M163.941,12.6,162.029,39.03a5.979,5.979,0,0,1-6.4,5.533l-4.222-.306-4.818,66.579-.651,9.021a6.332,6.332,0,0,1-.1.752,6.731,6.731,0,0,1-7.1,5.478l-74.649-5.4a6.73,6.73,0,0,1-6.228-7.2l6.8-94.006.87-12.049.086-1.187a6.735,6.735,0,0,1,7.2-6.23l79.629,5.76,1.737.126,4.222.306a5.983,5.983,0,0,1,5.535,6.4Z" transform="translate(-45.652 0.004)" fill="#727997"/>
                <rect id="Rectángulo_379499" data-name="Rectángulo 379499" width="112.625" height="82.557" transform="translate(16.158 118.164) rotate(-88.59)" fill="#e6e7e8"/>
                <rect id="Rectángulo_379500" data-name="Rectángulo 379500" width="112.625" height="82.557" transform="translate(14.15 118.165) rotate(-88.59)" fill="#fff"/>
                <rect id="Rectángulo_379501" data-name="Rectángulo 379501" width="82.557" height="112.625" transform="matrix(0.998, -0.055, 0.055, 0.998, 7.459, 13.356)" fill="#f1f2f2"/>
                <rect id="Rectángulo_379502" data-name="Rectángulo 379502" width="85.295" height="114.614" transform="translate(0 16.751) rotate(-7)" fill="#fff"/>
                <rect id="Rectángulo_379503" data-name="Rectángulo 379503" width="60.663" height="6.009" transform="translate(12.976 21.371) rotate(-7)" fill="#f1ece6"/>
                <g id="Grupo_1080892" data-name="Grupo 1080892" transform="translate(36.354 30.089)">
                  <rect id="Rectángulo_379504" data-name="Rectángulo 379504" width="42.261" height="2.9" transform="translate(0.707 9.625) rotate(-7)" fill="#f1ece6"/>
                  <rect id="Rectángulo_379505" data-name="Rectángulo 379505" width="31.762" height="2.9" transform="translate(1.413 15.361) rotate(-7)" fill="#f1ece6"/>
                  <rect id="Rectángulo_379506" data-name="Rectángulo 379506" width="31.762" height="2.9" transform="translate(0 3.871) rotate(-7)" fill="#c1cdf5"/>
                </g>
                <g id="Grupo_1080893" data-name="Grupo 1080893" transform="translate(11.77 34.668)">
                  <path id="Trazado_833245" data-name="Trazado 833245" d="M79.325,176.642c-.759.491-4.2,5.526-6.1,7.925l-1.861-1.448c-.221-.209-.723-.881-1.058-.363l-.5.953c-.337.518.175,1.239.516,1.444l3.043,2.746c.341.2.889-.053,1.225-.571l.287-.443h0L80,177.264c.337-.521,1.13-1.69-.672-.62Z" transform="translate(-66.776 -173.736)" fill="#cadeb4"/>
                  <path id="Trazado_833246" data-name="Trazado 833246" d="M71.031,180.181l-11.343,1.393a2.188,2.188,0,0,1-2.436-1.9l-1.393-11.343a2.188,2.188,0,0,1,1.9-2.436L69.1,164.5a2.188,2.188,0,0,1,2.436,1.9l1.393,11.343A2.188,2.188,0,0,1,71.031,180.181ZM57.915,167.135a.934.934,0,0,0-.811,1.037L58.5,179.515a.934.934,0,0,0,1.037.811l11.343-1.393a.934.934,0,0,0,.811-1.037L70.3,166.553a.934.934,0,0,0-1.037-.811Z" transform="translate(-55.841 -164.482)" fill="#dae3e8"/>
                </g>
                <g id="Grupo_1080894" data-name="Grupo 1080894" transform="translate(39.116 52.572)">
                  <rect id="Rectángulo_379507" data-name="Rectángulo 379507" width="42.261" height="2.9" transform="translate(0.707 9.625) rotate(-7)" fill="#f1ece6"/>
                  <rect id="Rectángulo_379508" data-name="Rectángulo 379508" width="31.762" height="2.9" transform="translate(1.409 15.362) rotate(-7)" fill="#f1ece6"/>
                  <rect id="Rectángulo_379509" data-name="Rectángulo 379509" width="31.762" height="2.9" transform="translate(0 3.871) rotate(-7)" fill="#c1cdf5"/>
                </g>
                <g id="Grupo_1080895" data-name="Grupo 1080895" transform="translate(11.368 53.985)">
                  <path id="Trazado_833247" data-name="Trazado 833247" d="M86.109,272.806c-1.041.672-5.748,7.569-8.353,10.852l-2.548-1.983c-.3-.285-.991-1.206-1.45-.5l-.683,1.3c-.462.71.24,1.7.706,1.977l4.167,3.762c.468.278,1.216-.072,1.678-.782l.392-.6h0l7.01-13.177c.462-.712,1.547-2.316-.919-.849Z" transform="translate(-68.922 -268.823)" fill="#cadeb4"/>
                  <path id="Trazado_833248" data-name="Trazado 833248" d="M74.738,277.638,59.2,279.545a3,3,0,0,1-3.339-2.607L53.956,261.4a3,3,0,0,1,2.607-3.339L72.1,256.156a3,3,0,0,1,3.339,2.607L77.345,274.3A3,3,0,0,1,74.738,277.638ZM56.774,259.771a1.277,1.277,0,0,0-1.111,1.421l1.907,15.536a1.277,1.277,0,0,0,1.421,1.111l15.536-1.907a1.277,1.277,0,0,0,1.111-1.421L73.73,258.974a1.277,1.277,0,0,0-1.421-1.111Z" transform="translate(-53.934 -256.134)" fill="#dae3e8"/>
                </g>
                <g id="Grupo_1080896" data-name="Grupo 1080896" transform="translate(41.877 75.054)">
                  <rect id="Rectángulo_379510" data-name="Rectángulo 379510" width="42.261" height="2.9" transform="translate(0.707 9.627) rotate(-7)" fill="#f1ece6"/>
                  <rect id="Rectángulo_379511" data-name="Rectángulo 379511" width="31.762" height="2.9" transform="translate(1.409 15.364) rotate(-7)" fill="#f1ece6"/>
                  <rect id="Rectángulo_379512" data-name="Rectángulo 379512" width="31.762" height="2.9" transform="translate(0 3.871) rotate(-7)" fill="#c1cdf5"/>
                </g>
                <g id="Grupo_1080897" data-name="Grupo 1080897" transform="translate(17.292 79.633)">
                  <path id="Trazado_833249" data-name="Trazado 833249" d="M105.515,389.982c-.759.491-4.2,5.526-6.1,7.925l-1.861-1.448c-.221-.209-.723-.881-1.058-.362l-.5.953c-.337.518.175,1.239.516,1.444l3.043,2.746c.341.2.889-.053,1.225-.571l.287-.443h0l5.119-9.621c.337-.521,1.13-1.69-.672-.62Z" transform="translate(-92.969 -387.076)" fill="#cadeb4"/>
                  <path id="Trazado_833250" data-name="Trazado 833250" d="M97.231,393.521l-11.343,1.393a2.188,2.188,0,0,1-2.436-1.9l-1.393-11.343a2.188,2.188,0,0,1,1.9-2.436L95.3,377.838a2.188,2.188,0,0,1,2.436,1.9l1.393,11.343A2.188,2.188,0,0,1,97.231,393.521ZM84.115,380.475a.934.934,0,0,0-.811,1.037L84.7,392.855a.934.934,0,0,0,1.037.811l11.343-1.393a.934.934,0,0,0,.811-1.037L96.5,379.893a.934.934,0,0,0-1.037-.811l-11.343,1.393Z" transform="translate(-82.042 -377.822)" fill="#dae3e8"/>
                </g>
                <g id="Grupo_1080898" data-name="Grupo 1080898" transform="translate(44.637 97.536)">
                  <rect id="Rectángulo_379513" data-name="Rectángulo 379513" width="42.261" height="2.9" transform="translate(0.705 9.628) rotate(-7)" fill="#f1ece6"/>
                  <rect id="Rectángulo_379514" data-name="Rectángulo 379514" width="31.762" height="2.9" transform="translate(1.411 15.364) rotate(-7)" fill="#f1ece6"/>
                  <rect id="Rectángulo_379515" data-name="Rectángulo 379515" width="31.762" height="2.9" transform="translate(0 3.871) rotate(-7)" fill="#c1cdf5"/>
                </g>
                <g id="Grupo_1080899" data-name="Grupo 1080899" transform="translate(20.053 102.115)">
                  <path id="Trazado_833251" data-name="Trazado 833251" d="M118.615,496.652c-.759.491-4.2,5.526-6.1,7.925l-1.861-1.448c-.221-.209-.723-.881-1.058-.363l-.5.953c-.337.518.175,1.239.516,1.444l3.043,2.746c.341.2.889-.053,1.225-.571l.287-.443h0l5.119-9.621c.337-.521,1.13-1.69-.672-.62Z" transform="translate(-106.069 -493.746)" fill="#cadeb4"/>
                  <path id="Trazado_833252" data-name="Trazado 833252" d="M110.331,500.191l-11.343,1.393a2.188,2.188,0,0,1-2.436-1.9l-1.393-11.343a2.188,2.188,0,0,1,1.9-2.436l11.343-1.393a2.188,2.188,0,0,1,2.436,1.9l1.393,11.343A2.188,2.188,0,0,1,110.331,500.191ZM97.215,487.145a.934.934,0,0,0-.811,1.037L97.8,499.525a.934.934,0,0,0,1.037.811l11.343-1.393a.934.934,0,0,0,.811-1.037L109.6,486.563a.934.934,0,0,0-1.037-.811l-11.343,1.393Z" transform="translate(-95.142 -484.491)" fill="#dae3e8"/>
                </g>
              </g>
            </g>
            <g id="Grupo_1080903" data-name="Grupo 1080903" transform="translate(68.586 23.314)">
              <path id="Trazado_833253" data-name="Trazado 833253" d="M345.03,116.655a2.7,2.7,0,0,0-1.334-.563l-3.128-.44a1.98,1.98,0,0,0-2.4,1.309l-.672,4.786-.3,2.165-6.768,48.156,1.427,7.948h0v.006l.019.112h0l.413,2.308a.114.114,0,0,0,.057.078,1.008,1.008,0,0,0,.841.118.116.116,0,0,0,.076-.059l1.035-2.106.025-.046.013-.03.015-.027h0v-.006l2.71-5.514h0l.849-1.728h0l6.768-48.156.3-2.165h0l.672-4.786a1.508,1.508,0,0,0-.618-1.355Z" transform="translate(-329.364 -114.567)" fill="#c6c6c6"/>
              <g id="Grupo_1080902" data-name="Grupo 1080902">
                <rect id="Rectángulo_379516" data-name="Rectángulo 379516" width="48.63" height="7.558" transform="translate(0.002 56.445) rotate(-82)" fill="#f99f05"/>
                <path id="Trazado_833254" data-name="Trazado 833254" d="M332.912,379.474l-.849,1.728h0l-2.71,5.514v.006h0l-.025.057-.025.046-1.035,2.106a.117.117,0,0,1-.076.059,1.008,1.008,0,0,1-.841-.118.121.121,0,0,1-.057-.078l-.413-2.31-.021-.114h0l-1.085-6.051h0l-.341-1.9,7.484,1.052Z" transform="translate(-325.426 -321.975)" fill="#f0b16c" fill-rule="evenodd"/>
                <path id="Trazado_833255" data-name="Trazado 833255" d="M334.712,417.021l-1.035,2.106a.117.117,0,0,1-.076.059,1.008,1.008,0,0,1-.841-.118.121.121,0,0,1-.057-.078l-.413-2.31c.107.006.211.015.318.023.3.025.6.059.9.1s.609.095.908.154c.1.019.2.042.3.063Z" transform="translate(-330.84 -352.172)" fill="#32526f" fill-rule="evenodd"/>
                <path id="Trazado_833256" data-name="Trazado 833256" d="M332.178,149.94,325.41,198.1l1.427,7.95,7.836-55.754Z" transform="translate(-325.41 -141.651)" fill="#fff" opacity="0.05"/>
                <path id="Trazado_833257" data-name="Trazado 833257" d="M332.18,207.356l7.836-55.756,2.5.35-7.836,55.756-.053.1c-.392-.086-.795-.158-1.2-.215s-.816-.1-1.218-.124l-.019-.114Z" transform="translate(-330.753 -142.961)" fill="#fff" opacity="0.2"/>
                <rect id="Rectángulo_379517" data-name="Rectángulo 379517" width="2.186" height="7.558" transform="translate(6.767 8.287) rotate(-82)" fill="#ffed00"/>
                <path id="Trazado_833258" data-name="Trazado 833258" d="M365.175,111.082l-3.128-.44a1.98,1.98,0,0,0-2.4,1.309l-.672,4.786,7.484,1.052.672-4.786C367.251,112.111,366.378,111.251,365.175,111.082Z" transform="translate(-351.897 -110.613)" fill="#f85a68"/>
                <path id="Trazado_833259" data-name="Trazado 833259" d="M381.136,113.939l-.672,4.786-3.743-.527.9-6.4,1.564.219c1.2.169,2.078,1.029,1.952,1.918Z" transform="translate(-365.906 -111.55)" fill="#ededed" opacity="0.1"/>
              </g>
            </g>
            <g id="Grupo_1080908" data-name="Grupo 1080908" transform="translate(12.056 46.455)">
              <path id="Trazado_833260" data-name="Trazado 833260" d="M139.319,293.427l-16.376-15.873a4.6,4.6,0,0,0-5.457-.58l.1-.059-4.106-3.979a17.651,17.651,0,0,0-1.446-23.616l1.484,3.632,1.41,12.119-6.789,9.255-8.454,2.546-7.992-1.583-4.354-.757A17.647,17.647,0,0,0,110.9,275.55l4.224,4.093c-.019.051-.036.1-.055.154-.027.076-.057.152-.08.23s-.042.158-.063.236-.038.145-.053.219-.03.167-.042.249-.023.141-.032.213-.013.167-.017.251-.011.141-.011.211c0,.021,0,.042,0,.065,0,.07.006.137.011.209s0,.114.008.171c.006.091.019.181.032.274.008.055.015.112.025.166.015.091.038.181.059.27.013.055.025.11.04.162.025.091.057.179.089.268.017.051.034.1.053.152.036.093.078.181.12.27.023.044.04.091.063.135.051.095.107.185.162.278.023.036.042.072.065.107.07.105.148.209.228.308.015.019.027.038.04.055a4.342,4.342,0,0,0,.314.339l16.377,15.873a4.592,4.592,0,0,0,5.4.607,5.214,5.214,0,0,0,1.3-.978A4.752,4.752,0,0,0,139.319,293.427Zm-24.053-14.094c-.025.055-.053.105-.076.16.036-.08.07-.158.11-.236C115.29,279.282,115.277,279.308,115.266,279.333Zm.249-.459c-.04.065-.08.129-.116.194.061-.11.124-.219.194-.327C115.564,278.785,115.54,278.829,115.515,278.874Zm.318-.468c-.034.042-.065.084-.1.126.051-.072.1-.141.156-.211C115.871,278.349,115.854,278.378,115.833,278.406Z" transform="translate(-80.987 -243.226)" fill="#c6c6c6"/>
              <g id="Grupo_1080907" data-name="Grupo 1080907">
                <g id="Grupo_1080905" data-name="Grupo 1080905" transform="translate(27.843 27.681)">
                  <g id="Grupo_1080904" data-name="Grupo 1080904" transform="translate(4.885 4.381)">
                    <path id="Trazado_833261" data-name="Trazado 833261" d="M236.867,396.324a4.755,4.755,0,0,0,.16-6.711L220.65,373.74a4.755,4.755,0,0,0-6.7.369h0a4.755,4.755,0,0,0-.16,6.711l16.374,15.873a4.755,4.755,0,0,0,6.7-.371h0Z" transform="translate(-212.479 -372.528)" fill="#6e524b"/>
                    <path id="Trazado_833262" data-name="Trazado 833262" d="M236.876,402.243a4.755,4.755,0,0,1-6.7.371L213.8,386.741a4.363,4.363,0,0,1-1.309-3.166,5.116,5.116,0,0,1,1.471-3.545l22.917,22.21Z" transform="translate(-212.488 -378.449)" fill="#ededed" opacity="0.1"/>
                  </g>
                  <path id="Trazado_833263" data-name="Trazado 833263" d="M197,356.7a5.317,5.317,0,0,0-2.46,2.727l-5.244-5.084A19,19,0,0,0,190.759,353c.4-.4.773-.826,1.13-1.256Z" transform="translate(-189.3 -351.74)" fill="#2c4761"/>
                </g>
                <path id="Trazado_833264" data-name="Trazado 833264" d="M62.494,250.657a17.646,17.646,0,1,0-.259-24.955A17.649,17.649,0,0,0,62.494,250.657ZM64.4,227.82a14.619,14.619,0,1,1,.213,20.672A14.618,14.618,0,0,1,64.4,227.82Z" transform="translate(-57.197 -220.404)" fill="#32526f"/>
                <path id="Trazado_833265" data-name="Trazado 833265" d="M69.727,246.444A15.112,15.112,0,1,1,84,262.346,15.128,15.128,0,0,1,69.727,246.444Zm.708.038a14.4,14.4,0,1,0,15.156-13.607,14.421,14.421,0,0,0-15.156,13.607Z" transform="translate(-67.068 -229.67)" fill="#414042"/>
                <path id="Trazado_833266" data-name="Trazado 833266" d="M101.858,250.679A14.4,14.4,0,1,0,86.7,264.29a14.421,14.421,0,0,0,15.16-13.611Z" transform="translate(-69.724 -232.318)" fill="#d3eaeb" opacity="0.61"/>
                <g id="Grupo_1080906" data-name="Grupo 1080906" transform="translate(3.346 3.182)">
                  <path id="Trazado_833267" data-name="Trazado 833267" d="M74,254.985l18.558-18.56a14.279,14.279,0,0,0-4.308-.9c-.242-.013-.485-.019-.727-.021L73.07,249.95A14.317,14.317,0,0,0,74,254.985Z" transform="translate(-73.07 -235.5)" fill="#fff"/>
                  <path id="Trazado_833268" data-name="Trazado 833268" d="M87.4,270.2l20.36-20.36a14.494,14.494,0,0,0-1.671-1.414l-20.1,20.1A14.466,14.466,0,0,0,87.4,270.2Z" transform="translate(-83.267 -245.705)" fill="#fff"/>
                </g>
              </g>
            </g>
          </g>
        </g>
      </g>
    </g>
  </g>
</svg>
