<svg xmlns="http://www.w3.org/2000/svg" width="62" height="62" viewBox="0 0 62 62">
  <g id="Grupo_1081044" data-name="Grupo 1081044" transform="translate(-359 -13506)">
    <path id="Unión_12" data-name="Unión 12" d="M31,0A31,31,0,1,1,0,31,31,31,0,0,1,31,0Z" transform="translate(359 13506)" fill="#cadeb4"/>
    <g id="_30" data-name="30" transform="translate(370 13518)">
      <g id="Grupo_1081039" data-name="Grupo 1081039" transform="translate(0 0)">
        <path id="Trazado_833660" data-name="Trazado 833660" d="M158.422,352.664H165.9a1.862,1.862,0,0,0,0-3.724h-7.478a1.862,1.862,0,1,0,0,3.724Zm0-2.531H165.9a.668.668,0,1,1,0,1.337h-7.478a.668.668,0,1,1,0-1.337Z" transform="translate(-144.503 -322.068)" fill="#455b2d"/>
        <path id="Trazado_833661" data-name="Trazado 833661" d="M130.038,106.055a5.917,5.917,0,0,0,3.381,3.485c1.79.71,3.028,1.315,3.477,1.541a1.024,1.024,0,0,0,.921,0c.45-.227,1.688-.831,3.478-1.541a5.911,5.911,0,0,0,3.009-8.33,3.712,3.712,0,0,1,.406-4.571,1.024,1.024,0,0,0,.061-1.245l-.893-1.282h0a1.025,1.025,0,0,0-1.356-.3,3.793,3.793,0,0,1-4.48-.462,1.013,1.013,0,0,0-1.37,0,3.794,3.794,0,0,1-4.48.463,1.024,1.024,0,0,0-1.356.3l-.892,1.282A1.024,1.024,0,0,0,130,96.64a3.713,3.713,0,0,1,.405,4.571,5.919,5.919,0,0,0-.372,4.845Zm1.419-4.273A4.9,4.9,0,0,0,131,95.969l.728-1.046a4.988,4.988,0,0,0,5.63-.584,4.988,4.988,0,0,0,5.63.584l.728,1.046a4.9,4.9,0,0,0-.459,5.814,4.717,4.717,0,0,1-2.4,6.648c-1.74.69-2.979,1.287-3.5,1.546-.518-.26-1.756-.856-3.5-1.546a4.718,4.718,0,0,1-2.4-6.649Z" transform="translate(-119.698 -85.917)" fill="#455b2d"/>
        <path id="Trazado_833662" data-name="Trazado 833662" d="M178.214,178.092l-.273,1.6a.984.984,0,0,0,1.428,1.037l1.434-.754,1.434.754a.984.984,0,0,0,1.428-1.037l-.274-1.6,1.16-1.131h0a.984.984,0,0,0-.545-1.678l-1.6-.233-.717-1.452a.978.978,0,0,0-.883-.548h0a.979.979,0,0,0-.883.548l-.717,1.452-1.6.233a.984.984,0,0,0-.545,1.678l1.16,1.131Zm1.269-1.877a.985.985,0,0,0,.741-.538l.578-1.171.578,1.171a.985.985,0,0,0,.741.538l1.291.188-.934.911a.984.984,0,0,0-.283.871l.221,1.286-1.155-.608a.982.982,0,0,0-.916,0l-1.155.608.22-1.286a.982.982,0,0,0-.283-.871l-.934-.911,1.291-.188Z" transform="translate(-163.144 -159.723)" fill="#455b2d"/>
        <path id="Trazado_833663" data-name="Trazado 833663" d="M195.332,141.19a2.956,2.956,0,0,1,3.479,0,.6.6,0,1,0,.7-.965,4.151,4.151,0,0,0-4.885,0,.6.6,0,1,0,.7.965Z" transform="translate(-179.414 -128.693)" fill="#455b2d"/>
        <path id="Trazado_833664" data-name="Trazado 833664" d="M449.478,6.132a.511.511,0,0,0,0-.059.15.15,0,0,0,0-.018c0-.016-.005-.033-.009-.049l0-.019c0-.017-.01-.033-.015-.049s0-.007,0-.01L447.967,2.1,447.524.951A1.458,1.458,0,0,0,446.153.01h0a1.459,1.459,0,0,0-1.371.941l-.271.7-.578,1.5h0l-1.064,2.766,0,.011c-.005.015-.011.032-.015.048s0,.014-.005.02a.447.447,0,0,0-.008.047c0,.007,0,.014,0,.021a.424.424,0,0,0,0,.055V6.14h0V30.8h0v2.728h0v2.541a2.139,2.139,0,0,0,2.136,2.136h2.378a2.138,2.138,0,0,0,2.136-2.136V33.528h0V30.8h0V20.627a.6.6,0,0,0-1.194,0V30.2h-1.534V6.738h1.534v11.1a.6.6,0,0,0,1.194,0V6.14h0V6.131Zm-2.531-3.355h-1.588l.152-.4.385-1h0a.257.257,0,0,1,.228-.175l.029,0a.263.263,0,0,1,.22.109l.012.015h0a.287.287,0,0,1,.025.051ZM446.153,31.4h2.131v1.534h-4.262V31.4Zm1.189,5.614h-2.378a.943.943,0,0,1-.943-.942V34.127h4.262v1.944a.943.943,0,0,1-.943.942ZM445.556,30.2h-1.534V6.738h1.534Zm.6-24.661h-1.86L444.9,3.97h2.507l.605,1.573Z" transform="translate(-408.728 -0.009)" fill="#455b2d"/>
        <path id="Trazado_833665" data-name="Trazado 833665" d="M29.826,0H4.623A1.971,1.971,0,0,0,2.654,1.969V4.581H1.862a1.862,1.862,0,0,0,0,3.724h.792V9.642H1.862a1.862,1.862,0,0,0,0,3.724h.792V14.7H1.862a1.862,1.862,0,0,0,0,3.724h.792v1.337H1.862a1.862,1.862,0,0,0,0,3.724h.792v1.337H1.862a1.862,1.862,0,0,0,0,3.724h.792v1.337H1.862a1.862,1.862,0,0,0,0,3.725h.792v2.612a1.971,1.971,0,0,0,1.969,1.969H16.264a.6.6,0,1,0,0-1.194H4.623a.777.777,0,0,1-.775-.775V33.612H4.882a1.865,1.865,0,0,0,1.742-1.205c.013-.034.025-.069.036-.1h0a1.849,1.849,0,0,0,.084-.553h0a1.864,1.864,0,0,0-1.862-1.862H3.847V28.551H4.882a1.861,1.861,0,0,0,1.862-1.863,1.84,1.84,0,0,0-.084-.552h0a1.866,1.866,0,0,0-1.779-1.309H3.847V23.49H4.881a1.864,1.864,0,0,0,1.742-1.205,1.845,1.845,0,0,0,.12-.657h0a1.864,1.864,0,0,0-1.862-1.862H3.847V18.428H4.881a1.863,1.863,0,0,0,0-3.726H3.847V13.366H4.881a1.862,1.862,0,0,0,0-3.725H3.847V8.3H4.881A1.864,1.864,0,0,0,6.743,6.442,1.861,1.861,0,0,0,4.881,4.579H3.847V1.969a.777.777,0,0,1,.775-.775h25.2a.777.777,0,0,1,.775.775V36.228a.777.777,0,0,1-.775.775H19.049a.6.6,0,0,0,0,1.194H29.824a1.971,1.971,0,0,0,1.969-1.969V1.969A1.971,1.971,0,0,0,29.824,0ZM4.882,31.085a.668.668,0,0,1,0,1.337H1.863a.668.668,0,0,1,0-1.337h3.02ZM3.251,27.36H1.863a.668.668,0,1,1,0-1.337h3.02a.669.669,0,0,1,.668.668.678.678,0,0,1-.03.2.67.67,0,0,1-.638.47Zm1.631-6.4a.668.668,0,0,1,0,1.337H1.863a.668.668,0,0,1,0-1.337Zm0-5.062a.668.668,0,0,1,.668.668.678.678,0,0,1-.03.2.67.67,0,0,1-.638.47H1.862a.668.668,0,0,1,0-1.337h3.02ZM3.251,12.174H1.863a.668.668,0,0,1,0-1.337h3.02a.669.669,0,0,1,.668.668.678.678,0,0,1-.03.2.67.67,0,0,1-.638.47H3.251Zm1.631-6.4a.67.67,0,0,1,.638.47.678.678,0,0,1,.03.2.669.669,0,0,1-.668.668H1.863a.668.668,0,0,1,0-1.337Z" transform="translate(0 0)" fill="#455b2d"/>
      </g>
    </g>
  </g>
</svg>
