<svg xmlns="http://www.w3.org/2000/svg" width="85" height="85" viewBox="0 0 85 85">
  <g id="Grupo_1080918" data-name="Grupo 1080918" transform="translate(-285 -4277)">
    <g id="Grupo_1080698" data-name="Grupo 1080698" transform="translate(-0.332 -2174)">
      <circle id="Elipse_4872" data-name="Elipse 4872" cx="42.5" cy="42.5" r="42.5" transform="translate(285.332 6451)" fill="#eaf2e1"/>
      <g id="Grupo_156261" data-name="Grupo 156261" transform="translate(302.332 6467)">
        <rect id="Rectángulo_47312" data-name="Rectángulo 47312" width="7.049" height="3.525" transform="translate(4.424 16.762)" fill="#eaf2e1"/>
        <path id="Trazado_198297" data-name="Trazado 198297" d="M10.008,59.838h7.045l-3.525,4.405Z" transform="translate(-5.582 -33.378)" fill="#eaf2e1"/>
      </g>
    </g>
    <g id="Ñëîé_1" data-name="Ñëîé 1" transform="translate(300.003 4298)">
      <g id="Grupo_1080911" data-name="Grupo 1080911">
        <path id="Trazado_833269" data-name="Trazado 833269" d="M53.69,31.21a.8.8,0,0,0-.47,1.04,2.646,2.646,0,0,1-.28,2.41,2.572,2.572,0,0,1-2.32,1.17.825.825,0,0,0-.71.36.8.8,0,0,0-.06.79,2.609,2.609,0,0,1-.2,2.59,2.653,2.653,0,0,1-3.67.73,2.633,2.633,0,0,1-.72-3.66,3.254,3.254,0,0,1,.23-.29.79.79,0,0,0,.2-.64.826.826,0,0,0-.35-.57L38.86,30.8a15.838,15.838,0,0,0,2-2.68l6.34,4.24a.8.8,0,0,0,.45.14.511.511,0,0,0,.21-.03.824.824,0,0,0,.51-.42,3.3,3.3,0,0,1,.18-.32,2.666,2.666,0,0,1,2.81-1.1.807.807,0,0,0,.37-1.57,4.252,4.252,0,0,0-4.33,1.51l-5.79-3.88a15.723,15.723,0,0,0,.73-11.51l5.05-3.38a4.26,4.26,0,0,0,7.52-1.81,4.181,4.181,0,0,0-.64-3.19,4.225,4.225,0,0,0-2.63-1.79,4.259,4.259,0,1,0-7.9,1.34L39.06,9.48A15.849,15.849,0,0,0,27.33,4.12a15.1,15.1,0,0,0-6.68,1.43.808.808,0,0,0,.67,1.47,13.522,13.522,0,0,1,6-1.28A14.261,14.261,0,0,1,34.3,32.38a.807.807,0,0,0-.41.7v3.68a1.562,1.562,0,0,1-1.56,1.56h-.62V35.93a.81.81,0,1,0-1.62,0v2.39H28.01V35.93a.81.81,0,1,0-1.62,0v2.39H24.31V35.93a.81.81,0,1,0-1.62,0v2.39h-.62a1.562,1.562,0,0,1-1.56-1.56V33.08a.787.787,0,0,0-.41-.7A14.244,14.244,0,0,1,18.72,8.54a.808.808,0,0,0-.96-1.3,16.3,16.3,0,0,0-2.21,2.02L11.2,6.35A4.252,4.252,0,0,0,9.86.72,4.2,4.2,0,0,0,4.01,1.89a4.234,4.234,0,0,0-.66,3.12A4.256,4.256,0,0,0,.08,9.99,4.216,4.216,0,0,0,1.89,12.7a4.263,4.263,0,0,0,5.71-.9l4.63,3.1a15.6,15.6,0,0,0,.75,12.06L7.6,30.56A4.26,4.26,0,0,0,.08,32.37a4.189,4.189,0,0,0,.64,3.19,4.225,4.225,0,0,0,2.63,1.79,4.274,4.274,0,0,0,3.37,4.93,4.757,4.757,0,0,0,.83.08,4.279,4.279,0,0,0,2.36-.72,4.252,4.252,0,0,0,1.34-5.63l5.77-3.87a14.665,14.665,0,0,0,1.92,1.39v3.22a3.171,3.171,0,0,0,3.17,3.17H32.35a3.171,3.171,0,0,0,3.17-3.17V33.53a14.814,14.814,0,0,0,2.15-1.6L43.75,36a4.255,4.255,0,1,0,7.9,1.34,4.265,4.265,0,0,0,3.08-5.67.81.81,0,0,0-1.04-.47ZM7.81,10a.812.812,0,0,0-.66-.11.785.785,0,0,0-.51.43,2.58,2.58,0,0,1-.18.32,2.651,2.651,0,0,1-3.67.73,2.633,2.633,0,0,1-.72-3.66A2.583,2.583,0,0,1,4.39,6.54a.809.809,0,0,0,.77-1.15,2.609,2.609,0,0,1,.2-2.59,2.653,2.653,0,0,1,3.67-.73,2.578,2.578,0,0,1,1.12,1.68,2.6,2.6,0,0,1-.4,1.99,3.155,3.155,0,0,1-.22.29.79.79,0,0,0-.2.64.826.826,0,0,0,.35.57l4.9,3.28a16.044,16.044,0,0,0-1.72,2.87L7.82,10.01ZM9.67,35.14a.826.826,0,0,0-.35.57.8.8,0,0,0,.2.64,3.253,3.253,0,0,1,.23.29,2.638,2.638,0,1,1-4.38,2.94,2.636,2.636,0,0,1-.2-2.59.8.8,0,0,0-.06-.79.85.85,0,0,0-.71-.36,2.594,2.594,0,0,1-2.32-1.17,2.639,2.639,0,1,1,4.39-2.93,2.016,2.016,0,0,1,.18.32.794.794,0,0,0,.51.42.806.806,0,0,0,.66-.11l5.95-3.99a15.43,15.43,0,0,0,2.05,2.64L9.67,35.14ZM45.34,7.22a.826.826,0,0,0,.35-.57.8.8,0,0,0-.2-.64,3.253,3.253,0,0,1-.23-.29,2.639,2.639,0,1,1,4.39-2.93,2.638,2.638,0,0,1,.2,2.59.809.809,0,0,0,.77,1.15A2.572,2.572,0,0,1,52.94,7.7a2.642,2.642,0,0,1-4.39,2.94,3.541,3.541,0,0,1-.19-.33.839.839,0,0,0-.51-.43.812.812,0,0,0-.66.11l-5.43,3.64a15.717,15.717,0,0,0-1.67-2.9l5.25-3.51Z" fill="#455b2d"/>
        <path id="Trazado_833270" data-name="Trazado 833270" d="M21.01,18.11a4.81,4.81,0,1,0,4.81,4.81A4.818,4.818,0,0,0,21.01,18.11Zm0,8.01a3.2,3.2,0,1,1,3.2-3.2A3.2,3.2,0,0,1,21.01,26.12Z" fill="#455b2d"/>
        <path id="Trazado_833271" data-name="Trazado 833271" d="M33.34,27.73a4.81,4.81,0,1,0-4.81-4.81A4.818,4.818,0,0,0,33.34,27.73Zm0-8.01a3.2,3.2,0,1,1-3.2,3.2A3.2,3.2,0,0,1,33.34,19.72Z" fill="#455b2d"/>
        <path id="Trazado_833272" data-name="Trazado 833272" d="M27.25,27.17h0a.779.779,0,0,0-.57.24L25.49,28.6a.806.806,0,0,0,1.14,1.14l.62-.62.6.61a.818.818,0,0,0,.58.24.787.787,0,0,0,.56-.23A.806.806,0,0,0,29,28.6l-1.17-1.19a.82.82,0,0,0-.57-.24Z" fill="#455b2d"/>
      </g>
    </g>
  </g>
</svg>
