<svg xmlns="http://www.w3.org/2000/svg" width="85" height="85" viewBox="0 0 85 85">
  <g id="Grupo_1080915" data-name="Grupo 1080915" transform="translate(-285 -4641)">
    <g id="Grupo_1080701" data-name="Grupo 1080701" transform="translate(0 -2174)">
      <circle id="Elipse_4875" data-name="Elipse 4875" cx="42.5" cy="42.5" r="42.5" transform="translate(285 6815)" fill="#eaf2e1"/>
    </g>
    <g id="Ñëîé_1" data-name="Ñëîé 1" transform="translate(300 4656)">
      <g id="Grupo_1080914" data-name="Grupo 1080914">
        <path id="Trazado_833283" data-name="Trazado 833283" d="M30.43,23.35h1.75a.75.75,0,0,0,0-1.5H30.43a.75.75,0,0,0,0,1.5Z" fill="#455b2d"/>
        <path id="Trazado_833284" data-name="Trazado 833284" d="M11.33,21.84H9.58a.75.75,0,0,0,0,1.5h1.75a.75.75,0,0,0,0-1.5Z" fill="#455b2d"/>
        <path id="Trazado_833285" data-name="Trazado 833285" d="M18.03,28.28a2.855,2.855,0,1,1,5.71-.07v.07a.75.75,0,0,0,1.5,0,4.355,4.355,0,1,0-8.71-.09v.09a.75.75,0,0,0,1.5,0Z" fill="#455b2d"/>
        <path id="Trazado_833286" data-name="Trazado 833286" d="M31.07,35.8H25.82V32.58a11,11,0,0,0,5.62-6.66h1.2a3.329,3.329,0,0,0,3.33-3.33,1.888,1.888,0,0,0-.03-.41,3.375,3.375,0,0,0-3.4-2.91h-.62V17.18A11.211,11.211,0,0,0,21.2,5.94,11.035,11.035,0,0,0,9.86,16.65v2.62H9.24a3.375,3.375,0,0,0-3.4,2.91,3.322,3.322,0,0,0,2.89,3.71,2.828,2.828,0,0,0,.41.03h1.2a10.941,10.941,0,0,0,5.62,6.66V35.8H10.71A10.706,10.706,0,0,0,0,46.49v7.76A.749.749,0,0,0,.75,55H41.01a.749.749,0,0,0,.75-.75V46.49A10.684,10.684,0,0,0,31.08,35.81ZM11.35,16.96a9.532,9.532,0,0,1,9.52-9.53h.28a9.7,9.7,0,0,1,9.26,9.74v2.09h-.93a.39.39,0,0,1-.39-.39V16.52a.752.752,0,0,0-1.24-.56,2.272,2.272,0,0,1-2.96.35l-1.21-.87a.75.75,0,0,0-.9.02l-.54.42a2.191,2.191,0,0,1-2.68,0l-.54-.42a.766.766,0,0,0-.9-.02l-1.21.87a2.182,2.182,0,0,1-2.71-.13l-.25-.22a.755.755,0,0,0-1.25.56v2.35a.39.39,0,0,1-.39.39h-.93v-2.3Zm.27,8.02a.74.74,0,0,0-.73-.57H9.12A1.82,1.82,0,0,1,7.3,22.59a1.77,1.77,0,0,1,.01-.23,1.888,1.888,0,0,1,1.9-1.59h3.06a1.9,1.9,0,0,0,1.9-1.9v-.94a3.652,3.652,0,0,0,3.58-.41l.76-.54a3.71,3.71,0,0,0,4.72,0l.76.54a3.677,3.677,0,0,0,3.58.41v.94a1.9,1.9,0,0,0,1.9,1.9h3.06a1.888,1.888,0,0,1,1.9,1.59,1.823,1.823,0,0,1-1.57,2.04c-.08,0-.15.01-.23.01H30.86a.751.751,0,0,0-.73.57A9.488,9.488,0,0,1,24.8,31.4a9.645,9.645,0,0,1-7.84,0,9.488,9.488,0,0,1-5.33-6.42Zm12.69,8.21V38.3a3.44,3.44,0,0,1-6.88,0V33.19c.27.09.55.17.83.24A11.114,11.114,0,0,0,24.31,33.19ZM40.25,53.48h-4.7V46.93a.75.75,0,0,0-1.5,0v6.55H7.71V46.93a.75.75,0,0,0-1.5,0v6.55H1.5V46.47a9.186,9.186,0,0,1,9.18-9.18h5.25v1a4.94,4.94,0,0,0,9.88,0v-1h5.25a9.18,9.18,0,0,1,9.18,9.18v7.01Z" fill="#455b2d"/>
        <path id="Trazado_833287" data-name="Trazado 833287" d="M44.32,0A10.62,10.62,0,1,0,54.94,10.62h0A10.62,10.62,0,0,0,44.32,0Zm9.12,10.62a9.135,9.135,0,0,1-9.12,9.12h0a9.12,9.12,0,1,1,9.12-9.12Z" fill="#455b2d"/>
        <path id="Trazado_833288" data-name="Trazado 833288" d="M44.76,4.58a.735.735,0,0,0-.87,0c-.19.14-4.7,3.38-4.7,7.08a5.13,5.13,0,1,0,10.26.1v-.09c0-3.71-4.5-6.95-4.7-7.08Zm-.44,10.71a3.636,3.636,0,0,1-3.63-3.63c0-2.34,2.58-4.67,3.63-5.52,1.05.85,3.63,3.18,3.63,5.52A3.63,3.63,0,0,1,44.32,15.29Z" fill="#455b2d"/>
      </g>
    </g>
  </g>
</svg>
